<?xml version="1.0" standalone="no"?>
<!DOCTYPE svg PUBLIC "-//W3C//DTD SVG 1.1//EN" "http://www.w3.org/Graphics/SVG/1.1/DTD/svg11.dtd" >
<svg>
<metadata>
Created by FontForge 20090914 at Fri Aug  4 15:59:32 2017
 By www-data
(c) 1999-2012 Typodermic Fonts Inc. See attached license agreement. If agreement is missing visit typodermicfonts.com for more info.
</metadata>
<defs>
<font id="CoolveticaRg-Regular" horiz-adv-x="498" >
  <font-face 
    font-family="Coolvetica Rg"
    font-weight="400"
    font-stretch="normal"
    units-per-em="1000"
    panose-1="2 11 6 3 3 6 2 2 0 4"
    ascent="767"
    descent="-233"
    x-height="492"
    cap-height="664"
    bbox="-234.999 -233.006 1103 921"
    underline-thickness="20"
    underline-position="-123"
    unicode-range="U+0017-U+FB02"
  />
<missing-glyph horiz-adv-x="452" 
d="M129 0c-64.667 0 -97 28 -97 84v488c0 56.667 32.333 85 97 85h193c65.333 0 98 -28.333 98 -85v-488c0 -56 -32.667 -84 -98 -84h-193zM368 572c0 26 -15.333 39 -46 39h-193c-30.667 0 -46 -13 -46 -39v-488c0 -26 15.333 -39 46 -39h193c30.667 0 46 13 46 39v488z
" />
    <glyph glyph-name="copyright" unicode="&#x28;C&#x29;" horiz-adv-x="666" 
d="M333 -9c-44 0 -85.167 9 -123.5 27s-72 42.5 -101 73.5s-51.833 67.167 -68.5 108.5s-25 85.666 -25 132.999c0 46.667 8.33301 90.834 25 132.501s39.5 77.834 68.5 108.501s62.667 55 101 73s79.5 27 123.5 27s85.333 -9 124 -27s72.334 -42.333 101.001 -73
s51.334 -66.834 68.001 -108.501s25 -85.834 25 -132.501c0 -47.333 -8.33301 -91.666 -25 -132.999s-39.334 -77.5 -68.001 -108.5s-62.334 -55.5 -101.001 -73.5s-80 -27 -124 -27zM335 44c36.667 0 71.334 7.5 104.001 22.5s61.167 35.5 85.5 61.5
s43.666 56.5 57.999 91.5s21.5 72.5 21.5 112.5c0 39.333 -7.16699 76.5 -21.5 111.5s-33.666 65.667 -57.999 92s-52.833 47.166 -85.5 62.499s-67.334 23 -104.001 23c-37.333 0 -72.333 -7.66699 -105 -23s-61 -36.166 -85 -62.499s-43 -57 -57 -92
s-21 -72.167 -21 -111.5c0 -40 7 -77.5 21 -112.5s33 -65.5 57 -91.5s52.333 -46.5 85 -61.5s67.667 -22.5 105 -22.5zM390 369c-2.66699 12.667 -8.49805 22.5 -17.498 29.5s-19.167 10.5 -30.5 10.5c-16.667 0 -30 -6.83301 -40 -20.5s-15 -31.167 -15 -52.5
c0 -54.667 17.667 -82 53 -82c12 0 22.667 3.83301 32 11.5s14.666 18.5 15.999 32.5h72c-3.33301 -30 -16.5 -54.333 -39.5 -73s-50.833 -28 -83.5 -28c-40 0 -70.5 11.833 -91.5 35.5s-31.5 55.5 -31.5 95.5c0 44 10.667 78.167 32 102.5s52.666 36.5 93.999 36.5
c34.667 0 63 -8.83301 85 -26.5s34 -41.5 36 -71.5h-71z" />
    <glyph glyph-name="registered" unicode="&#x28;R&#x29;" horiz-adv-x="447" 
d="M425 494c0 -26.667 -5 -51.5 -15 -74.5s-23.667 -43.167 -41 -60.5s-37.666 -31 -60.999 -41s-48.333 -15 -75 -15s-51.5 5 -74.5 15s-43.167 23.667 -60.5 41s-31 37.5 -41 60.5s-15 47.833 -15 74.5s5 51.667 15 75s23.667 43.666 41 60.999s37.5 31 60.5 41
s47.833 15 74.5 15s51.667 -5 75 -15s43.666 -23.667 60.999 -41s31 -37.666 41 -60.999s15 -48.333 15 -75zM394 494c0 22 -4.16699 42.833 -12.5 62.5s-19.833 36.834 -34.5 51.501s-31.834 26.167 -51.501 34.5s-40.5 12.5 -62.5 12.5s-42.833 -4.16699 -62.5 -12.5
s-36.834 -19.833 -51.501 -34.5s-26.167 -31.834 -34.5 -51.501s-12.5 -40.5 -12.5 -62.5s4.16699 -42.833 12.5 -62.5s19.833 -36.834 34.5 -51.501s31.834 -26.167 51.501 -34.5s40.5 -12.5 62.5 -12.5s42.833 4.16699 62.5 12.5s36.834 19.833 51.501 34.5
s26.167 31.834 34.5 51.501s12.5 40.5 12.5 62.5zM204 560l0.000976562 -46.999h46c9.33301 0 16.166 2.16699 20.499 6.5s6.5 9.83301 6.5 16.5c0 7.33301 -2 13.166 -6 17.499s-10.667 6.5 -20 6.5h-47zM270.001 415.001v45c0 8.66699 -1.83301 14.834 -5.5 18.501
s-10.834 5.5 -21.501 5.5h-39v-69h-36v175h89c16.667 0 29.834 -4.83301 39.501 -14.5s14.5 -21.834 14.5 -36.501c0 -9.33301 -2.16699 -17.5 -6.5 -24.5s-10.833 -12.167 -19.5 -15.5c8 -2.66699 13.5 -6.5 16.5 -11.5s4.5 -12.5 4.5 -22.5v-50h-36z" />
    <glyph glyph-name="uni2117" unicode="&#x28;P&#x29;" horiz-adv-x="666" 
d="M333 -9c-44 0 -85.167 9 -123.5 27s-72 42.5 -101 73.5s-51.833 67.167 -68.5 108.5s-25 85.666 -25 132.999c0 46.667 8.33301 90.834 25 132.501s39.5 77.834 68.5 108.501s62.667 55 101 73s79.5 27 123.5 27s85.333 -9 124 -27s72.334 -42.333 101.001 -73
s51.334 -66.834 68.001 -108.501s25 -85.834 25 -132.501c0 -47.333 -8.33301 -91.666 -25 -132.999s-39.334 -77.5 -68.001 -108.5s-62.334 -55.5 -101.001 -73.5s-80 -27 -124 -27zM335 44c36.667 0 71.334 7.5 104.001 22.5s61.167 35.5 85.5 61.5
s43.666 56.5 57.999 91.5s21.5 72.5 21.5 112.5c0 39.333 -7.16699 76.5 -21.5 111.5s-33.666 65.667 -57.999 92s-52.833 47.166 -85.5 62.499s-67.334 23 -104.001 23c-37.333 0 -72.333 -7.66699 -105 -23s-61 -36.166 -85 -62.499s-43 -57 -57 -92
s-21 -72.167 -21 -111.5c0 -40 7 -77.5 21 -112.5s33 -65.5 57 -91.5s52.333 -46.5 85 -61.5s67.667 -22.5 105 -22.5zM355 342c19.333 0 33.166 4.66797 41.499 14.001s12.5 21 12.5 35c0 13.333 -4.16699 24.166 -12.5 32.499s-22.166 12.5 -41.499 12.5h-64v-94h64z
M224 172.001v320h141c31.333 0 56.333 -10 75 -30s28 -44.667 28 -74s-9.33301 -53.333 -28 -72s-43.667 -28 -75 -28h-74v-116h-67z" />
    <glyph glyph-name="uniE004" unicode="GT" horiz-adv-x="1108" 
d="M763 0v548h-140v116h480v-116h-201v-548h-139zM894 -14c0 -36.667 -5.00293 -68.6689 -15.0029 -96.002s-23.833 -50.166 -41.5 -68.499s-38.334 -32 -62.001 -41s-49.167 -13.5 -76.5 -13.5c-29.333 0 -56 4.83301 -80 14.5s-44.667 23.334 -62 41.001
s-30.666 38.667 -39.999 63s-14 51.5 -14 81.5v81c-19.333 -25.333 -43.833 -43.5 -73.5 -54.5s-67.5 -16.5 -113.5 -16.5c-45.333 0 -86.5 9.16699 -123.5 27.5s-68.667 43.5 -95 75.5s-46.666 69.667 -60.999 113s-21.5 90 -21.5 140c0 48.667 7 94.5 21 137.5
s34.667 80.5 62 112.5s61.333 57.167 102 75.5s88 27.5 142 27.5c39.333 0 76.166 -5.66699 110.499 -17s64.333 -27 90 -47s46.334 -43.833 62.001 -71.5s24.834 -58.167 27.501 -91.5h-140c-2 15.333 -7.33301 29.833 -16 43.5s-19.667 25.5 -33 35.5s-28.833 18 -46.5 24
s-35.834 9 -54.501 9c-56 0 -100.833 -20.833 -134.5 -62.5s-50.5 -102.167 -50.5 -181.5c0 -36 4.5 -68.5 13.5 -97.5s21.5 -53.5 37.5 -73.5s35.333 -35.333 58 -46s47.667 -16 75 -16c22.667 0 43.834 4 63.501 12s36.834 19 51.501 33s26.167 30.167 34.5 48.5
s12.5 37.833 12.5 58.5h-147v111h277v-384c0 -34 7 -57.667 21 -71s30.333 -20 49 -20c21.333 0 38.333 8.33301 51 25s19 43 19 79h121z" />
    <glyph glyph-name=".notdef" horiz-adv-x="452" 
d="M129 0c-64.667 0 -97 28 -97 84v488c0 56.667 32.333 85 97 85h193c65.333 0 98 -28.333 98 -85v-488c0 -56 -32.667 -84 -98 -84h-193zM368 572c0 26 -15.333 39 -46 39h-193c-30.667 0 -46 -13 -46 -39v-488c0 -26 15.333 -39 46 -39h193c30.667 0 46 13 46 39v488z
" />
    <glyph glyph-name="uni0017" horiz-adv-x="247" 
 />
    <glyph glyph-name="space" unicode=" " horiz-adv-x="247" 
 />
    <glyph glyph-name="exclam" unicode="!" horiz-adv-x="241" 
d="M52 0v131h135v-131h-135zM86 184c-13.333 80 -23.168 153.998 -29.501 221.998s-9.5 130.333 -9.5 187c0 13.333 0.166992 26 0.5 38s1.83301 23 4.5 33h138c1.33301 -11.333 2.33301 -23.166 3 -35.499s1 -25.166 1 -38.499c0 -55.333 -3.16699 -116.833 -9.5 -184.5
s-16.166 -141.5 -29.499 -221.5h-69z" />
    <glyph glyph-name="quotedbl" unicode="&#x22;" horiz-adv-x="264" 
d="M23 414v250h89v-250h-89zM155 414v250h89v-250h-89z" />
    <glyph glyph-name="numbersign" unicode="#" horiz-adv-x="496" 
d="M295 390h-88l-16 -116h89zM242 0l27 189h-88l-24 -189h-85l24 189h-87l9 85h89l15 116h-87l10 85h88l26 189h83l-25 -189h89l24 189h86l-25 -189h88l-12 -85h-87l-15 -116h88l-10 -85h-89l-25 -189h-87z" />
    <glyph glyph-name="dollar" unicode="$" horiz-adv-x="477" 
d="M265 83c25.333 1.33301 45.5 10.333 60.5 27s22.5 35.667 22.5 57c0 23.333 -7.5 43 -22.5 59s-35.167 27.333 -60.5 34v-177zM224 559c-24.667 -1.33301 -44 -9.33398 -58 -24.001s-21 -31.667 -21 -51c0 -20 6.83301 -38.167 20.5 -54.5s33.167 -26.166 58.5 -29.499
v159zM224 -55.001l-0.00292969 39.0039c-37.333 3.33301 -69.166 9.66602 -95.499 18.999s-48 22.666 -65 39.999s-29.5 38.833 -37.5 64.5s-12 56.167 -12 91.5h120c2.66699 -21.333 6.16699 -39 10.5 -53s10 -25.333 17 -34s15.5 -15.167 25.5 -19.5s22.333 -7.5 37 -9.5
v193c-33.333 8.66699 -62.333 18.5 -87 29.5s-45.167 24 -61.5 39s-28.666 32.333 -36.999 52s-12.5 43.167 -12.5 70.5c0 26 5 50.5 15 73.5s23.833 43.167 41.5 60.5s38.5 31 62.5 41s50.333 15.333 79 16v44h41v-44c123.333 -4 188 -68.667 194 -194h-118
c-3.33301 36 -11.166 60.5 -23.499 73.5s-29.833 20.167 -52.5 21.5v-172c44.667 -14.667 80.5 -29 107.5 -43s47.667 -28.833 62 -44.5s23.833 -32.834 28.5 -51.501s7 -40.334 7 -65.001c0 -29.333 -4.83301 -55.833 -14.5 -79.5s-23.5 -44.167 -41.5 -61.5
s-39.667 -31 -65 -41s-53.333 -15.667 -84 -17v-39h-41z" />
    <glyph glyph-name="percent" unicode="%" horiz-adv-x="660" 
d="M133 384c16 0 27.833 9.33301 35.5 28s11.5 50.667 11.5 96c0 46 -3.83301 78.5 -11.5 97.5s-19.5 28.5 -35.5 28.5c-15.333 0 -27 -9.33301 -35 -28s-12 -51 -12 -97s4 -78.333 12 -97s19.667 -28 35 -28zM131 331c-36 0 -63.833 14.167 -83.5 42.5
s-29.5 73.833 -29.5 136.5s9.83301 107.667 29.5 135s47.5 41 83.5 41s64.167 -13.667 84.5 -41s30.5 -72 30.5 -134s-10.167 -107.5 -30.5 -136.5s-48.5 -43.5 -84.5 -43.5zM67 -20l461 704h68l-462 -704h-67zM535 31c16 0 27.833 9.33301 35.5 28s11.5 50.667 11.5 96
c0 46 -3.83301 78.5 -11.5 97.5s-19.5 28.5 -35.5 28.5c-15.333 0 -27 -9.33301 -35 -28s-12 -51 -12 -97s4 -78.333 12 -97s19.667 -28 35 -28zM533 -22c-36 0 -63.833 14.167 -83.5 42.5s-29.5 73.833 -29.5 136.5s9.83301 107.667 29.5 135s47.5 41 83.5 41
s64.167 -13.667 84.5 -41s30.5 -72 30.5 -134s-10.167 -107.5 -30.5 -136.5s-48.5 -43.5 -84.5 -43.5z" />
    <glyph glyph-name="ampersand" unicode="&#x26;" 
d="M355 381l124.998 0.00195312v-179c0 -34 -5.5 -64.833 -16.5 -92.5s-26.333 -51.334 -46 -71.001s-43.167 -34.834 -70.5 -45.501s-57.666 -16 -90.999 -16c-38 0 -71.667 5.33301 -101 16s-54.166 25.334 -74.499 44.001s-35.833 40.667 -46.5 66s-16 52.666 -16 81.999
c0 15.333 2 31.166 6 47.499s9.5 31.5 16.5 45.5s15.5 26.333 25.5 37s20.667 18.667 32 24c-51.333 26.667 -77 73 -77 139c0 28 6 53.333 18 76s29 42.167 51 58.5s48.333 29 79 38s64.667 13.5 102 13.5v-109c-45.333 0 -77 -7.16699 -95 -21.5s-27 -37.833 -27 -70.5
c0 -28 9.33301 -48.667 28 -62s50 -20 94 -20v-94c-40 0 -71 -8.16699 -93 -24.5s-33 -41.5 -33 -75.5c0 -14 2.16699 -27.167 6.5 -39.5s11 -23.166 20 -32.499s20.333 -16.833 34 -22.5s30.167 -8.5 49.5 -8.5c66.667 0 100 39.333 100 118v179z" />
    <glyph glyph-name="quotesingle" unicode="'" horiz-adv-x="132" 
d="M23 414v250h89v-250h-89z" />
    <glyph glyph-name="parenleft" unicode="(" horiz-adv-x="322" 
d="M227 -143c-52 62.667 -91.667 132.333 -119 209s-41 155 -41 235c0 76.667 13 151.5 39 224.5s66.333 140.5 121 202.5h95c-40.667 -68 -71.167 -137.833 -91.5 -209.5s-30.5 -144.834 -30.5 -219.501s10.167 -149.167 30.5 -223.5s50.833 -147.166 91.5 -218.499h-95z
" />
    <glyph glyph-name="parenright" unicode=")" horiz-adv-x="322" 
d="M8 -143c40.667 71.333 71.167 144.167 91.5 218.5s30.5 148.833 30.5 223.5s-10.167 147.834 -30.5 219.501s-50.833 141.5 -91.5 209.5h95c54.667 -62 95 -129.5 121 -202.5s39 -147.833 39 -224.5c0 -80 -13.667 -158.333 -41 -235s-67 -146.334 -119 -209.001h-95z
" />
    <glyph glyph-name="asterisk" unicode="*" horiz-adv-x="534" 
d="M365 197l-98 129l-95 -129l-90 63l96 136l-146 46l33 101l143 -46v167h118v-167l143 46l36 -101l-148 -46l96 -136z" />
    <glyph glyph-name="plus" unicode="+" horiz-adv-x="518" 
d="M211 107v189h-188v94h188v188h94v-188h189v-94h-189v-189h-94z" />
    <glyph glyph-name="comma" unicode="," horiz-adv-x="184" 
d="M23 -106c25.333 6.66699 44.334 18 57.001 34s19.334 40 20.001 72h-77v135h138v-102c0 -28 -2.33301 -52.667 -7 -74s-12.334 -39.5 -23.001 -54.5s-24.834 -27.5 -42.501 -37.5s-39.5 -17.667 -65.5 -23v50z" />
    <glyph glyph-name="hyphen" unicode="-" horiz-adv-x="274" 
d="M13 257v101h248v-101h-248z" />
    <glyph glyph-name="period" unicode="." horiz-adv-x="184" 
d="M23 0v135h139v-135h-139z" />
    <glyph glyph-name="slash" unicode="/" horiz-adv-x="294" 
d="M-5 0l190 664h109l-192 -664h-107z" />
    <glyph glyph-name="zero" unicode="0" horiz-adv-x="485" 
d="M247 82c16 0 29.833 4.50098 41.5 13.501s21.334 23.333 29.001 43s13.5 45.334 17.5 77.001s6 70.167 6 115.5c0 46 -2 85 -6 117s-9.83301 57.833 -17.5 77.5s-17.334 34 -29.001 43s-25.5 13.5 -41.5 13.5s-29.833 -4.33301 -41.5 -13s-21.5 -22.834 -29.5 -42.501
s-14 -45.334 -18 -77.001s-6 -70.5 -6 -116.5s2 -85 6 -117s10 -58 18 -78s17.833 -34.333 29.5 -43s25.5 -13 41.5 -13zM243 -22.999c-36 0 -68.001 7.00098 -96.001 21.001s-51.667 35.5 -71 64.5s-34 66 -44 111s-15 98.833 -15 161.5c0 62 5 115.167 15 159.5
s24.667 80.666 44 108.999s43 49.166 71 62.499s60 20 96 20s68.167 -6.66699 96.5 -20s52.333 -34 72 -62s34.834 -64 45.501 -108s16 -97 16 -159c0 -123.333 -20.5 -214.166 -61.5 -272.499s-97.167 -87.5 -168.5 -87.5z" />
    <glyph glyph-name="one" unicode="1" horiz-adv-x="293" 
d="M140 0l0.00195312 459h-136v90c28.667 0 52.667 2.33301 72 7s35.166 11.834 47.499 21.501s21.666 21.667 27.999 36s10.5 31.166 12.5 50.499h106v-664h-130z" />
    <glyph glyph-name="two" unicode="2" horiz-adv-x="460" 
d="M4 0c0 30.667 2.49512 59.332 7.49512 85.999s14.667 53 29 79s34.5 52.333 60.5 79s60.333 55.334 103 86.001c24 16.667 43.833 31.667 59.5 45s28.167 26 37.5 38s16 24 20 36s6 25 6 39c0 16.667 -2.33301 30.667 -7 42s-11.167 20.333 -19.5 27
s-18.166 11.334 -29.499 14.001s-23.333 4 -36 4c-30 0 -53.667 -8.5 -71 -25.5s-26 -47.833 -26 -92.5h-125c0 72 18.833 128.167 56.5 168.5s90.834 60.5 159.501 60.5c33.333 0 63.833 -4 91.5 -12s51.334 -20 71.001 -36s35 -36.167 46 -60.5s16.5 -52.833 16.5 -85.5
c0 -25.333 -3.33301 -48.333 -10 -69s-17.5 -41 -32.5 -61s-34.833 -40.333 -59.5 -61s-54.667 -43.667 -90 -69c-25.333 -18.667 -46.666 -38.834 -63.999 -60.501s-26.666 -41.167 -27.999 -58.5h286v-113h-452z" />
    <glyph glyph-name="three" unicode="3" horiz-adv-x="474" 
d="M184 389c28 0 50.832 2.50195 68.499 7.50195s31.334 11.667 41.001 20s16.334 18 20.001 29s5.5 22.5 5.5 34.5c0 33.333 -6.83301 58.666 -20.5 75.999s-35.5 26 -65.5 26c-25.333 0 -46.333 -9.5 -63 -28.5s-25 -45.833 -25 -80.5h-121c0 32 5.16699 61 15.5 87
s25 48.333 44 67s41.667 33.167 68 43.5s55.166 15.5 86.499 15.5c28.667 0 55.5 -4.33301 80.5 -13s46.833 -21 65.5 -37s33.334 -35.167 44.001 -57.5s16 -46.833 16 -73.5c0 -30 -6.5 -58.5 -19.5 -85.5s-32.5 -48.167 -58.5 -63.5c32 -13.333 56.5 -33.5 73.5 -60.5
s25.5 -61.5 25.5 -103.5c0 -33.333 -5.66699 -63.333 -17 -90s-27.333 -49.167 -48 -67.5s-45.334 -32.5 -74.001 -42.5s-60.334 -15 -95.001 -15c-69.333 0 -123 19.333 -161 58s-57 92 -57 160h125c0 -38.667 8.33301 -66.834 25 -84.501s41.334 -26.5 74.001 -26.5
c27.333 0 50 9.5 68 28.5s27 46.167 27 81.5c0 38.667 -11.167 65.667 -33.5 81s-60.5 23 -114.5 23v91z" />
    <glyph glyph-name="four" unicode="4" horiz-adv-x="471" 
d="M265 480l-136 -234h136v234zM262 0v145h-258v113l242 406h146v-418h75v-101h-75v-145h-130z" />
    <glyph glyph-name="five" unicode="5" horiz-adv-x="485" 
d="M28 261l13.999 403h409v-110h-293l-6 -178c17.333 18.667 37.5 31.167 60.5 37.5s46.833 9.5 71.5 9.5c26.667 0 51.834 -4.66699 75.501 -14s44 -22.833 61 -40.5s30.5 -39.5 40.5 -65.5s15 -55.667 15 -89c0 -36 -5.66699 -68.5 -17 -97.5s-27 -53.833 -47 -74.5
s-44 -36.667 -72 -48s-59 -17 -93 -17c-30 0 -58.167 4.83301 -84.5 14.5s-49.5 23 -69.5 40s-35.833 37.333 -47.5 61s-18.167 49.834 -19.5 78.501h130c2.66699 -28 12 -49.667 28 -65s37 -23 63 -23c36 0 61.5 11.333 76.5 34s22.5 53 22.5 91
c0 34.667 -7.5 61.667 -22.5 81s-37.833 29 -68.5 29c-23.333 0 -42.333 -4.83301 -57 -14.5s-26.667 -23.834 -36 -42.501h-134z" />
    <glyph glyph-name="six" unicode="6" horiz-adv-x="482" 
d="M246 82c14.667 0 27.832 3.16895 39.499 9.50195s21.5 15.166 29.5 26.499s14 24.666 18 39.999s6 32 6 50c0 38 -8.66699 68.167 -26 90.5s-40.333 33.5 -69 33.5c-29.333 0 -53.166 -11.167 -71.499 -33.5s-27.5 -51.833 -27.5 -88.5c0 -38 8.83301 -68.833 26.5 -92.5
s42.5 -35.5 74.5 -35.5zM325.998 520.002c-3.33301 41.333 -26.666 62.001 -69.999 62.001c-36 0 -62.833 -17.167 -80.5 -51.5s-28.5 -87.166 -32.5 -158.499c15.333 18 33.5 32.833 54.5 44.5s48.167 17.5 81.5 17.5c26 0 50.5 -5 73.5 -15s43 -24.5 60 -43.5
s30.333 -42 40 -69s14.5 -57.833 14.5 -92.5c0 -34 -5.33301 -65.5 -16 -94.5s-25.5 -54 -44.5 -75s-42 -37.5 -69 -49.5s-56.833 -18 -89.5 -18c-78.667 0 -137.167 28 -175.5 84s-57.5 139 -57.5 249c0 66.667 5.16699 123.667 15.5 171s25.666 86.166 45.999 116.499
s46 52.666 77 66.999s67.167 21.5 108.5 21.5c54 0 97.833 -14.167 131.5 -42.5s54.167 -69.5 61.5 -123.5h-129z" />
    <glyph glyph-name="seven" unicode="7" horiz-adv-x="473" 
d="M95 0c4 48 11.667 95.999 23 143.999s26.833 95.333 46.5 142s43 92.167 70 136.5s58.167 86.5 93.5 126.5h-324v115h465v-100c-74.667 -83.333 -132 -173.166 -172 -269.499s-62.667 -194.5 -68 -294.5h-134z" />
    <glyph glyph-name="eight" unicode="8" horiz-adv-x="490" 
d="M245 84c34 0 58.499 9.66699 73.499 29s22.5 46.333 22.5 81c0 30.667 -7.66699 55.667 -23 75s-39.666 29 -72.999 29s-57.333 -9.33301 -72 -28s-22 -44 -22 -76c0 -34.667 7.16699 -61.667 21.5 -81s38.5 -29 72.5 -29zM244.999 401
c27.333 0 47.666 8.33301 60.999 25s20 38 20 64c0 27.333 -6.66699 49.166 -20 65.499s-33.666 24.5 -60.999 24.5s-47.666 -8.16699 -60.999 -24.5s-20 -38.166 -20 -65.499c0 -26 6.66699 -47.333 20 -64s33.666 -25 60.999 -25zM375.999 363
c14.667 -6.66699 28.165 -15.832 40.498 -27.499s22.833 -24.834 31.5 -39.501s15.334 -30.667 20.001 -48s7 -35.333 7 -54c0 -31.333 -4.66699 -60.333 -14 -87s-23.5 -49.667 -42.5 -69s-42.833 -34.333 -71.5 -45s-62.334 -16 -101.001 -16c-38 0 -71.5 5.5 -100.5 16.5
s-53.167 26 -72.5 45s-33.833 41.333 -43.5 67s-14.5 53.167 -14.5 82.5c0 38.667 8.66699 72.334 26 101.001s43.333 51.334 78 68.001c-27.333 14 -46.666 34.833 -57.999 62.5s-17 55.5 -17 83.5c0 26 5 50.167 15 72.5s24 41.666 42 57.999s39.333 29.166 64 38.499
s51.667 14 81 14c32.667 0 61.5 -4.66699 86.5 -14s45.833 -22 62.5 -38s29.167 -34.833 37.5 -56.5s12.5 -45.167 12.5 -70.5c0 -29.333 -5.16699 -57.333 -15.5 -84s-28.166 -46.667 -53.499 -60z" />
    <glyph glyph-name="nine" unicode="9" horiz-adv-x="482" 
d="M238 331c29.333 0 53.166 11.165 71.499 33.498s27.5 51.833 27.5 88.5c0 38 -8.83301 68.833 -26.5 92.5s-42.5 35.5 -74.5 35.5c-15.333 0 -28.666 -3.16699 -39.999 -9.5s-21 -15.166 -29 -26.499s-14 -24.666 -18 -39.999s-6 -32 -6 -50
c0 -38 8.66699 -68.167 26 -90.5s40.333 -33.5 69 -33.5zM156 142.998c3.33301 -41.333 26.666 -62.001 69.999 -62.001c36 0 62.833 17.167 80.5 51.5s28.5 87.166 32.5 158.499c-15.333 -18 -33.5 -32.833 -54.5 -44.5s-48.167 -17.5 -81.5 -17.5c-26 0 -50.5 5 -73.5 15
s-43 24.5 -60 43.5s-30.333 42 -40 69s-14.5 57.833 -14.5 92.5c0 34 5.33301 65.5 16 94.5s25.5 54 44.5 75s42 37.5 69 49.5s56.833 18 89.5 18c78.667 0 137.167 -28 175.5 -84s57.5 -139 57.5 -249c0 -66.667 -5.16699 -123.667 -15.5 -171
s-25.666 -86.166 -45.999 -116.499s-46 -52.666 -77 -66.999s-67.167 -21.5 -108.5 -21.5c-54 0 -97.833 14.167 -131.5 42.5s-54.167 69.5 -61.5 123.5h129z" />
    <glyph glyph-name="colon" unicode=":" horiz-adv-x="168" 
d="M14 0v135h138v-135h-138zM14 339v134h138v-134h-138z" />
    <glyph glyph-name="semicolon" unicode=";" horiz-adv-x="154" 
d="M10 -106c25.333 6.66699 44.334 18 57.001 34s19.334 40 20.001 72h-77v135h138v-102c0 -28 -2.33301 -52.667 -7 -74s-12.334 -39.5 -23.001 -54.5s-24.834 -27.5 -42.501 -37.5s-39.5 -17.667 -65.5 -23v50zM10.001 339v134h138v-134h-138z" />
    <glyph glyph-name="less" unicode="&#x3c;" horiz-adv-x="518" 
d="M23 296v94l471 200v-104l-365 -143l365 -143v-104z" />
    <glyph glyph-name="equal" unicode="=" horiz-adv-x="518" 
d="M23 396v94h471v-94h-471zM23 196v94h471v-94h-471z" />
    <glyph glyph-name="greater" unicode="&#x3e;" horiz-adv-x="518" 
d="M23 96v104l365 143l-365 143v104l471 -200v-94z" />
    <glyph glyph-name="question" unicode="?" horiz-adv-x="486" 
d="M179 0v131h135v-131h-135zM183 193c0 39.333 2.99609 71 8.99609 95s17.667 46 35 66c10 12 21.333 22.333 34 31s24.334 17.834 35.001 27.501s19.667 20.5 27 32.5s11 27.667 11 47c0 32.667 -9 55.5 -27 68.5s-39.333 19.5 -64 19.5
c-35.333 0 -59.666 -9.83301 -72.999 -29.5s-21.666 -46.167 -24.999 -79.5h-129c0 32.667 5.33301 62.334 16 89.001s25.834 49.334 45.501 68.001s43.334 33 71.001 43s58.167 15 91.5 15c72 0 128.833 -14.667 170.5 -44s62.5 -77 62.5 -143
c0 -21.333 -2.16699 -40 -6.5 -56s-10.833 -30.5 -19.5 -43.5s-19.334 -25.167 -32.001 -36.5s-27 -23 -43 -35c-14.667 -11.333 -26.5 -21.833 -35.5 -31.5s-15.833 -19.834 -20.5 -30.501s-7.66699 -21.834 -9 -33.501s-2 -24.834 -2 -39.501h-122z" />
    <glyph glyph-name="at" unicode="@" horiz-adv-x="708" 
d="M336 154c30 0 54 14.332 72 42.999s27 65.334 27 110.001c0 27.333 -5.83301 48.333 -17.5 63s-28.834 22 -51.501 22c-29.333 0 -54.166 -12 -74.499 -36s-30.5 -62.667 -30.5 -116c0 -28 5.5 -49.333 16.5 -64s30.5 -22 58.5 -22zM646 -15.001
c-19.333 -16.667 -51.998 -32.1641 -97.998 -46.4971s-107.333 -21.5 -184 -21.5c-57.333 0 -107.666 8.5 -150.999 25.5s-79.666 40.667 -108.999 71s-51.5 66.666 -66.5 108.999s-22.5 88.5 -22.5 138.5c0 52.667 8 101.334 24 146.001s39.167 83.167 69.5 115.5
s67.333 57.666 111 75.999s93.167 27.5 148.5 27.5c44 0 85.667 -5.33301 125 -16s73.833 -27.667 103.5 -51s53.167 -53.333 70.5 -90s26 -80.667 26 -132c0 -43.333 -5.33301 -81.5 -16 -114.5s-24.334 -60.667 -41.001 -83s-35.334 -39.166 -56.001 -50.499
s-41.334 -17 -62.001 -17c-28 0 -49.333 5.16699 -64 15.5s-23.667 22.833 -27 37.5c-10.667 -18 -25.167 -30.833 -43.5 -38.5s-39.166 -11.5 -62.499 -11.5c-26 0 -48.167 4.66699 -66.5 14s-33.333 21.666 -45 36.999s-20.167 32.833 -25.5 52.5s-8 40.167 -8 61.5
c0 32 4.33301 61.833 13 89.5s21.167 51.5 37.5 71.5s36 35.833 59 47.5s48.833 17.5 77.5 17.5c23.333 0 43.666 -5.16699 60.999 -15.5s29.666 -26.166 36.999 -47.499l13 53h78l-52 -247c-4 -18 -6 -30 -6 -36c0 -6.66699 2.5 -11.5 7.5 -14.5s10.167 -4.5 15.5 -4.5
c11.333 0 23 3.66699 35 11s23 18.166 33 32.499s18.167 32.333 24.5 54s9.5 46.834 9.5 75.501c0 41.333 -5.83301 76.666 -17.5 105.999s-28.5 53.166 -50.5 71.499s-48.5 31.833 -79.5 40.5s-65.833 13 -104.5 13c-44.667 0 -84.167 -8.5 -118.5 -25.5
s-63 -39.167 -86 -66.5s-40.5 -58.5 -52.5 -93.5s-18 -70.5 -18 -106.5c0 -89.333 24.333 -157.333 73 -204s117 -70 205 -70c58.667 0 109 4.66699 151 14s73.333 21.666 94 36.999z" />
    <glyph glyph-name="A" unicode="A" horiz-adv-x="638" 
d="M319 515h-1l-85 -264h169zM484 0l-42 137h-245l-47 -137h-147l237 664h161l234 -664h-151z" />
    <glyph glyph-name="B" unicode="B" horiz-adv-x="570" 
d="M333 113c32 0 57 9.00098 75 27.001s27 40.667 27 68c0 29.333 -8.83301 50.666 -26.5 63.999s-42.167 20 -73.5 20h-178v-179h176zM157 549.001v-143.999h175c56 0 84 24 84 72c0 25.333 -7.16699 43.666 -21.5 54.999s-37.833 17 -70.5 17h-167zM23 0.00195312
l-0.000976562 663.999h327c65.333 0 115 -16.167 149 -48.5s51 -76.5 51 -132.5c0 -28.667 -7.66699 -54.167 -23 -76.5s-34.666 -38.166 -57.999 -47.499c14 -5.33301 27.167 -12.166 39.5 -20.499s23 -19 32 -32s16.167 -28.333 21.5 -46s8 -38.5 8 -62.5
c0 -60.667 -20.333 -108.834 -61 -144.501s-103 -53.5 -187 -53.5h-299z" />
    <glyph glyph-name="C" unicode="C" horiz-adv-x="608" 
d="M608 228c-7.33301 -38 -18.9971 -72.333 -34.9971 -103s-36.167 -57 -60.5 -79s-52.5 -39 -84.5 -51s-67.333 -18 -106 -18c-43.333 0 -83.833 7.33301 -121.5 22s-70.167 36.667 -97.5 66s-48.833 65.5 -64.5 108.5s-23.5 93.167 -23.5 150.5
c0 56 7.16699 106.5 21.5 151.5s34.833 83 61.5 114s59.167 54.833 97.5 71.5s81.166 25 128.499 25c41.333 0 78.833 -6.16699 112.5 -18.5s62.667 -29.333 87 -51s43.666 -47.167 57.999 -76.5s23.166 -60.666 26.499 -93.999h-139c-9.33301 38 -27.333 67.5 -54 88.5
s-56.667 31.5 -90 31.5c-58 0 -100.667 -20.833 -128 -62.5s-41 -98.834 -41 -171.501c0 -74 13.5 -131.5 40.5 -172.5s67.5 -61.5 121.5 -61.5c41.333 0 74.5 11.167 99.5 33.5s42.167 54.5 51.5 96.5h139z" />
    <glyph glyph-name="D" unicode="D" horiz-adv-x="602" 
d="M273 113c60.667 0 104.666 18.833 131.999 56.5s41 94.167 41 169.5c0 37.333 -3.33301 69.333 -10 96s-17.5 48.5 -32.5 65.5s-34.167 29.333 -57.5 37s-51.666 11.5 -84.999 11.5h-103v-436h115zM22.999 0l-0.000976562 664.002h257c44.667 0 86 -7.5 124 -22.5
s70.5 -36.5 97.5 -64.5s48.167 -62 63.5 -102s23 -85.333 23 -136s-6.83301 -96.834 -20.5 -138.501s-33.167 -77.334 -58.5 -107.001s-55.666 -52.667 -90.999 -69s-74.333 -24.5 -117 -24.5h-278z" />
    <glyph glyph-name="E" unicode="E" horiz-adv-x="527" 
d="M23 0v664h488v-116h-353v-142h325v-117h-325v-171h369v-118h-504z" />
    <glyph glyph-name="F" unicode="F" horiz-adv-x="500" 
d="M162 280v-280h-139v664h473v-116h-334v-151h292v-117h-292z" />
    <glyph glyph-name="G" unicode="G" horiz-adv-x="659" 
d="M518 0l-3.00195 66c-16 -28 -41.667 -49.833 -77 -65.5s-76 -23.5 -122 -23.5s-87.5 9.83301 -124.5 29.5s-68.667 46 -95 79s-46.5 71 -60.5 114s-21 87.5 -21 133.5c0 48.667 7 94.5 21 137.5s34.667 80.5 62 112.5s61.333 57.167 102 75.5s88 27.5 142 27.5
c39.333 0 76.166 -5.66699 110.499 -17s64.333 -27 90 -47s46.334 -43.833 62.001 -71.5s24.834 -58.167 27.501 -91.5h-140c-2 15.333 -7.33301 29.833 -16 43.5s-19.667 25.5 -33 35.5s-28.833 18 -46.5 24s-35.834 9 -54.501 9c-56 0 -100.833 -20.833 -134.5 -62.5
s-50.5 -102.167 -50.5 -181.5c0 -27.333 3.5 -54.833 10.5 -82.5s18 -52.667 33 -75s34.167 -40.5 57.5 -54.5s51 -21 83 -21c22.667 0 43.834 4 63.501 12s36.834 19 51.501 33s26.167 30.167 34.5 48.5s12.5 37.833 12.5 58.5h-147v111h277v-357h-115z" />
    <glyph glyph-name="H" unicode="H" horiz-adv-x="582" 
d="M421 0v298h-259v-298h-139v664h139v-250h259v250h140v-664h-140z" />
    <glyph glyph-name="I" unicode="I" horiz-adv-x="184" 
d="M23 0v664h139v-664h-139z" />
    <glyph glyph-name="J" unicode="J" horiz-adv-x="449" 
d="M288 664l139 -0.000976562v-485c0 -60.667 -18.333 -109.5 -55 -146.5s-91 -55.5 -163 -55.5c-64.667 0 -115 17.167 -151 51.5s-54 85.833 -54 154.5v68h126v-61c0 -34 6 -59.167 18 -75.5s32.333 -24.5 61 -24.5c32 0 53.167 7.83301 63.5 23.5
s15.5 41.834 15.5 78.501v472z" />
    <glyph glyph-name="K" unicode="K" horiz-adv-x="600" 
d="M431 0l-197 299l-74 -73v-226h-137v664h137v-270l254 270h180l-262 -262l268 -402h-169z" />
    <glyph glyph-name="L" unicode="L" horiz-adv-x="496" 
d="M23 0v664h139v-543h329v-121h-468z" />
    <glyph glyph-name="M" unicode="M" horiz-adv-x="690" 
d="M537 0v455l-124 -455h-138l-123 453v-453h-129v664h204l120 -487l120 487h200v-664h-130z" />
    <glyph glyph-name="N" unicode="N" horiz-adv-x="586" 
d="M436 0l-284 446v-446h-129v664h147l264 -427v427h130v-664h-128z" />
    <glyph glyph-name="O" unicode="O" horiz-adv-x="666" 
d="M334 96c24.667 0 48.002 4.5 70.002 13.5s41.167 22.667 57.5 41s29.166 41.833 38.499 70.5s14 62.667 14 102c0 78.667 -15.333 138.334 -46 179.001s-75.334 61 -134.001 61s-103.667 -20.333 -135 -61s-47 -100.334 -47 -179.001s15.833 -136.167 47.5 -172.5
s76.5 -54.5 134.5 -54.5zM334.002 -23c-102.667 0 -181.5 29.999 -236.5 89.999s-82.5 146.333 -82.5 259c0 56 7 106.333 21 151s34.667 82.5 62 113.5s60.666 54.667 99.999 71s84.666 24.5 135.999 24.5c50.667 0 95.834 -8.16699 135.501 -24.5
s72.834 -40.166 99.501 -71.499s47 -69.5 61 -114.5s21 -95.833 21 -152.5c0 -114.667 -27.167 -201 -81.5 -259s-132.833 -87 -235.5 -87z" />
    <glyph glyph-name="P" unicode="P" horiz-adv-x="529" 
d="M294 354c40 0 68.833 9.16797 86.5 27.501s26.5 42.166 26.5 71.499c0 28 -8.83301 51 -26.5 69s-46.5 27 -86.5 27h-132v-195h132zM23 0.000976562v663.999h293c32.667 0 62 -5.5 88 -16.5s48.333 -26.333 67 -46s33 -42.5 43 -68.5s15 -54 15 -84s-5 -57.833 -15 -83.5
s-24.333 -47.667 -43 -66s-41 -32.666 -67 -42.999s-55.333 -15.5 -88 -15.5h-154v-241h-139z" />
    <glyph glyph-name="Q" unicode="Q" horiz-adv-x="666" 
d="M664 -14c0 -32 -5.00098 -61.334 -15.001 -88.001s-24 -49.667 -42 -69s-39.333 -34.5 -64 -45.5s-51.667 -16.5 -81 -16.5c-27.333 0 -52.666 4.83301 -75.999 14.5s-43.333 23.334 -60 41.001s-29.667 38.834 -39 63.501s-14 51.667 -14 81v21
c-83.333 11.333 -147.166 45.166 -191.499 101.499s-66.5 135.166 -66.5 236.499c0 56 7 106.333 21 151s34.667 82.5 62 113.5s60.666 54.667 99.999 71s84.666 24.5 135.999 24.5c50.667 0 95.834 -8.16699 135.501 -24.5s72.834 -40.166 99.501 -71.499
s47 -69.5 61 -114.5s21 -95.833 21 -152.5c0 -40 -5.5 -78.333 -16.5 -115s-27 -69.667 -48 -99s-47 -54 -78 -74s-66.5 -33 -106.5 -39c0 -38 6.66699 -65.5 20 -82.5s30.666 -25.5 51.999 -25.5c19.333 0 35.5 8.16699 48.5 24.5s19.5 40.833 19.5 73.5h122z
M333.999 95.999c24.667 0 48.002 4.5 70.002 13.5s41.167 22.667 57.5 41s29.166 41.833 38.499 70.5s14 62.667 14 102c0 78.667 -15.333 138.334 -46 179.001s-75.334 61 -134.001 61s-103.667 -20.333 -135 -61s-47 -100.334 -47 -179.001s15.833 -136.167 47.5 -172.5
s76.5 -54.5 134.5 -54.5z" />
    <glyph glyph-name="R" unicode="R" horiz-adv-x="573" 
d="M158 549l0.000976562 -177h174c37.333 0 63.666 8.33301 78.999 25s23 37.667 23 63c0 26 -7.5 47.333 -22.5 64s-39.833 25 -74.5 25h-179zM410.001 0l0.000976562 170.999c0 32 -7.33301 54.833 -22 68.5s-42 20.5 -82 20.5h-148v-260h-135v664h337
c30.667 0 58.5 -4.83301 83.5 -14.5s46.5 -23 64.5 -40s31.833 -37.333 41.5 -61s14.5 -49.167 14.5 -76.5c0 -36 -8.5 -67.833 -25.5 -95.5s-41.5 -47.167 -73.5 -58.5c29.333 -9.33301 50.166 -23.666 62.499 -42.999s18.5 -48.333 18.5 -87v-188h-136z" />
    <glyph glyph-name="S" unicode="S" horiz-adv-x="558" 
d="M399 468c-3.33301 34 -15.6631 59.335 -36.9961 76.002s-53.333 25 -96 25c-78.667 0 -118 -27 -118 -81c0 -19.333 8.16699 -35.5 24.5 -48.5s42.5 -23.833 78.5 -32.5c42.667 -10 79.667 -19.333 111 -28s60 -18.667 86 -30c14.667 -6 28.5 -13.5 41.5 -22.5
s24 -20.167 33 -33.5s16.167 -29.333 21.5 -48s8 -41.334 8 -68.001c0 -32 -6.66699 -60.333 -20 -85s-31.333 -45.5 -54 -62.5s-49.334 -30 -80.001 -39s-63 -13.5 -97 -13.5c-96.667 0 -169.334 18.667 -218.001 56s-74.334 92.666 -77.001 165.999h134
c0.666992 -34 14.5 -60.833 41.5 -80.5s60.833 -29.5 101.5 -29.5c44 0 77.333 8 100 24s34 37.667 34 65c0 10.667 -1.33301 20.5 -4 29.5s-7.83398 17.167 -15.501 24.5s-18.167 13.833 -31.5 19.5s-30.666 10.834 -51.999 15.501c-50.667 10.667 -94.5 21.5 -131.5 32.5
s-67.5 24.667 -91.5 41s-41.667 36.166 -53 59.499s-17 53 -17 89c0 27.333 5 53 15 77s25.333 44.833 46 62.5s46.167 31.667 76.5 42s66.166 15.5 107.499 15.5c40 0 76 -5.16699 108 -15.5s59.5 -25 82.5 -44s40.833 -42 53.5 -69s19.667 -56.833 21 -89.5h-132z" />
    <glyph glyph-name="T" unicode="T" horiz-adv-x="549" 
d="M204 0v548h-200v116h540v-116h-201v-548h-139z" />
    <glyph glyph-name="U" unicode="U" horiz-adv-x="581" 
d="M416 664h141.999v-443c0 -80.667 -23.667 -141.5 -71 -182.5s-114.666 -61.5 -201.999 -61.5c-80.667 0 -144.5 19.333 -191.5 58s-70.5 98 -70.5 178v451h141v-438c0 -41.333 10.333 -74 31 -98s50 -36 88 -36c88.667 0 133 43 133 129v443z" />
    <glyph glyph-name="V" unicode="V" horiz-adv-x="588" 
d="M228 0l-225 664h148l145 -466l144 466h144l-225 -664h-131z" />
    <glyph glyph-name="W" unicode="W" horiz-adv-x="852" 
d="M529 0l-103 432l-105 -432h-130l-188 664h148l109 -430l92 430h146l101 -430l108 430h142l-186 -664h-134z" />
    <glyph glyph-name="X" unicode="X" horiz-adv-x="600" 
d="M427 0l-127 228l-134 -228h-162l215 339l-203 325h164l120 -215l121 215h161l-202 -319l216 -345h-169z" />
    <glyph glyph-name="Y" unicode="Y" horiz-adv-x="597" 
d="M233 0v251l-230 413h162l140 -270l129 270h160l-222 -415v-249h-139z" />
    <glyph glyph-name="Z" unicode="Z" horiz-adv-x="527" 
d="M4 0v118l345 430h-335v116h509v-109l-347 -437h347v-118h-519z" />
    <glyph glyph-name="bracketleft" unicode="[" horiz-adv-x="314" 
d="M72 -130v849h228v-89h-113v-673h113v-87h-228z" />
    <glyph glyph-name="backslash" unicode="\" horiz-adv-x="288" 
d="M187 0l-192 664h109l190 -664h-107z" />
    <glyph glyph-name="bracketright" unicode="]" horiz-adv-x="312" 
d="M10 -130v87h115v673h-115v89h230v-849h-230z" />
    <glyph glyph-name="asciicircum" unicode="^" horiz-adv-x="454" 
d="M301 473l-73 87l-75 -87h-138l165 191h93l167 -191h-139z" />
    <glyph glyph-name="underscore" unicode="_" horiz-adv-x="482" 
d="M0 -126v58h485v-58h-485z" />
    <glyph glyph-name="grave" unicode="`" horiz-adv-x="354" 
d="M50 648l47 82l207 -121l-31 -55z" />
    <glyph glyph-name="a" unicode="a" horiz-adv-x="481" 
d="M325 241c-6.66699 -6.66699 -16.3311 -12.0029 -28.998 -16.0029s-31 -8.33301 -55 -13c-37.333 -7.33301 -63 -16.666 -77 -27.999s-21 -27.666 -21 -48.999c0 -36.667 21 -55 63 -55c16.667 0 32.167 2.83301 46.5 8.5s26.666 13.334 36.999 23.001
s18.666 21 24.999 34s9.5 26.833 9.5 41.5zM334.003 -0.00292969c-4 12.667 -6.66895 27.332 -8.00195 43.999c-15.333 -17.333 -35.666 -31.166 -60.999 -41.499s-54.666 -15.5 -87.999 -15.5c-56.667 0 -98.167 12.5 -124.5 37.5s-39.5 57.5 -39.5 97.5
c0 35.333 5.66699 63.5 17 84.5s27 37.5 47 49.5s43.833 20.833 71.5 26.5s57.834 10.834 90.501 15.501s54.667 10.834 66 18.501s17 20.167 17 37.5c0 16 -7.5 28.5 -22.5 37.5s-35.167 13.5 -60.5 13.5c-30 0 -51.5 -6.66699 -64.5 -20s-21.167 -31 -24.5 -53h-121
c0.666992 25.333 4.83398 48.666 12.501 69.999s20 39.666 37 54.999s39.167 27.166 66.5 35.499s60.666 12.5 99.999 12.5c38.667 0 71.5 -4.33301 98.5 -13s48.667 -21.167 65 -37.5s28.166 -36.666 35.499 -60.999s11 -51.833 11 -82.5v-311h-121z" />
    <glyph glyph-name="b" unicode="b" horiz-adv-x="519" 
d="M259 93c32.667 0 59.333 13.833 80 41.5s31 63.5 31 107.5c0 101.333 -37.333 152 -112 152c-72.667 0 -109 -53.333 -109 -160c0 -42 10.5 -76 31.5 -102s47.167 -39 78.5 -39zM25.999 0v672.001h128v-244c36.667 51.333 85.334 77 146.001 77
c32 0 60.5 -6.16699 85.5 -18.5s46.167 -29.833 63.5 -52.5s30.5 -49.5 39.5 -80.5s13.5 -65.167 13.5 -102.5c0 -41.333 -5.33301 -78.333 -16 -111s-25.334 -60.334 -44.001 -83.001s-41.167 -40 -67.5 -52s-54.833 -18 -85.5 -18c-61.333 0 -107 24.333 -137 73l-1 -60
h-125z" />
    <glyph glyph-name="c" unicode="c" horiz-adv-x="476" 
d="M469 178c-3.33301 -28.667 -11.499 -54.665 -24.499 -77.998s-29.5 -43.333 -49.5 -60s-42.833 -29.667 -68.5 -39s-53.5 -14 -83.5 -14c-33.333 0 -63.833 5.5 -91.5 16.5s-51.5 27.667 -71.5 50s-35.5 50 -46.5 83s-16.5 71.5 -16.5 115.5s5.5 82 16.5 114
s26.5 58.167 46.5 78.5s44.167 35.5 72.5 45.5s59.833 15 94.5 15c32 0 61.167 -4.33301 87.5 -13s49.333 -21.334 69 -38.001s35.167 -36.667 46.5 -60s18 -49.333 20 -78h-131c-3.33301 25.333 -13.5 45.166 -30.5 59.499s-37.833 21.5 -62.5 21.5
c-14 0 -27 -2.33301 -39 -7s-22.5 -12.5 -31.5 -23.5s-16.167 -25.667 -21.5 -44s-8 -40.833 -8 -67.5c0 -54 9.66699 -94 29 -120s41.666 -39 66.999 -39s47 7 65 21s28.333 34.333 31 61h131z" />
    <glyph glyph-name="d" unicode="d" horiz-adv-x="518" 
d="M259 93c31.333 0 57.499 13 78.499 39s31.5 60 31.5 102c0 106.667 -36.333 160 -109 160c-74.667 0 -112 -50.667 -112 -152c0 -44 10.333 -79.833 31 -107.5s47.334 -41.5 80.001 -41.5zM366.999 0l-1 59.999c-30 -48.667 -75.667 -73 -137 -73c-31.333 0 -60 6 -86 18
s-48.333 29.333 -67 52s-33.334 50.334 -44.001 83.001s-16 69.667 -16 111c0 37.333 4.5 71.5 13.5 102.5s22.167 57.833 39.5 80.5s38.5 40.167 63.5 52.5s53.5 18.5 85.5 18.5c60.667 0 109.334 -25.667 146.001 -77v244h128v-672h-125z" />
    <glyph glyph-name="e" unicode="e" 
d="M350 294c-0.666992 18 -3.83301 33.833 -9.5 47.5s-13.167 25 -22.5 34s-20 15.667 -32 20s-24.333 6.5 -37 6.5c-26 0 -48.5 -9.5 -67.5 -28.5s-29.833 -45.5 -32.5 -79.5h201zM145.001 212c2 -37.333 12.835 -67 32.502 -89s45.5 -33 77.5 -33
c21.333 0 40.166 4.83301 56.499 14.5s26.833 23.167 31.5 40.5h134c-15.333 -50.667 -42 -89.667 -80 -117s-83.333 -41 -136 -41c-164 0 -246 89.333 -246 268c0 38 5.33301 72.333 16 103s26.167 57 46.5 79s45.166 38.833 74.499 50.5s63 17.5 101 17.5
c76 0 133.5 -24.333 172.5 -73s58.5 -122 58.5 -220h-339z" />
    <glyph glyph-name="f" unicode="f" horiz-adv-x="289" 
d="M77 0v400h-73v92h73c0 120 69.667 180 209 180v-105c-16.667 0 -30.167 -1.16699 -40.5 -3.5s-18.5 -6.5 -24.5 -12.5s-10.167 -13.833 -12.5 -23.5s-3.5 -21.5 -3.5 -35.5h84v-92h-84v-400h-128z" />
    <glyph glyph-name="g" unicode="g" horiz-adv-x="525" 
d="M262 98c32 0 58.5 12.167 79.5 36.5s31.5 57.5 31.5 99.5c0 105.333 -37 158 -111 158s-111 -50 -111 -150c0 -44 10.5 -79 31.5 -105s47.5 -39 79.5 -39zM369 66c-9.33301 -22 -26.166 -39.167 -50.499 -51.5s-52.5 -18.5 -84.5 -18.5
c-40.667 0 -74.834 7.16699 -102.501 21.5s-50 33.166 -67 56.499s-29.333 50.333 -37 81s-11.5 62 -11.5 94c0 38 5.66699 72.833 17 104.5s26.666 58.667 45.999 81s42 39.666 68 51.999s54 18.5 84 18.5c61.333 0 107.333 -24.667 138 -74v61h130v-497
c0 -37.333 -6.33301 -70.166 -19 -98.499s-30 -52 -52 -71s-48 -33.5 -78 -43.5s-62 -15 -96 -15s-65.667 4.83301 -95 14.5s-54.5 23.334 -75.5 41.001s-37.5 39.167 -49.5 64.5s-18 54 -18 86h121c0 -30 9.83301 -53.167 29.5 -69.5s45.834 -24.5 78.501 -24.5
c34.667 0 64 9.5 88 28.5s36 44.833 36 77.5v81z" />
    <glyph glyph-name="h" unicode="h" 
d="M341 0l-0.00195312 304.998c0 37.333 -6.5 62.833 -19.5 76.5s-34.5 20.5 -64.5 20.5c-16 0 -30.333 -3.16699 -43 -9.5s-23.334 -15 -32.001 -26s-15.167 -23.667 -19.5 -38s-6.5 -29.833 -6.5 -46.5v-282h-130v672h130v-244
c4.66699 10.667 11.834 20.834 21.501 30.501s20.834 17.834 33.501 24.501s26.667 12 42 16s31.333 6 48 6c50.667 0 91.834 -13.833 123.501 -41.5s47.5 -66.167 47.5 -115.5v-348h-131z" />
    <glyph glyph-name="i" unicode="i" horiz-adv-x="188" 
d="M29 0v492h130v-492h-130zM29 551v121h130v-121h-130z" />
    <glyph glyph-name="j" unicode="j" horiz-adv-x="183" 
d="M26 492l131 0.000976562v-525c0 -30 -5 -57.167 -15 -81.5s-23.667 -45.333 -41 -63s-37.833 -31.334 -61.5 -41.001s-49.167 -14.5 -76.5 -14.5c-67.333 0 -117.166 18.5 -149.499 55.5s-48.5 87.167 -48.5 150.5h122c0 -28 5.16699 -50.167 15.5 -66.5
s28.166 -24.5 53.499 -24.5c26 0 44.167 8 54.5 24s15.5 38 15.5 66v520zM26 551.001v121h131v-121h-131z" />
    <glyph glyph-name="k" unicode="k" horiz-adv-x="478" 
d="M328 0l-108 221l-63 -65v-156h-131v672h131v-367l162 187h159l-165 -181l161 -311h-146z" />
    <glyph glyph-name="l" unicode="l" horiz-adv-x="181" 
d="M26 0v672h130v-672h-130z" />
    <glyph glyph-name="m" unicode="m" horiz-adv-x="756" 
d="M603 0v298.001c0 30 -7 54.333 -21 73s-32.667 28 -56 28c-24 0 -43.833 -10 -59.5 -30s-23.5 -45 -23.5 -75v-294h-130v296c0 20 -1.33301 36.333 -4 49s-7.16699 22.667 -13.5 30s-14.5 12.5 -24.5 15.5s-22 4.5 -36 4.5c-52.667 0 -79 -32 -79 -96v-299h-130v492h122
v-72c16.667 32.667 36.667 55 60 67s51.333 18 84 18c16.667 0 31.5 -1.33301 44.5 -4s24.667 -7.16699 35 -13.5s20.166 -14.5 29.499 -24.5s18.666 -22 27.999 -36c13.333 27.333 31 47.166 53 59.499s48.667 18.5 80 18.5c24.667 0 47.334 -4.16699 68.001 -12.5
s38.334 -20 53.001 -35s26.167 -32.5 34.5 -52.5s12.5 -41.333 12.5 -64v-341h-127z" />
    <glyph glyph-name="n" unicode="n" 
d="M341 0l0.00292969 298c0 38 -6.33301 63.667 -19 77s-34.334 20 -65.001 20c-67.333 0 -101 -37.667 -101 -113v-282h-130v492h124v-72c15.333 28 35.666 49.167 60.999 63.5s58 21.5 98 21.5c23.333 0 45 -3.5 65 -10.5s37.167 -17.5 51.5 -31.5
s25.666 -31.167 33.999 -51.5s12.5 -43.833 12.5 -70.5v-341h-131z" />
    <glyph glyph-name="o" unicode="o" horiz-adv-x="534" 
d="M268 96c79.333 0 119 50 119 150c0 99.333 -39.667 149 -119 149s-119 -49.667 -119 -149c0 -100 39.667 -150 119 -150zM268 -13c-40 0 -75.6689 6.33203 -107.002 18.999s-57.833 30.334 -79.5 53.001s-38.167 50 -49.5 82s-17 67 -17 105
c0 38.667 5.83301 74 17.5 106s28.5 59.333 50.5 82s48.5 40.167 79.5 52.5s66.167 18.5 105.5 18.5c38.667 0 73.334 -6.16699 104.001 -18.5s56.834 -29.666 78.501 -51.999s38.334 -49.5 50.001 -81.5s17.5 -67.667 17.5 -107s-5.83301 -74.833 -17.5 -106.5
s-28.334 -58.834 -50.001 -81.501s-48 -40.167 -79 -52.5s-65.5 -18.5 -103.5 -18.5z" />
    <glyph glyph-name="p" unicode="p" horiz-adv-x="518" 
d="M258 98c74.667 0 112.001 50.667 112.001 152c0 44 -10.333 79.833 -31 107.5s-47.334 41.5 -80.001 41.5c-31.333 0 -57.5 -13 -78.5 -39s-31.5 -60 -31.5 -102c0 -106.667 36.333 -160 109 -160zM26.001 -233v725.001h125l1 -60c30 48.667 75.667 73 137 73
c30.667 0 59.167 -6 85.5 -18s48.833 -29.333 67.5 -52s33.334 -50.334 44.001 -83.001s16 -69.667 16 -111c0 -37.333 -4.5 -71.5 -13.5 -102.5s-22.167 -57.833 -39.5 -80.5s-38.5 -40.167 -63.5 -52.5s-53.5 -18.5 -85.5 -18.5c-60.667 0 -109.334 25.667 -146.001 77
v-297h-128z" />
    <glyph glyph-name="q" unicode="q" horiz-adv-x="518" 
d="M735 -27c0 -32 -4.82812 -60.667 -14.4951 -86s-22.834 -46.833 -39.501 -64.5s-36.334 -31.334 -59.001 -41.001s-47.334 -14.5 -74.001 -14.5s-51.334 5 -74.001 15s-42.334 24 -59.001 42s-29.667 39.667 -39 65s-14 53 -14 83v89
c-36.667 -49.333 -84.667 -74 -144 -74c-32 0 -60.5 6.16699 -85.5 18.5s-46.167 29.833 -63.5 52.5s-30.5 49.5 -39.5 80.5s-13.5 65.167 -13.5 102.5c0 41.333 5.33301 78.333 16 111s25.334 60.334 44.001 83.001s41 40 67 52s54.667 18 86 18
c61.333 0 107 -24.333 137 -73l1 60h125v-521c0 -34 5.5 -57.333 16.5 -70s26.833 -19 47.5 -19c19.333 0 33.666 7 42.999 21s14 37.333 14 70h122zM260.005 98c72.667 0 109.001 53.333 109.001 160c0 42 -10.5 76 -31.5 102s-47.167 39 -78.5 39
c-32.667 0 -59.334 -13.833 -80.001 -41.5s-31 -63.5 -31 -107.5c0 -101.333 37.333 -152 112 -152z" />
    <glyph glyph-name="r" unicode="r" horiz-adv-x="315" 
d="M26 0l-0.000976562 492h122v-59c10.667 16.667 21.834 29.667 33.501 39s23.667 16.5 36 21.5s24.833 8.16699 37.5 9.5s25.667 2 39 2h17v-133c-12 2 -24 3 -36 3c-79.333 0 -119 -39.667 -119 -119v-256h-130z" />
    <glyph glyph-name="s" unicode="s" horiz-adv-x="467" 
d="M322 343c-3.33301 22.667 -11.8379 39.1611 -25.5049 49.4941s-34.5 15.5 -62.5 15.5c-26.667 0 -46.834 -3.16699 -60.501 -9.5s-20.5 -17.166 -20.5 -32.499c0 -13.333 6.83301 -24 20.5 -32s33.5 -15.667 59.5 -23l108 -30.5
c29.333 -8.33301 52.833 -18.166 70.5 -29.499s30.334 -25.5 38.001 -42.5s11.5 -39.833 11.5 -68.5c0 -44 -18.333 -80.5 -55 -109.5s-91 -43.5 -163 -43.5c-35.333 0 -67.333 4 -96 12s-53.167 19.5 -73.5 34.5s-36 33 -47 54s-16.833 44.5 -17.5 70.5h134
c0 -23.333 9.16699 -41.333 27.5 -54s42.166 -19 71.499 -19c24.667 0 45.834 3.83301 63.501 11.5s26.5 19.5 26.5 35.5c0 18 -6.5 31 -19.5 39s-32.833 15 -59.5 21c-48 10.667 -86.667 21.834 -116 33.501s-52.166 24.5 -68.499 38.5s-27.333 29.333 -33 46
s-8.5 35.334 -8.5 56.001c0 18.667 3.83301 36.334 11.5 53.001s19.834 31.334 36.501 44.001s38.334 22.834 65.001 30.501s59.334 11.5 98.001 11.5c70.667 0 122.334 -14.333 155.001 -43s50.667 -68.334 54 -119.001h-125z" />
    <glyph glyph-name="t" unicode="t" horiz-adv-x="447" 
d="M305 324l120.997 -0.000976562v-140c0 -26 -3.83301 -50.833 -11.5 -74.5s-19.667 -44.667 -36 -63s-37 -32.833 -62 -43.5s-54.833 -16 -89.5 -16c-36 0 -66.667 5.33301 -92 16s-46.166 25 -62.499 43s-28.166 39 -35.499 63s-11 49.333 -11 76v440h128v-133h272v-92
h-272v-202c0 -31.333 5.83301 -55.5 17.5 -72.5s30.834 -25.5 57.501 -25.5c26 0 45.167 8.33301 57.5 25s18.5 40.334 18.5 71.001v128z" />
    <glyph glyph-name="u" unicode="u" horiz-adv-x="495" 
d="M346 0v69c-33.333 -54.667 -84.333 -82 -153 -82c-24.667 0 -47.167 4.33301 -67.5 13s-37.833 21 -52.5 37s-26.167 35 -34.5 57s-12.5 46.667 -12.5 74v324h130v-304c0 -61.333 27.667 -92 83 -92c33.333 0 58.5 10.5 75.5 31.5s25.5 47.833 25.5 80.5v284h129v-492
h-123z" />
    <glyph glyph-name="v" unicode="v" horiz-adv-x="496" 
d="M179 0l-176 492h145l103 -325l104 325h137l-177 -492h-136z" />
    <glyph glyph-name="w" unicode="w" horiz-adv-x="710" 
d="M432 0l-78 286l-78 -286h-133l-140 492h137l80 -316l68 316h132l77 -316l75 316h134l-141 -492h-133z" />
    <glyph glyph-name="x" unicode="x" horiz-adv-x="491" 
d="M329 0l-86 148l-84 -148h-156l165 251l-160 241h157l83 -143l84 143h151l-163 -241l168 -251h-159z" />
    <glyph glyph-name="y" unicode="y" horiz-adv-x="495" 
d="M339 65c-9.33301 -22 -26.167 -39.168 -50.5 -51.501s-51.833 -18.5 -82.5 -18.5c-26 0 -50 4.16699 -72 12.5s-41 20.333 -57 36s-28.5 34.334 -37.5 56.001s-13.5 46.167 -13.5 73.5v319h130v-300c0 -61.333 27.667 -92 83 -92c30 0 54.167 8.66699 72.5 26
s27.5 39.333 27.5 66v300h130v-505c0 -34.667 -5.83301 -65.667 -17.5 -93s-27.667 -50.333 -48 -69s-44.333 -33 -72 -43s-57.167 -15 -88.5 -15c-72.667 0 -127 18.333 -163 55s-54 87 -54 151h121c0 -29.333 8.5 -52.333 25.5 -69s42.5 -25 76.5 -25
c12 0 23.333 2.5 34 7.5s20.167 12 28.5 21s15 20.167 20 33.5s7.5 28 7.5 44v80z" />
    <glyph glyph-name="z" unicode="z" horiz-adv-x="440" 
d="M9 0v100l251 289h-234v103h400v-105l-251 -281h258v-106h-424z" />
    <glyph glyph-name="braceleft" unicode="{" horiz-adv-x="329" 
d="M277 -131c-36 0 -65.167 3.16406 -87.5 9.49707s-39.666 16 -51.999 29s-20.5 29.5 -24.5 49.5s-6 43.333 -6 70c0 6 0.333008 14.667 1 26s1.16699 23.333 1.5 36s0.833008 24.5 1.5 35.5s1 18.833 1 23.5c0 38.667 -5.83301 65.667 -17.5 81s-33.167 23 -64.5 23v86
c31.333 0 52.833 7.83301 64.5 23.5s17.5 42.834 17.5 81.501c0 4.66699 -0.333008 12.5 -1 23.5s-1.16699 22.5 -1.5 34.5s-0.833008 23.667 -1.5 35s-1 20 -1 26c0 26.667 2 50 6 70s12.167 36.5 24.5 49.5s29.666 22.667 51.999 29s51.5 9.5 87.5 9.5h37v-82h-22
c-29.333 0 -49.166 -4.66699 -59.499 -14s-15.5 -25.666 -15.5 -48.999c0 -30 1 -59.667 3 -89s3 -59 3 -89c0 -14 -3 -26.833 -9 -38.5s-13.833 -22 -23.5 -31s-21 -16.167 -34 -21.5s-26.5 -9 -40.5 -11c14 -2 27.5 -5.66699 40.5 -11s24.333 -12.5 34 -21.5
s17.5 -19.333 23.5 -31s9 -24.5 9 -38.5c0 -30 -1 -59.833 -3 -89.5s-3 -59.5 -3 -89.5c0 -23.333 5.16699 -39.666 15.5 -48.999s30.166 -14 59.499 -14h22v-82h-37z" />
    <glyph glyph-name="bar" unicode="|" horiz-adv-x="334" 
d="M116 -125v861h102v-861h-102z" />
    <glyph glyph-name="braceright" unicode="}" horiz-adv-x="325" 
d="M10 -131v82.0029h22c29.333 0 49.166 4.66699 59.499 14s15.5 25.666 15.5 48.999c0 30 -1 59.833 -3 89.5s-3 59.5 -3 89.5c0 14 3 26.833 9 38.5s13.833 22 23.5 31s21 16.167 34 21.5s26.5 9 40.5 11c-14 2 -27.5 5.66699 -40.5 11s-24.333 12.5 -34 21.5
s-17.5 19.333 -23.5 31s-9 24.5 -9 38.5c0 30 1 59.667 3 89s3 59 3 89c0 23.333 -5.16699 39.666 -15.5 48.999s-30.166 14 -59.499 14h-22v82h37c36 0 65.167 -3.16699 87.5 -9.5s39.666 -16 51.999 -29s20.5 -29.5 24.5 -49.5s6 -43.333 6 -70
c0 -6 -0.333008 -14.667 -1 -26s-1.16699 -23 -1.5 -35s-0.833008 -23.5 -1.5 -34.5s-1 -18.833 -1 -23.5c0 -38.667 5.83301 -65.834 17.5 -81.501s33.167 -23.5 64.5 -23.5v-86c-31.333 0 -52.833 -7.66699 -64.5 -23s-17.5 -42.333 -17.5 -81
c0 -4.66699 0.333008 -12.5 1 -23.5s1.16699 -22.833 1.5 -35.5s0.833008 -24.667 1.5 -36s1 -20 1 -26c0 -26.667 -2 -50 -6 -70s-12.167 -36.5 -24.5 -49.5s-29.666 -22.667 -51.999 -29s-51.5 -9.5 -87.5 -9.5h-37z" />
    <glyph glyph-name="asciitilde" unicode="~" horiz-adv-x="550" 
d="M525 305c-21.333 -23.333 -43.6689 -40.333 -67.002 -51s-50.333 -16 -81 -16c-20 0 -39.167 3 -57.5 9s-36.333 12.667 -54 20s-35.167 14 -52.5 20s-34.666 9 -51.999 9c-28 0 -52.667 -6.33301 -74 -19s-42 -31.667 -62 -57v101c14.667 17.333 32.667 32.833 54 46.5
s47.333 20.5 78 20.5c24 0 46.167 -3 66.5 -9s39.5 -12.5 57.5 -19.5l52 -19.5c16.667 -6 33.334 -9 50.001 -9c28 0 53.5 5.5 76.5 16.5s44.833 30.5 65.5 58.5v-101z" />
    <glyph glyph-name="nonbreakingspace" unicode="&#xa0;" horiz-adv-x="247" 
 />
    <glyph glyph-name="exclamdown" unicode="&#xa1;" horiz-adv-x="241" 
d="M189.003 664v-130.992h-134.991v130.992h134.991zM155.005 480.012c13.333 -79.9951 23.165 -153.993 29.498 -221.989c6.33301 -67.9951 9.49902 -130.324 9.49902 -186.987c0 -13.333 -0.166992 -25.999 -0.5 -37.998s-1.83301 -22.998 -4.5 -32.9971h-137.991
c-1.33301 11.332 -2.33301 23.1641 -3 35.4971s-1 25.166 -1 38.499c0 55.3301 3.16699 116.826 9.5 184.488c6.33301 67.6631 16.166 141.492 29.499 221.487h68.9951z" />
    <glyph glyph-name="cent" unicode="&#xa2;" horiz-adv-x="476" 
d="M222 0l-0.00390625 69.9971c-30.667 2 -58.667 9.16699 -84 21.5s-47 29.5 -65 51.5s-31.833 49 -41.5 81s-14.5 69 -14.5 111c0 82.667 18.667 144.334 56 185.001s87 63.334 149 68.001v76h47v-76c58 -4 105 -22.667 141 -56s56 -77.333 60 -132h-131
c-3.33301 21.333 -11.166 38.666 -23.499 51.999s-27.833 21.666 -46.5 24.999v-296c18.667 4.66699 34.334 13.834 47.001 27.501s20 31.167 22 52.5h131c-3.33301 -26 -10.666 -50.167 -21.999 -72.5s-25.666 -41.666 -42.999 -57.999s-37.5 -29.666 -60.5 -39.999
s-47.833 -16.833 -74.5 -19.5v-71h-47zM221.996 477.997c-22 -4.66699 -40.167 -17.667 -54.5 -39s-21.5 -55 -21.5 -101c0 -47.333 7.33301 -83.833 22 -109.5s32.667 -41.5 54 -47.5v297z" />
    <glyph glyph-name="sterling" unicode="&#xa3;" horiz-adv-x="477" 
d="M26 0v483.998c0 60.667 18.333 109.5 55 146.5s91 55.5 163 55.5c32 0 61 -3.16699 87 -9.5s48 -17.333 66 -33s32 -36.5 42 -62.5s15 -59 15 -99v-77h-131v76c0 30.667 -5 53.5 -15 68.5s-31.333 22.5 -64 22.5c-16.667 0 -30.167 -1.83301 -40.5 -5.5
s-18.333 -9.16699 -24 -16.5s-9.5 -16.666 -11.5 -27.999s-3 -24.666 -3 -39.999v-133h290v-82h-290v-146h290v-121h-429z" />
    <glyph glyph-name="currency" unicode="&#xa4;" horiz-adv-x="536" 
d="M380 164c-16.667 -10 -34.333 -17.835 -53 -23.502s-38.334 -8.5 -59.001 -8.5s-40.5 2.83301 -59.5 8.5s-36.5 13.5 -52.5 23.5l-63 -68l-72 72l68 63c-10 16 -17.833 33.5 -23.5 52.5s-8.5 38.833 -8.5 59.5s2.83301 40.334 8.5 59.001s13.5 36.334 23.5 53.001l-67 62
l71 71l61 -66c16.667 10.667 34.5 18.834 53.5 24.501s39.167 8.5 60.5 8.5c20.667 0 40.5 -2.83301 59.5 -8.5s36.833 -13.834 53.5 -24.501l61 66l71 -71l-66 -61c10.667 -16.667 18.834 -34.5 24.501 -53.5s8.5 -38.833 8.5 -59.5c0 -42 -11 -79.667 -33 -113l67 -62
l-71 -72zM416.001 342.998c0 20.667 -3.83301 40 -11.5 58s-18.167 33.667 -31.5 47s-29 23.833 -47 31.5s-37.333 11.5 -58 11.5s-39.834 -3.83301 -57.501 -11.5s-33.167 -18.167 -46.5 -31.5s-23.833 -29 -31.5 -47s-11.5 -37.333 -11.5 -58
s3.83301 -39.834 11.5 -57.501s18.167 -33.167 31.5 -46.5s28.833 -23.833 46.5 -31.5s36.834 -11.5 57.501 -11.5s40 3.83301 58 11.5s33.667 18.167 47 31.5s23.833 28.833 31.5 46.5s11.5 36.834 11.5 57.501z" />
    <glyph glyph-name="yen" unicode="&#xa5;" horiz-adv-x="529" 
d="M319 80v-80h-108v80h-145v76h145v61h-145v75h145v66l-194 306h117l130 -219l131 219h116l-192 -306v-66h145v-75h-145v-61h145v-76h-145z" />
    <glyph glyph-name="brokenbar" unicode="&#xa6;" horiz-adv-x="334" 
d="M116 -125v411h102v-411h-102zM218 339h-102v397h102v-397z" />
    <glyph glyph-name="section" unicode="&#xa7;" horiz-adv-x="528" 
d="M364 492c-3.33301 29.333 -13.8369 50.8311 -31.5039 64.498s-44.5 20.5 -80.5 20.5c-66.667 0 -100 -22.667 -100 -68c0 -16 6.83301 -29.5 20.5 -40.5s35.834 -20.167 66.501 -27.5c36 -8.66699 67.167 -16.667 93.5 -24s50.5 -15.666 72.5 -24.999
c12.667 -5.33301 24.334 -11.833 35.001 -19.5s20 -17 28 -28s14.167 -24.5 18.5 -40.5s6.5 -35 6.5 -57c0 -22.667 -4 -43.167 -12 -61.5s-19 -34.5 -33 -48.5c11.333 -11.333 20.333 -25.833 27 -43.5s10 -40.5 10 -68.5c0 -26.667 -5.66699 -50.5 -17 -71.5
s-26.5 -38.667 -45.5 -53s-41.333 -25.166 -67 -32.499s-52.834 -11 -81.501 -11c-162 0 -245 62.333 -249 187h113c0.666992 -28.667 12.334 -51.334 35.001 -68.001s51 -25 85 -25c37.333 0 65.5 6.83301 84.5 20.5s28.5 31.834 28.5 54.501c0 18.667 -5.5 34 -16.5 46
s-34.167 21.667 -69.5 29c-43.333 9.33301 -80.666 18.666 -111.999 27.999s-57 20.833 -77 34.5s-34.667 30.334 -44 50.001s-14 44.5 -14 74.5c0 22 3.83301 42.667 11.5 62s19.167 36.333 34.5 51c-13.333 13.333 -23.166 28.5 -29.499 45.5s-9.5 38.167 -9.5 63.5
c0 23.333 4.33301 45 13 65s21.5 37.5 38.5 52.5s38.5 26.833 64.5 35.5s56.333 13 91 13c68 0 121.667 -16.667 161 -50s60 -78 62 -134h-111zM343.996 189.998c23.333 12.667 35 31.998 35 57.998c0 18.667 -5.5 34 -16.5 46s-34.5 21.667 -70.5 29
c-18 3.33301 -35.5 7.33301 -52.5 12s-32.833 9.33398 -47.5 14.001c-31.333 -10 -47 -30.667 -47 -62c0 -16 6.83301 -29.5 20.5 -40.5s35.5 -20.167 65.5 -27.5l61.5 -14.5c18.333 -4.33301 35.5 -9.16602 51.5 -14.499z" />
    <glyph glyph-name="dieresis" unicode="&#xa8;" horiz-adv-x="430" 
d="M50 579v124h130v-124h-130zM250 579v124h130v-124h-130z" />
    <glyph glyph-name="ordfeminine" unicode="&#xaa;" horiz-adv-x="325" 
d="M209 433c-6 -6.66699 -14.501 -11.167 -25.501 -13.5s-22 -4.83301 -33 -7.5s-20.667 -6.66699 -29 -12s-12.5 -14 -12.5 -26c0 -20 11.333 -30 34 -30c19.333 0 34.833 5.83301 46.5 17.5s17.834 25.5 18.501 41.5zM213.999 300c-2.66699 8 -4.33105 16 -4.99805 24
c-8.66699 -9.33301 -19.834 -16.833 -33.501 -22.5s-29.834 -8.5 -48.501 -8.5c-30.667 0 -53.334 6.83301 -68.001 20.5s-22 31.5 -22 53.5c0 19.333 3 34.833 9 46.5s14.5 20.834 25.5 27.501s24.167 11.5 39.5 14.5s32 5.83301 50 8.5s30.167 6.16699 36.5 10.5
s9.5 11.166 9.5 20.499c0 8.66699 -4.16699 15.5 -12.5 20.5s-19.5 7.5 -33.5 7.5c-16 0 -27.667 -3.66699 -35 -11s-12 -17 -14 -29h-66c0.666992 28 9.83398 50.833 27.501 68.5s48.167 26.5 91.5 26.5s73.333 -9.33301 90 -28s25 -45 25 -79v-171h-66z" />
    <glyph glyph-name="guillemotleft" unicode="&#xab;" horiz-adv-x="464" 
d="M13 317l143 174l63 -68l-94 -106l94 -105l-63 -67zM245 317l143 174l63 -68l-94 -106l94 -105l-63 -67z" />
    <glyph glyph-name="logicalnot" unicode="&#xac;" horiz-adv-x="584" 
d="M440 0v374h-415v118h533v-492h-118z" />
    <glyph glyph-name="macron" unicode="&#xaf;" horiz-adv-x="481" 
d="M50 602v91h381v-91h-381z" />
    <glyph glyph-name="degree" unicode="&#xb0;" horiz-adv-x="368" 
d="M183 355c-27.333 0 -50.5 4.16699 -69.5 12.5s-34.5 19.666 -46.5 33.999s-20.833 31.166 -26.5 50.499s-8.5 40 -8.5 62s2.83301 42.667 8.5 62s14.5 36.166 26.5 50.499s27.5 25.5 46.5 33.5s42.167 12 69.5 12c26.667 0 49.667 -4 69 -12s35.166 -19.167 47.499 -33.5
s21.333 -31.166 27 -50.499s8.5 -40 8.5 -62s-2.83301 -42.667 -8.5 -62s-14.667 -36.166 -27 -50.499s-28.166 -25.666 -47.499 -33.999s-42.333 -12.5 -69 -12.5zM183 418c30 0 51.333 9.5 64 28.5s19 41.833 19 68.5s-6.33301 49.334 -19 68.001s-34 28 -64 28
s-51.333 -9.33301 -64 -28s-19 -41.334 -19 -68.001s6.33301 -49.5 19 -68.5s34 -28.5 64 -28.5z" />
    <glyph glyph-name="plusminus" unicode="&#xb1;" horiz-adv-x="518" 
d="M211 107v189h-188v94h188v188h94v-188h189v-94h-189v-189h-94zM23 -13v94h471v-94h-471z" />
    <glyph glyph-name="twosuperior" unicode="&#xb2;" horiz-adv-x="260" 
d="M17 343c0 15.333 1.16797 29.668 3.50098 43.001s7.16602 26.5 14.499 39.5s17.5 26.167 30.5 39.5s30.167 27.666 51.5 42.999c23.333 17.333 39.333 31.333 48 42s13 23 13 37c0 16.667 -4.33301 28 -13 34s-19.667 9 -33 9c-14.667 0 -26.334 -4.16699 -35.001 -12.5
s-13 -23.833 -13 -46.5h-63c0 36 9.5 64.167 28.5 84.5s45.5 30.5 79.5 30.5s61.333 -8 82 -24s31 -40.333 31 -73c0 -12.667 -1.66699 -24.167 -5 -34.5s-8.83301 -20.5 -16.5 -30.5s-17.5 -20.167 -29.5 -30.5s-27 -21.833 -45 -34.5
c-13.333 -9.33301 -24.166 -19.5 -32.499 -30.5s-12.833 -20.833 -13.5 -29.5h143v-56h-226z" />
    <glyph glyph-name="threesuperior" unicode="&#xb3;" horiz-adv-x="267" 
d="M107 537c28 0 46.166 4.49707 54.499 13.4971s12.5 19.833 12.5 32.5c0 34 -14.333 51 -43 51c-12.667 0 -23.167 -4.83301 -31.5 -14.5s-12.5 -23.167 -12.5 -40.5h-60c0 32 9.83301 57.833 29.5 77.5s45.5 29.5 77.5 29.5c28.667 0 53 -8.33301 73 -25
s30 -38.667 30 -66c0 -15.333 -3.16699 -29.666 -9.5 -42.999s-16.166 -23.666 -29.499 -30.999c15.333 -6.66699 27.333 -16.667 36 -30s13 -30.666 13 -51.999c0 -34 -10.667 -60.5 -32 -79.5s-49.666 -28.5 -84.999 -28.5c-34.667 0 -61.5 9.66699 -80.5 29
s-28.5 46 -28.5 80h63c0 -36.667 16.333 -55 49 -55c13.333 0 24.666 4.83301 33.999 14.5s14 23.167 14 40.5c0 19.333 -5.5 32.833 -16.5 40.5s-30.167 11.5 -57.5 11.5v45z" />
    <glyph glyph-name="acute" unicode="&#xb4;" horiz-adv-x="354" 
d="M81 554l-31 55l207 121l47 -82z" />
    <glyph glyph-name="paragraph" unicode="&#xb6;" horiz-adv-x="576" 
d="M408 -100l-0.00195312 695.999h-162v-696h-109v564c-41.333 6 -70 19.333 -86 40s-24 43.334 -24 68.001c0 16 3.16699 30.833 9.5 44.5s16.333 25.667 30 36s30.834 18.5 51.501 24.5s45.334 9 74.001 9h372l-48 -91v-695h-108z" />
    <glyph glyph-name="periodcentered" unicode="&#xb7;" horiz-adv-x="184" 
d="M23 265v135h139v-135h-139z" />
    <glyph glyph-name="cedilla" unicode="&#xb8;" horiz-adv-x="215" 
d="M50 -190c41.333 3.33301 62.668 25 64.001 65h-64v82h115v-54c0 -18 -1.83301 -34.833 -5.5 -50.5s-9.83398 -29.5 -18.501 -41.5s-20.5 -21.833 -35.5 -29.5s-33.5 -12.5 -55.5 -14.5v43z" />
    <glyph glyph-name="onesuperior" unicode="&#xb9;" horiz-adv-x="176" 
d="M85 343v229h-68v45c28.667 0 48.667 4.83301 60 14.5s18 24.167 20 43.5h53v-332h-65z" />
    <glyph glyph-name="ordmasculine" unicode="&#xba;" horiz-adv-x="354" 
d="M177 353c44 0 66 27.333 66 82s-22 82 -66 82c-43.333 0 -65 -27.333 -65 -82s21.667 -82 65 -82zM177 293c-44 0 -78.167 13.167 -102.5 39.5s-36.5 60.5 -36.5 102.5c0 43.333 12.5 78 37.5 104s58.833 39 101.5 39s76.334 -12.833 101.001 -38.5s37 -60.5 37 -104.5
c0 -42.667 -12.333 -77 -37 -103s-58.334 -39 -101.001 -39z" />
    <glyph glyph-name="guillemotright" unicode="&#xbb;" horiz-adv-x="464" 
d="M13 212l94 105l-94 106l63 68l143 -174l-143 -172zM245 212l94 105l-94 106l63 68l143 -174l-143 -172z" />
    <glyph glyph-name="onequarter" unicode="&#xbc;" horiz-adv-x="607" 
d="M105 343v229h-68v45c28.667 0 48.667 4.83301 60 14.5s18 24.167 20 43.5h53v-332h-65zM17 -20l461 704h68l-462 -704h-67zM494 230l-68 -117h68v117zM493 -10v72h-129v57l121 203h73v-209h37v-51h-37v-72h-65z" />
    <glyph glyph-name="onehalf" unicode="&#xbd;" horiz-adv-x="602" 
d="M105 343v229h-68v45c28.667 0 48.667 4.83301 60 14.5s18 24.167 20 43.5h53v-332h-65zM17 -20l461 704h68l-462 -704h-67zM364 -10c0 15.333 1.16797 29.668 3.50098 43.001s7.16602 26.5 14.499 39.5s17.5 26.167 30.5 39.5s30.167 27.666 51.5 42.999
c23.333 17.333 39.333 31.333 48 42s13 23 13 37c0 16.667 -4.33301 28 -13 34s-19.667 9 -33 9c-14.667 0 -26.334 -4.16699 -35.001 -12.5s-13 -23.833 -13 -46.5h-63c0 36 9.5 64.167 28.5 84.5s45.5 30.5 79.5 30.5s61.333 -8 82 -24s31 -40.333 31 -73
c0 -12.667 -1.66699 -24.167 -5 -34.5s-8.83301 -20.5 -16.5 -30.5s-17.5 -20.167 -29.5 -30.5s-27 -21.833 -45 -34.5c-13.333 -9.33301 -24.166 -19.5 -32.499 -30.5s-12.833 -20.833 -13.5 -29.5h143v-56h-226z" />
    <glyph glyph-name="threequarters" unicode="&#xbe;" horiz-adv-x="634" 
d="M104 537c28 0 46.166 4.49707 54.499 13.4971s12.5 19.833 12.5 32.5c0 34 -14.333 51 -43 51c-12.667 0 -23.167 -4.83301 -31.5 -14.5s-12.5 -23.167 -12.5 -40.5h-60c0 32 9.83301 57.833 29.5 77.5s45.5 29.5 77.5 29.5c28.667 0 53 -8.33301 73 -25
s30 -38.667 30 -66c0 -15.333 -3.16699 -29.666 -9.5 -42.999s-16.166 -23.666 -29.499 -30.999c15.333 -6.66699 27.333 -16.667 36 -30s13 -30.666 13 -51.999c0 -34 -10.667 -60.5 -32 -79.5s-49.666 -28.5 -84.999 -28.5c-34.667 0 -61.5 9.66699 -80.5 29
s-28.5 46 -28.5 80h63c0 -36.667 16.333 -55 49 -55c13.333 0 24.666 4.83301 33.999 14.5s14 23.167 14 40.5c0 19.333 -5.5 32.833 -16.5 40.5s-30.167 11.5 -57.5 11.5v45zM63.999 -20.0029l461 704h68l-462 -704h-67zM520.999 229.997l-68 -117h68v117z
M519.999 -10.0029v72h-129v57l121 203h73v-209h37v-51h-37v-72h-65z" />
    <glyph glyph-name="questiondown" unicode="&#xbf;" horiz-adv-x="486" 
d="M306.011 664v-130.992h-134.991v130.992h134.991zM302.011 471.012c0 -39.3311 -3.00195 -70.9961 -9.00098 -94.9951s-17.665 -45.998 -34.998 -65.9971c-9.99902 -11.999 -21.332 -22.332 -33.998 -30.998c-12.665 -8.66602 -24.3311 -17.832 -34.998 -27.498
c-10.665 -9.66602 -19.6641 -20.499 -26.9971 -32.498s-10.999 -27.665 -10.999 -46.9971c0 -32.665 8.99902 -55.4971 26.998 -68.4961s39.3311 -19.499 63.9961 -19.499c35.3311 0 59.6631 9.83301 72.9961 29.498c13.332 19.666 21.665 46.1641 24.998 79.4951h128.992
c0 -32.665 -5.33301 -62.3301 -15.999 -88.9951s-25.832 -49.3301 -45.4971 -67.9961c-19.665 -18.665 -43.3301 -32.9971 -70.9951 -42.9961s-58.1631 -14.999 -91.4941 -14.999c-71.9951 0 -128.825 14.666 -170.489 43.9971s-62.4961 76.9951 -62.4961 142.991
c0 21.332 2.16602 39.998 6.49902 55.9971s10.833 30.498 19.499 43.4971s19.332 25.165 31.998 36.498s26.998 22.999 42.9971 34.998c14.666 11.333 26.499 21.833 35.498 31.5c8.99902 9.66602 15.832 19.832 20.499 30.498
c4.66602 10.666 7.66602 21.832 8.99902 33.498c1.33301 11.665 2 24.8311 2 39.4971h121.992z" />
    <glyph glyph-name="Agrave" unicode="&#xc0;" horiz-adv-x="638" 
d="M319 515h-1l-85 -264h169zM484 0l-42 137h-245l-47 -137h-147l237 664h161l234 -664h-151zM162 820l47 82l207 -121l-31 -55z" />
    <glyph glyph-name="Aacute" unicode="&#xc1;" horiz-adv-x="638" 
d="M319 515h-1l-85 -264h169zM484 0l-42 137h-245l-47 -137h-147l237 664h161l234 -664h-151zM253 726l-31 55l207 121l47 -82z" />
    <glyph glyph-name="Acircumflex" unicode="&#xc2;" horiz-adv-x="638" 
d="M319 515h-1l-85 -264h169zM484 0l-42 137h-245l-47 -137h-147l237 664h161l234 -664h-151zM319 851l-135 -118l-46 51l128 134h106l128 -134l-46 -51z" />
    <glyph glyph-name="Atilde" unicode="&#xc3;" horiz-adv-x="638" 
d="M319 515h-1l-85 -264h169zM484 0l-42 137h-245l-47 -137h-147l237 664h161l234 -664h-151zM491 846c-11.333 -36 -27.001 -61.335 -47.001 -76.002s-40.667 -22 -62 -22c-12.667 0 -24.5 2.33301 -35.5 7s-21.5 9.83398 -31.5 15.501s-20 10.834 -30 15.501
s-20.333 7 -31 7c-4 0 -10 -2.66699 -18 -8s-15 -17.333 -21 -36l-69 37c10.667 32.667 24.334 55.5 41.001 68.5s35.334 19.5 56.001 19.5c15.333 0 29 -2.5 41 -7.5s23.333 -10.5 34 -16.5l30 -16.5c9.33301 -5 18.666 -7.5 27.999 -7.5c6 0 13.333 3.5 22 10.5
s14.667 19.167 18 36.5z" />
    <glyph glyph-name="Adieresis" unicode="&#xc4;" horiz-adv-x="638" 
d="M319 515h-1l-85 -264h169zM484 0l-42 137h-245l-47 -137h-147l237 664h161l234 -664h-151zM154 751v124h130v-124h-130zM354 751v124h130v-124h-130z" />
    <glyph glyph-name="Aring" unicode="&#xc5;" horiz-adv-x="638" 
d="M319 515h-1l-85 -264h169zM484 0l-42 137h-245l-47 -137h-147l237 664h161l234 -664h-151zM423 822c0 -31.333 -8 -55.167 -24 -71.5s-42.667 -24.5 -80 -24.5c-69.333 0 -104 32 -104 96c0 30.667 8.5 54.334 25.5 71.001s43.167 25 78.5 25
c37.333 0 64 -8.33301 80 -25s24 -40.334 24 -71.001zM371 821.999c0 34 -17.333 51 -52 51c-33.333 0 -50 -17 -50 -51c0 -32.667 16.667 -49 50 -49c34.667 0 52 16.333 52 49z" />
    <glyph glyph-name="AE" unicode="&#xc6;" horiz-adv-x="881" 
d="M374 0v137h-177l-47 -137h-147l237 664h625v-116h-353v-142h325v-117h-325v-171h369v-118h-507zM374 548h-44l-97 -297h141v297z" />
    <glyph glyph-name="Ccedilla" unicode="&#xc7;" horiz-adv-x="608" 
d="M608 228c-7.33301 -38 -18.9971 -72.333 -34.9971 -103s-36.167 -57 -60.5 -79s-52.5 -39 -84.5 -51s-67.333 -18 -106 -18c-43.333 0 -83.833 7.33301 -121.5 22s-70.167 36.667 -97.5 66s-48.833 65.5 -64.5 108.5s-23.5 93.167 -23.5 150.5
c0 56 7.16699 106.5 21.5 151.5s34.833 83 61.5 114s59.167 54.833 97.5 71.5s81.166 25 128.499 25c41.333 0 78.833 -6.16699 112.5 -18.5s62.667 -29.333 87 -51s43.666 -47.167 57.999 -76.5s23.166 -60.666 26.499 -93.999h-139c-9.33301 38 -27.333 67.5 -54 88.5
s-56.667 31.5 -90 31.5c-58 0 -100.667 -20.833 -128 -62.5s-41 -98.834 -41 -171.501c0 -74 13.5 -131.5 40.5 -172.5s67.5 -61.5 121.5 -61.5c41.333 0 74.5 11.167 99.5 33.5s42.167 54.5 51.5 96.5h139zM263.003 -190c41.333 3.33301 62.668 25 64.001 65h-64v82h115
v-54c0 -18 -1.83301 -34.833 -5.5 -50.5s-9.83398 -29.5 -18.501 -41.5s-20.5 -21.833 -35.5 -29.5s-33.5 -12.5 -55.5 -14.5v43z" />
    <glyph glyph-name="Egrave" unicode="&#xc8;" horiz-adv-x="527" 
d="M23 0v664h488v-116h-353v-142h325v-117h-325v-171h369v-118h-504zM106 820l47 82l207 -121l-31 -55z" />
    <glyph glyph-name="Eacute" unicode="&#xc9;" horiz-adv-x="527" 
d="M23 0v664h488v-116h-353v-142h325v-117h-325v-171h369v-118h-504zM197 726l-31 55l207 121l47 -82z" />
    <glyph glyph-name="Ecircumflex" unicode="&#xca;" horiz-adv-x="527" 
d="M23 0v664h488v-116h-353v-142h325v-117h-325v-171h369v-118h-504zM263 851l-135 -118l-46 51l128 134h106l128 -134l-46 -51z" />
    <glyph glyph-name="Edieresis" unicode="&#xcb;" horiz-adv-x="527" 
d="M23 0v664h488v-116h-353v-142h325v-117h-325v-171h369v-118h-504zM98 751v124h130v-124h-130zM298 751v124h130v-124h-130z" />
    <glyph glyph-name="Igrave" unicode="&#xcc;" horiz-adv-x="184" 
d="M23 0v664h139v-664h-139zM-64 820l47 82l207 -121l-31 -55z" />
    <glyph glyph-name="Iacute" unicode="&#xcd;" horiz-adv-x="184" 
d="M23 0v664h139v-664h-139zM27 726l-31 55l207 121l47 -82z" />
    <glyph glyph-name="Icircumflex" unicode="&#xce;" horiz-adv-x="184" 
d="M23 0v664h139v-664h-139zM93 851l-135 -118l-46 51l128 134h106l128 -134l-46 -51z" />
    <glyph glyph-name="Idieresis" unicode="&#xcf;" horiz-adv-x="184" 
d="M23 0v664h139v-664h-139zM-72 751v124h130v-124h-130zM128 751v124h130v-124h-130z" />
    <glyph glyph-name="Eth" unicode="&#xd0;" horiz-adv-x="602" 
d="M23 0l-0.000976562 282.002h-23v99h23v283h257c44.667 0 86 -7.5 124 -22.5s70.5 -36.5 97.5 -64.5s48.167 -62 63.5 -102s23 -85.333 23 -136s-6.83301 -96.834 -20.5 -138.501s-33.167 -77.334 -58.5 -107.001s-55.666 -52.667 -90.999 -69s-74.333 -24.5 -117 -24.5
h-278zM272.999 113.002c60.667 0 104.666 18.833 131.999 56.5s41 94.167 41 169.5c0 37.333 -3.33301 69.333 -10 96s-17.5 48.5 -32.5 65.5s-34.167 29.333 -57.5 37s-51.666 11.5 -84.999 11.5h-103v-168h107v-99h-107v-169h115z" />
    <glyph glyph-name="Ntilde" unicode="&#xd1;" horiz-adv-x="586" 
d="M436 0l-284 446v-446h-129v664h147l264 -427v427h130v-664h-128zM465 846c-11.333 -36 -27.001 -61.335 -47.001 -76.002s-40.667 -22 -62 -22c-12.667 0 -24.5 2.33301 -35.5 7s-21.5 9.83398 -31.5 15.501s-20 10.834 -30 15.501s-20.333 7 -31 7
c-4 0 -10 -2.66699 -18 -8s-15 -17.333 -21 -36l-69 37c10.667 32.667 24.334 55.5 41.001 68.5s35.334 19.5 56.001 19.5c15.333 0 29 -2.5 41 -7.5s23.333 -10.5 34 -16.5l30 -16.5c9.33301 -5 18.666 -7.5 27.999 -7.5c6 0 13.333 3.5 22 10.5s14.667 19.167 18 36.5z
" />
    <glyph glyph-name="Ograve" unicode="&#xd2;" horiz-adv-x="666" 
d="M334 96c24.667 0 48.002 4.5 70.002 13.5s41.167 22.667 57.5 41s29.166 41.833 38.499 70.5s14 62.667 14 102c0 78.667 -15.333 138.334 -46 179.001s-75.334 61 -134.001 61s-103.667 -20.333 -135 -61s-47 -100.334 -47 -179.001s15.833 -136.167 47.5 -172.5
s76.5 -54.5 134.5 -54.5zM334.002 -23c-102.667 0 -181.5 29.999 -236.5 89.999s-82.5 146.333 -82.5 259c0 56 7 106.333 21 151s34.667 82.5 62 113.5s60.666 54.667 99.999 71s84.666 24.5 135.999 24.5c50.667 0 95.834 -8.16699 135.501 -24.5
s72.834 -40.166 99.501 -71.499s47 -69.5 61 -114.5s21 -95.833 21 -152.5c0 -114.667 -27.167 -201 -81.5 -259s-132.833 -87 -235.5 -87zM176.002 819.999l47 82l207 -121l-31 -55z" />
    <glyph glyph-name="Oacute" unicode="&#xd3;" horiz-adv-x="666" 
d="M334 96c24.667 0 48.002 4.5 70.002 13.5s41.167 22.667 57.5 41s29.166 41.833 38.499 70.5s14 62.667 14 102c0 78.667 -15.333 138.334 -46 179.001s-75.334 61 -134.001 61s-103.667 -20.333 -135 -61s-47 -100.334 -47 -179.001s15.833 -136.167 47.5 -172.5
s76.5 -54.5 134.5 -54.5zM334.002 -23c-102.667 0 -181.5 29.999 -236.5 89.999s-82.5 146.333 -82.5 259c0 56 7 106.333 21 151s34.667 82.5 62 113.5s60.666 54.667 99.999 71s84.666 24.5 135.999 24.5c50.667 0 95.834 -8.16699 135.501 -24.5
s72.834 -40.166 99.501 -71.499s47 -69.5 61 -114.5s21 -95.833 21 -152.5c0 -114.667 -27.167 -201 -81.5 -259s-132.833 -87 -235.5 -87zM267.002 725.999l-31 55l207 121l47 -82z" />
    <glyph glyph-name="Ocircumflex" unicode="&#xd4;" horiz-adv-x="666" 
d="M334 96c24.667 0 48.002 4.5 70.002 13.5s41.167 22.667 57.5 41s29.166 41.833 38.499 70.5s14 62.667 14 102c0 78.667 -15.333 138.334 -46 179.001s-75.334 61 -134.001 61s-103.667 -20.333 -135 -61s-47 -100.334 -47 -179.001s15.833 -136.167 47.5 -172.5
s76.5 -54.5 134.5 -54.5zM334.002 -23c-102.667 0 -181.5 29.999 -236.5 89.999s-82.5 146.333 -82.5 259c0 56 7 106.333 21 151s34.667 82.5 62 113.5s60.666 54.667 99.999 71s84.666 24.5 135.999 24.5c50.667 0 95.834 -8.16699 135.501 -24.5
s72.834 -40.166 99.501 -71.499s47 -69.5 61 -114.5s21 -95.833 21 -152.5c0 -114.667 -27.167 -201 -81.5 -259s-132.833 -87 -235.5 -87zM333.002 850.999l-135 -118l-46 51l128 134h106l128 -134l-46 -51z" />
    <glyph glyph-name="Otilde" unicode="&#xd5;" horiz-adv-x="666" 
d="M334 96c24.667 0 48.002 4.5 70.002 13.5s41.167 22.667 57.5 41s29.166 41.833 38.499 70.5s14 62.667 14 102c0 78.667 -15.333 138.334 -46 179.001s-75.334 61 -134.001 61s-103.667 -20.333 -135 -61s-47 -100.334 -47 -179.001s15.833 -136.167 47.5 -172.5
s76.5 -54.5 134.5 -54.5zM334.002 -23c-102.667 0 -181.5 29.999 -236.5 89.999s-82.5 146.333 -82.5 259c0 56 7 106.333 21 151s34.667 82.5 62 113.5s60.666 54.667 99.999 71s84.666 24.5 135.999 24.5c50.667 0 95.834 -8.16699 135.501 -24.5
s72.834 -40.166 99.501 -71.499s47 -69.5 61 -114.5s21 -95.833 21 -152.5c0 -114.667 -27.167 -201 -81.5 -259s-132.833 -87 -235.5 -87zM505.002 845.999c-11.333 -36 -27.001 -61.335 -47.001 -76.002s-40.667 -22 -62 -22c-12.667 0 -24.5 2.33301 -35.5 7
s-21.5 9.83398 -31.5 15.501s-20 10.834 -30 15.501s-20.333 7 -31 7c-4 0 -10 -2.66699 -18 -8s-15 -17.333 -21 -36l-69 37c10.667 32.667 24.334 55.5 41.001 68.5s35.334 19.5 56.001 19.5c15.333 0 29 -2.5 41 -7.5s23.333 -10.5 34 -16.5l30 -16.5
c9.33301 -5 18.666 -7.5 27.999 -7.5c6 0 13.333 3.5 22 10.5s14.667 19.167 18 36.5z" />
    <glyph glyph-name="Odieresis" unicode="&#xd6;" horiz-adv-x="666" 
d="M334 96c24.667 0 48.002 4.5 70.002 13.5s41.167 22.667 57.5 41s29.166 41.833 38.499 70.5s14 62.667 14 102c0 78.667 -15.333 138.334 -46 179.001s-75.334 61 -134.001 61s-103.667 -20.333 -135 -61s-47 -100.334 -47 -179.001s15.833 -136.167 47.5 -172.5
s76.5 -54.5 134.5 -54.5zM334.002 -23c-102.667 0 -181.5 29.999 -236.5 89.999s-82.5 146.333 -82.5 259c0 56 7 106.333 21 151s34.667 82.5 62 113.5s60.666 54.667 99.999 71s84.666 24.5 135.999 24.5c50.667 0 95.834 -8.16699 135.501 -24.5
s72.834 -40.166 99.501 -71.499s47 -69.5 61 -114.5s21 -95.833 21 -152.5c0 -114.667 -27.167 -201 -81.5 -259s-132.833 -87 -235.5 -87zM168.002 750.999v124h130v-124h-130zM368.002 750.999v124h130v-124h-130z" />
    <glyph glyph-name="multiply" unicode="&#xd7;" horiz-adv-x="518" 
d="M391 143l-134 133l-133 -133l-66 67l133 133l-133 133l66 66l133 -133l134 134l66 -67l-133 -133l133 -134z" />
    <glyph glyph-name="Oslash" unicode="&#xd8;" horiz-adv-x="666" 
d="M111 -14l24.001 48c-39.333 29.333 -69.166 68.333 -89.499 117s-30.5 107 -30.5 175c0 56 7 106.333 21 151s34.667 82.5 62 113.5s60.666 54.667 99.999 71s84.666 24.5 135.999 24.5c22 0 42.833 -1.66699 62.5 -5s38.5 -8 56.5 -14l24 48l74 -27l-28 -56
c42 -30 73.833 -71 95.5 -123s32.5 -114 32.5 -186c0 -114.667 -27.167 -201 -81.5 -259s-132.833 -87 -235.5 -87c-25.333 0 -49 1.83301 -71 5.5s-42.667 9.16699 -62 16.5l-20 -40zM257.001 109c21.333 -8.66699 47.001 -13 77.001 -13c24.667 0 48 4.5 70 13.5
s41.167 22.667 57.5 41s29.166 41.833 38.499 70.5s14 62.667 14 102c0 84 -17.667 146.333 -53 187zM396.002 553c-9.33301 3.33301 -19.168 5.83398 -29.501 7.50098s-21.166 2.5 -32.499 2.5c-58.667 0 -103.667 -20.333 -135 -61s-47 -100.334 -47 -179.001
c0 -74 14.667 -129.667 44 -167z" />
    <glyph glyph-name="Ugrave" unicode="&#xd9;" horiz-adv-x="581" 
d="M416 664h141.999v-443c0 -80.667 -23.667 -141.5 -71 -182.5s-114.666 -61.5 -201.999 -61.5c-80.667 0 -144.5 19.333 -191.5 58s-70.5 98 -70.5 178v451h141v-438c0 -41.333 10.333 -74 31 -98s50 -36 88 -36c88.667 0 133 43 133 129v443zM132.999 820l47 82l207 -121
l-31 -55z" />
    <glyph glyph-name="Uacute" unicode="&#xda;" horiz-adv-x="581" 
d="M416 664h141.999v-443c0 -80.667 -23.667 -141.5 -71 -182.5s-114.666 -61.5 -201.999 -61.5c-80.667 0 -144.5 19.333 -191.5 58s-70.5 98 -70.5 178v451h141v-438c0 -41.333 10.333 -74 31 -98s50 -36 88 -36c88.667 0 133 43 133 129v443zM223.999 726l-31 55l207 121
l47 -82z" />
    <glyph glyph-name="Ucircumflex" unicode="&#xdb;" horiz-adv-x="581" 
d="M416 664h141.999v-443c0 -80.667 -23.667 -141.5 -71 -182.5s-114.666 -61.5 -201.999 -61.5c-80.667 0 -144.5 19.333 -191.5 58s-70.5 98 -70.5 178v451h141v-438c0 -41.333 10.333 -74 31 -98s50 -36 88 -36c88.667 0 133 43 133 129v443zM289.999 851l-135 -118
l-46 51l128 134h106l128 -134l-46 -51z" />
    <glyph glyph-name="Udieresis" unicode="&#xdc;" horiz-adv-x="581" 
d="M416 664h141.999v-443c0 -80.667 -23.667 -141.5 -71 -182.5s-114.666 -61.5 -201.999 -61.5c-80.667 0 -144.5 19.333 -191.5 58s-70.5 98 -70.5 178v451h141v-438c0 -41.333 10.333 -74 31 -98s50 -36 88 -36c88.667 0 133 43 133 129v443zM124.999 751v124h130v-124
h-130zM324.999 751v124h130v-124h-130z" />
    <glyph glyph-name="Yacute" unicode="&#xdd;" horiz-adv-x="597" 
d="M233 0v251l-230 413h162l140 -270l129 270h160l-222 -415v-249h-139zM237 726l-31 55l207 121l47 -82z" />
    <glyph glyph-name="Thorn" unicode="&#xde;" horiz-adv-x="529" 
d="M294 251c32.667 0 59.667 9.16699 81 27.5s32 41.833 32 70.5c0 28 -10.167 51 -30.5 69s-47.833 27 -82.5 27h-132v-194h132zM162 137l0.000976562 -137h-139v664h139v-103h167c29.333 0 56.166 -5.66699 80.499 -17s45.333 -26.666 63 -45.999s31.5 -42 41.5 -68
s15 -54 15 -84s-5 -57.833 -15 -83.5s-24 -47.834 -42 -66.501s-39.5 -33.167 -64.5 -43.5s-52.833 -15.5 -83.5 -15.5h-162z" />
    <glyph glyph-name="germandbls" unicode="&#xdf;" horiz-adv-x="505" 
d="M218 96c4.66699 -0.666992 9.32812 -1.16992 13.9951 -1.50293s9.33398 -0.5 14.001 -0.5c38 0 68 10.5 90 31.5s33 47.833 33 80.5c0 22 -3.5 40.5 -10.5 55.5s-16.667 27 -29 36s-27.333 15.667 -45 20s-37.167 6.83301 -58.5 7.5v82
c20.667 0.666992 37.5 3.16699 50.5 7.5s23.333 10.166 31 17.499s13 16 16 26s4.5 21 4.5 33c0 31.333 -8.66699 53.166 -26 65.499s-37.666 18.5 -60.999 18.5c-24 0 -44.5 -6.66699 -61.5 -20s-25.5 -34.666 -25.5 -63.999v-491h-128v498c0 26.667 4.5 51.167 13.5 73.5
s22.667 41.5 41 57.5s41.166 28.333 68.499 37s59.666 13 96.999 13c36.667 0 68.334 -4.33301 95.001 -13s48.834 -20.667 66.501 -36s30.667 -33.666 39 -54.999s12.5 -44.666 12.5 -69.999c0 -18.667 -1.83301 -34.667 -5.5 -48s-8.66699 -24.666 -15 -33.999
s-13.5 -17.333 -21.5 -24s-16.333 -12.667 -25 -18c21.333 -9.33301 38.833 -20.166 52.5 -32.499s24.334 -25.5 32.001 -39.5s13 -29.167 16 -45.5s4.5 -33.166 4.5 -50.499c0 -35.333 -5.16699 -66.833 -15.5 -94.5s-25.166 -51.334 -44.499 -71.001
s-42.666 -34.667 -69.999 -45s-58 -15.5 -92 -15.5c-25.333 0 -44.333 1.33301 -57 4v105z" />
    <glyph glyph-name="agrave" unicode="&#xe0;" horiz-adv-x="481" 
d="M325 241c-6.66699 -6.66699 -16.3311 -12.0029 -28.998 -16.0029s-31 -8.33301 -55 -13c-37.333 -7.33301 -63 -16.666 -77 -27.999s-21 -27.666 -21 -48.999c0 -36.667 21 -55 63 -55c16.667 0 32.167 2.83301 46.5 8.5s26.666 13.334 36.999 23.001
s18.666 21 24.999 34s9.5 26.833 9.5 41.5zM334.003 -0.00292969c-4 12.667 -6.66895 27.332 -8.00195 43.999c-15.333 -17.333 -35.666 -31.166 -60.999 -41.499s-54.666 -15.5 -87.999 -15.5c-56.667 0 -98.167 12.5 -124.5 37.5s-39.5 57.5 -39.5 97.5
c0 35.333 5.66699 63.5 17 84.5s27 37.5 47 49.5s43.833 20.833 71.5 26.5s57.834 10.834 90.501 15.501s54.667 10.834 66 18.501s17 20.167 17 37.5c0 16 -7.5 28.5 -22.5 37.5s-35.167 13.5 -60.5 13.5c-30 0 -51.5 -6.66699 -64.5 -20s-21.167 -31 -24.5 -53h-121
c0.666992 25.333 4.83398 48.666 12.501 69.999s20 39.666 37 54.999s39.167 27.166 66.5 35.499s60.666 12.5 99.999 12.5c38.667 0 71.5 -4.33301 98.5 -13s48.667 -21.167 65 -37.5s28.166 -36.666 35.499 -60.999s11 -51.833 11 -82.5v-311h-121zM83.001 647.995l47 82
l207 -121l-31 -55z" />
    <glyph glyph-name="aacute" unicode="&#xe1;" horiz-adv-x="481" 
d="M325 241c-6.66699 -6.66699 -16.3311 -12.0029 -28.998 -16.0029s-31 -8.33301 -55 -13c-37.333 -7.33301 -63 -16.666 -77 -27.999s-21 -27.666 -21 -48.999c0 -36.667 21 -55 63 -55c16.667 0 32.167 2.83301 46.5 8.5s26.666 13.334 36.999 23.001
s18.666 21 24.999 34s9.5 26.833 9.5 41.5zM334.003 -0.00292969c-4 12.667 -6.66895 27.332 -8.00195 43.999c-15.333 -17.333 -35.666 -31.166 -60.999 -41.499s-54.666 -15.5 -87.999 -15.5c-56.667 0 -98.167 12.5 -124.5 37.5s-39.5 57.5 -39.5 97.5
c0 35.333 5.66699 63.5 17 84.5s27 37.5 47 49.5s43.833 20.833 71.5 26.5s57.834 10.834 90.501 15.501s54.667 10.834 66 18.501s17 20.167 17 37.5c0 16 -7.5 28.5 -22.5 37.5s-35.167 13.5 -60.5 13.5c-30 0 -51.5 -6.66699 -64.5 -20s-21.167 -31 -24.5 -53h-121
c0.666992 25.333 4.83398 48.666 12.501 69.999s20 39.666 37 54.999s39.167 27.166 66.5 35.499s60.666 12.5 99.999 12.5c38.667 0 71.5 -4.33301 98.5 -13s48.667 -21.167 65 -37.5s28.166 -36.666 35.499 -60.999s11 -51.833 11 -82.5v-311h-121zM174.001 553.995
l-31 55l207 121l47 -82z" />
    <glyph glyph-name="acircumflex" unicode="&#xe2;" horiz-adv-x="481" 
d="M325 241c-6.66699 -6.66699 -16.3311 -12.0029 -28.998 -16.0029s-31 -8.33301 -55 -13c-37.333 -7.33301 -63 -16.666 -77 -27.999s-21 -27.666 -21 -48.999c0 -36.667 21 -55 63 -55c16.667 0 32.167 2.83301 46.5 8.5s26.666 13.334 36.999 23.001
s18.666 21 24.999 34s9.5 26.833 9.5 41.5zM334.003 -0.00292969c-4 12.667 -6.66895 27.332 -8.00195 43.999c-15.333 -17.333 -35.666 -31.166 -60.999 -41.499s-54.666 -15.5 -87.999 -15.5c-56.667 0 -98.167 12.5 -124.5 37.5s-39.5 57.5 -39.5 97.5
c0 35.333 5.66699 63.5 17 84.5s27 37.5 47 49.5s43.833 20.833 71.5 26.5s57.834 10.834 90.501 15.501s54.667 10.834 66 18.501s17 20.167 17 37.5c0 16 -7.5 28.5 -22.5 37.5s-35.167 13.5 -60.5 13.5c-30 0 -51.5 -6.66699 -64.5 -20s-21.167 -31 -24.5 -53h-121
c0.666992 25.333 4.83398 48.666 12.501 69.999s20 39.666 37 54.999s39.167 27.166 66.5 35.499s60.666 12.5 99.999 12.5c38.667 0 71.5 -4.33301 98.5 -13s48.667 -21.167 65 -37.5s28.166 -36.666 35.499 -60.999s11 -51.833 11 -82.5v-311h-121zM240.001 678.995
l-135 -118l-46 51l128 134h106l128 -134l-46 -51z" />
    <glyph glyph-name="atilde" unicode="&#xe3;" horiz-adv-x="481" 
d="M325 241c-6.66699 -6.66699 -16.3311 -12.0029 -28.998 -16.0029s-31 -8.33301 -55 -13c-37.333 -7.33301 -63 -16.666 -77 -27.999s-21 -27.666 -21 -48.999c0 -36.667 21 -55 63 -55c16.667 0 32.167 2.83301 46.5 8.5s26.666 13.334 36.999 23.001
s18.666 21 24.999 34s9.5 26.833 9.5 41.5zM334.003 -0.00292969c-4 12.667 -6.66895 27.332 -8.00195 43.999c-15.333 -17.333 -35.666 -31.166 -60.999 -41.499s-54.666 -15.5 -87.999 -15.5c-56.667 0 -98.167 12.5 -124.5 37.5s-39.5 57.5 -39.5 97.5
c0 35.333 5.66699 63.5 17 84.5s27 37.5 47 49.5s43.833 20.833 71.5 26.5s57.834 10.834 90.501 15.501s54.667 10.834 66 18.501s17 20.167 17 37.5c0 16 -7.5 28.5 -22.5 37.5s-35.167 13.5 -60.5 13.5c-30 0 -51.5 -6.66699 -64.5 -20s-21.167 -31 -24.5 -53h-121
c0.666992 25.333 4.83398 48.666 12.501 69.999s20 39.666 37 54.999s39.167 27.166 66.5 35.499s60.666 12.5 99.999 12.5c38.667 0 71.5 -4.33301 98.5 -13s48.667 -21.167 65 -37.5s28.166 -36.666 35.499 -60.999s11 -51.833 11 -82.5v-311h-121zM413.001 673.995
c-11.333 -36 -27.001 -61.335 -47.001 -76.002s-40.667 -22 -62 -22c-12.667 0 -24.5 2.33301 -35.5 7s-21.5 9.83398 -31.5 15.501s-20 10.834 -30 15.501s-20.333 7 -31 7c-4 0 -10 -2.66699 -18 -8s-15 -17.333 -21 -36l-69 37c10.667 32.667 24.334 55.5 41.001 68.5
s35.334 19.5 56.001 19.5c15.333 0 29 -2.5 41 -7.5s23.333 -10.5 34 -16.5l30 -16.5c9.33301 -5 18.666 -7.5 27.999 -7.5c6 0 13.333 3.5 22 10.5s14.667 19.167 18 36.5z" />
    <glyph glyph-name="adieresis" unicode="&#xe4;" horiz-adv-x="481" 
d="M325 241c-6.66699 -6.66699 -16.3311 -12.0029 -28.998 -16.0029s-31 -8.33301 -55 -13c-37.333 -7.33301 -63 -16.666 -77 -27.999s-21 -27.666 -21 -48.999c0 -36.667 21 -55 63 -55c16.667 0 32.167 2.83301 46.5 8.5s26.666 13.334 36.999 23.001
s18.666 21 24.999 34s9.5 26.833 9.5 41.5zM334.003 -0.00292969c-4 12.667 -6.66895 27.332 -8.00195 43.999c-15.333 -17.333 -35.666 -31.166 -60.999 -41.499s-54.666 -15.5 -87.999 -15.5c-56.667 0 -98.167 12.5 -124.5 37.5s-39.5 57.5 -39.5 97.5
c0 35.333 5.66699 63.5 17 84.5s27 37.5 47 49.5s43.833 20.833 71.5 26.5s57.834 10.834 90.501 15.501s54.667 10.834 66 18.501s17 20.167 17 37.5c0 16 -7.5 28.5 -22.5 37.5s-35.167 13.5 -60.5 13.5c-30 0 -51.5 -6.66699 -64.5 -20s-21.167 -31 -24.5 -53h-121
c0.666992 25.333 4.83398 48.666 12.501 69.999s20 39.666 37 54.999s39.167 27.166 66.5 35.499s60.666 12.5 99.999 12.5c38.667 0 71.5 -4.33301 98.5 -13s48.667 -21.167 65 -37.5s28.166 -36.666 35.499 -60.999s11 -51.833 11 -82.5v-311h-121zM75.001 578.995v124
h130v-124h-130zM275.001 578.995v124h130v-124h-130z" />
    <glyph glyph-name="aring" unicode="&#xe5;" horiz-adv-x="481" 
d="M325 241c-6.66699 -6.66699 -16.3311 -12.0029 -28.998 -16.0029s-31 -8.33301 -55 -13c-37.333 -7.33301 -63 -16.666 -77 -27.999s-21 -27.666 -21 -48.999c0 -36.667 21 -55 63 -55c16.667 0 32.167 2.83301 46.5 8.5s26.666 13.334 36.999 23.001
s18.666 21 24.999 34s9.5 26.833 9.5 41.5zM334.003 -0.00292969c-4 12.667 -6.66895 27.332 -8.00195 43.999c-15.333 -17.333 -35.666 -31.166 -60.999 -41.499s-54.666 -15.5 -87.999 -15.5c-56.667 0 -98.167 12.5 -124.5 37.5s-39.5 57.5 -39.5 97.5
c0 35.333 5.66699 63.5 17 84.5s27 37.5 47 49.5s43.833 20.833 71.5 26.5s57.834 10.834 90.501 15.501s54.667 10.834 66 18.501s17 20.167 17 37.5c0 16 -7.5 28.5 -22.5 37.5s-35.167 13.5 -60.5 13.5c-30 0 -51.5 -6.66699 -64.5 -20s-21.167 -31 -24.5 -53h-121
c0.666992 25.333 4.83398 48.666 12.501 69.999s20 39.666 37 54.999s39.167 27.166 66.5 35.499s60.666 12.5 99.999 12.5c38.667 0 71.5 -4.33301 98.5 -13s48.667 -21.167 65 -37.5s28.166 -36.666 35.499 -60.999s11 -51.833 11 -82.5v-311h-121zM344.001 649.995
c0 -31.333 -8 -55.167 -24 -71.5s-42.667 -24.5 -80 -24.5c-69.333 0 -104 32 -104 96c0 30.667 8.5 54.334 25.5 71.001s43.167 25 78.5 25c37.333 0 64 -8.33301 80 -25s24 -40.334 24 -71.001zM292.001 649.994c0 34 -17.333 51 -52 51c-33.333 0 -50 -17 -50 -51
c0 -32.667 16.667 -49 50 -49c34.667 0 52 16.333 52 49z" />
    <glyph glyph-name="ae" unicode="&#xe6;" horiz-adv-x="806" 
d="M455 212c2 -37.333 12.833 -66.999 32.5 -88.999s45.5 -33 77.5 -33c21.333 0 40.166 4.83301 56.499 14.5s26.833 23.167 31.5 40.5h134c-15.333 -50.667 -42 -89.667 -80 -117s-83.333 -41 -136 -41c-37.333 0 -73.5 6 -108.5 18s-64.833 33.667 -89.5 65
c-24 -28 -51.5 -48.833 -82.5 -62.5s-68.833 -20.5 -113.5 -20.5c-56.667 0 -98.167 12.5 -124.5 37.5s-39.5 57.5 -39.5 97.5c0 35.333 5.66699 63.5 17 84.5s27 37.5 47 49.5s43.833 20.833 71.5 26.5s57.834 10.834 90.501 15.501s54.667 10.834 66 18.501
s17 20.167 17 37.5c0 16 -7.5 28.5 -22.5 37.5s-35.167 13.5 -60.5 13.5c-30 0 -51.5 -6.66699 -64.5 -20s-21.167 -31 -24.5 -53h-121c0.666992 25.333 4.83398 48.666 12.501 69.999s20 39.666 37 54.999s39.167 27.166 66.5 35.499s60.666 12.5 99.999 12.5
c38.667 0 71.167 -4.16699 97.5 -12.5s47.833 -20.833 64.5 -37.5c41.333 33.333 93.333 50 156 50c76 0 133.5 -24.333 172.5 -73s58.5 -122 58.5 -220h-339zM325 241.001c-6.66699 -6.66699 -16.3311 -12.0029 -28.998 -16.0029s-31 -8.33301 -55 -13
c-37.333 -7.33301 -63 -16.666 -77 -27.999s-21 -27.666 -21 -48.999c0 -36.667 21 -55 63 -55c16.667 0 32.167 2.83301 46.5 8.5s26.666 13.334 36.999 23.001s18.666 21 24.999 34s9.5 26.833 9.5 41.5zM660.003 293.998c-0.666992 18 -3.83301 33.833 -9.5 47.5
s-13.167 25 -22.5 34s-20 15.667 -32 20s-24.333 6.5 -37 6.5c-26 0 -48.5 -9.5 -67.5 -28.5s-29.833 -45.5 -32.5 -79.5h201z" />
    <glyph glyph-name="ccedilla" unicode="&#xe7;" horiz-adv-x="476" 
d="M469 178c-3.33301 -28.667 -11.499 -54.665 -24.499 -77.998s-29.5 -43.333 -49.5 -60s-42.833 -29.667 -68.5 -39s-53.5 -14 -83.5 -14c-33.333 0 -63.833 5.5 -91.5 16.5s-51.5 27.667 -71.5 50s-35.5 50 -46.5 83s-16.5 71.5 -16.5 115.5s5.5 82 16.5 114
s26.5 58.167 46.5 78.5s44.167 35.5 72.5 45.5s59.833 15 94.5 15c32 0 61.167 -4.33301 87.5 -13s49.333 -21.334 69 -38.001s35.167 -36.667 46.5 -60s18 -49.333 20 -78h-131c-3.33301 25.333 -13.5 45.166 -30.5 59.499s-37.833 21.5 -62.5 21.5
c-14 0 -27 -2.33301 -39 -7s-22.5 -12.5 -31.5 -23.5s-16.167 -25.667 -21.5 -44s-8 -40.833 -8 -67.5c0 -54 9.66699 -94 29 -120s41.666 -39 66.999 -39s47 7 65 21s28.333 34.333 31 61h131zM194.001 -189.998c41.333 3.33301 62.668 25 64.001 65h-64v82h115v-54
c0 -18 -1.83301 -34.833 -5.5 -50.5s-9.83398 -29.5 -18.501 -41.5s-20.5 -21.833 -35.5 -29.5s-33.5 -12.5 -55.5 -14.5v43z" />
    <glyph glyph-name="egrave" unicode="&#xe8;" 
d="M350 294c-0.666992 18 -3.83301 33.833 -9.5 47.5s-13.167 25 -22.5 34s-20 15.667 -32 20s-24.333 6.5 -37 6.5c-26 0 -48.5 -9.5 -67.5 -28.5s-29.833 -45.5 -32.5 -79.5h201zM145.001 212c2 -37.333 12.835 -67 32.502 -89s45.5 -33 77.5 -33
c21.333 0 40.166 4.83301 56.499 14.5s26.833 23.167 31.5 40.5h134c-15.333 -50.667 -42 -89.667 -80 -117s-83.333 -41 -136 -41c-164 0 -246 89.333 -246 268c0 38 5.33301 72.333 16 103s26.167 57 46.5 79s45.166 38.833 74.499 50.5s63 17.5 101 17.5
c76 0 133.5 -24.333 172.5 -73s58.5 -122 58.5 -220h-339zM92.0029 648l47 82l207 -121l-31 -55z" />
    <glyph glyph-name="eacute" unicode="&#xe9;" 
d="M350 294c-0.666992 18 -3.83301 33.833 -9.5 47.5s-13.167 25 -22.5 34s-20 15.667 -32 20s-24.333 6.5 -37 6.5c-26 0 -48.5 -9.5 -67.5 -28.5s-29.833 -45.5 -32.5 -79.5h201zM145.001 212c2 -37.333 12.835 -67 32.502 -89s45.5 -33 77.5 -33
c21.333 0 40.166 4.83301 56.499 14.5s26.833 23.167 31.5 40.5h134c-15.333 -50.667 -42 -89.667 -80 -117s-83.333 -41 -136 -41c-164 0 -246 89.333 -246 268c0 38 5.33301 72.333 16 103s26.167 57 46.5 79s45.166 38.833 74.499 50.5s63 17.5 101 17.5
c76 0 133.5 -24.333 172.5 -73s58.5 -122 58.5 -220h-339zM183.003 554l-31 55l207 121l47 -82z" />
    <glyph glyph-name="ecircumflex" unicode="&#xea;" 
d="M350 294c-0.666992 18 -3.83301 33.833 -9.5 47.5s-13.167 25 -22.5 34s-20 15.667 -32 20s-24.333 6.5 -37 6.5c-26 0 -48.5 -9.5 -67.5 -28.5s-29.833 -45.5 -32.5 -79.5h201zM145.001 212c2 -37.333 12.835 -67 32.502 -89s45.5 -33 77.5 -33
c21.333 0 40.166 4.83301 56.499 14.5s26.833 23.167 31.5 40.5h134c-15.333 -50.667 -42 -89.667 -80 -117s-83.333 -41 -136 -41c-164 0 -246 89.333 -246 268c0 38 5.33301 72.333 16 103s26.167 57 46.5 79s45.166 38.833 74.499 50.5s63 17.5 101 17.5
c76 0 133.5 -24.333 172.5 -73s58.5 -122 58.5 -220h-339zM249.003 679l-135 -118l-46 51l128 134h106l128 -134l-46 -51z" />
    <glyph glyph-name="edieresis" unicode="&#xeb;" 
d="M350 294c-0.666992 18 -3.83301 33.833 -9.5 47.5s-13.167 25 -22.5 34s-20 15.667 -32 20s-24.333 6.5 -37 6.5c-26 0 -48.5 -9.5 -67.5 -28.5s-29.833 -45.5 -32.5 -79.5h201zM145.001 212c2 -37.333 12.835 -67 32.502 -89s45.5 -33 77.5 -33
c21.333 0 40.166 4.83301 56.499 14.5s26.833 23.167 31.5 40.5h134c-15.333 -50.667 -42 -89.667 -80 -117s-83.333 -41 -136 -41c-164 0 -246 89.333 -246 268c0 38 5.33301 72.333 16 103s26.167 57 46.5 79s45.166 38.833 74.499 50.5s63 17.5 101 17.5
c76 0 133.5 -24.333 172.5 -73s58.5 -122 58.5 -220h-339zM84.0029 579v124h130v-124h-130zM284.003 579v124h130v-124h-130z" />
    <glyph glyph-name="igrave" unicode="&#xec;" horiz-adv-x="268" 
d="M69 0v492h130v-492h-130zM-22 648l47 82l207 -121l-31 -55z" />
    <glyph glyph-name="iacute" unicode="&#xed;" horiz-adv-x="268" 
d="M69 0v492h130v-492h-130zM69 554l-31 55l207 121l47 -82z" />
    <glyph glyph-name="icircumflex" unicode="&#xee;" horiz-adv-x="268" 
d="M69 0v492h130v-492h-130zM135 679l-135 -118l-46 51l128 134h106l128 -134l-46 -51z" />
    <glyph glyph-name="idieresis" unicode="&#xef;" horiz-adv-x="268" 
d="M69 0v492h130v-492h-130zM-30 579v124h130v-124h-130zM170 579v124h130v-124h-130z" />
    <glyph glyph-name="eth" unicode="&#xf0;" horiz-adv-x="514" 
d="M402 615c30 -36.667 52.5 -82.8291 67.5 -138.496s22.5 -119.834 22.5 -192.501c0 -57.333 -6.83301 -105 -20.5 -143s-31.334 -68.333 -53.001 -91s-46.167 -38.834 -73.5 -48.501s-54.333 -14.5 -81 -14.5c-44.667 0 -82.667 6.5 -114 19.5s-57 31 -77 54
s-34.667 49.833 -44 80.5s-14 64 -14 100c0 35.333 4.83301 67.833 14.5 97.5s23.667 55.167 42 76.5s40.833 38 67.5 50s57.334 18 92.001 18c12 0 24 -0.5 36 -1.5s23.667 -3.16699 35 -6.5s22 -8.83301 32 -16.5s19.667 -17.834 29 -30.501
c-2.66699 24 -8.5 47.5 -17.5 70.5s-20.167 44.5 -33.5 64.5l-83 -48l-18 28l81 47c-14.667 17.333 -30.167 33 -46.5 47s-32.5 25.667 -48.5 35h139c14 -8.66699 28 -19.334 42 -32.001l68 39l18 -28zM258 95.0049c32.667 0 59.332 11.332 79.999 33.999
s31 54.334 31 95.001c0 47.333 -9.16699 83.833 -27.5 109.5s-45.833 38.5 -82.5 38.5c-37.333 0 -65.166 -12.5 -83.499 -37.5s-27.5 -59.167 -27.5 -102.5c0 -44 10 -77.833 30 -101.5s46.667 -35.5 80 -35.5z" />
    <glyph glyph-name="ntilde" unicode="&#xf1;" 
d="M341 0l0.00292969 298c0 38 -6.33301 63.667 -19 77s-34.334 20 -65.001 20c-67.333 0 -101 -37.667 -101 -113v-282h-130v492h124v-72c15.333 28 35.666 49.167 60.999 63.5s58 21.5 98 21.5c23.333 0 45 -3.5 65 -10.5s37.167 -17.5 51.5 -31.5
s25.666 -31.167 33.999 -51.5s12.5 -43.833 12.5 -70.5v-341h-131zM431.003 674c-11.333 -36 -27.001 -61.335 -47.001 -76.002s-40.667 -22 -62 -22c-12.667 0 -24.5 2.33301 -35.5 7s-21.5 9.83398 -31.5 15.501s-20 10.834 -30 15.501s-20.333 7 -31 7
c-4 0 -10 -2.66699 -18 -8s-15 -17.333 -21 -36l-69 37c10.667 32.667 24.334 55.5 41.001 68.5s35.334 19.5 56.001 19.5c15.333 0 29 -2.5 41 -7.5s23.333 -10.5 34 -16.5l30 -16.5c9.33301 -5 18.666 -7.5 27.999 -7.5c6 0 13.333 3.5 22 10.5s14.667 19.167 18 36.5z
" />
    <glyph glyph-name="ograve" unicode="&#xf2;" horiz-adv-x="534" 
d="M268 96c79.333 0 119 50 119 150c0 99.333 -39.667 149 -119 149s-119 -49.667 -119 -149c0 -100 39.667 -150 119 -150zM268 -13c-40 0 -75.6689 6.33203 -107.002 18.999s-57.833 30.334 -79.5 53.001s-38.167 50 -49.5 82s-17 67 -17 105
c0 38.667 5.83301 74 17.5 106s28.5 59.333 50.5 82s48.5 40.167 79.5 52.5s66.167 18.5 105.5 18.5c38.667 0 73.334 -6.16699 104.001 -18.5s56.834 -29.666 78.501 -51.999s38.334 -49.5 50.001 -81.5s17.5 -67.667 17.5 -107s-5.83301 -74.833 -17.5 -106.5
s-28.334 -58.834 -50.001 -81.501s-48 -40.167 -79 -52.5s-65.5 -18.5 -103.5 -18.5zM109.998 647.999l47 82l207 -121l-31 -55z" />
    <glyph glyph-name="oacute" unicode="&#xf3;" horiz-adv-x="534" 
d="M268 96c79.333 0 119 50 119 150c0 99.333 -39.667 149 -119 149s-119 -49.667 -119 -149c0 -100 39.667 -150 119 -150zM268 -13c-40 0 -75.6689 6.33203 -107.002 18.999s-57.833 30.334 -79.5 53.001s-38.167 50 -49.5 82s-17 67 -17 105
c0 38.667 5.83301 74 17.5 106s28.5 59.333 50.5 82s48.5 40.167 79.5 52.5s66.167 18.5 105.5 18.5c38.667 0 73.334 -6.16699 104.001 -18.5s56.834 -29.666 78.501 -51.999s38.334 -49.5 50.001 -81.5s17.5 -67.667 17.5 -107s-5.83301 -74.833 -17.5 -106.5
s-28.334 -58.834 -50.001 -81.501s-48 -40.167 -79 -52.5s-65.5 -18.5 -103.5 -18.5zM200.998 553.999l-31 55l207 121l47 -82z" />
    <glyph glyph-name="ocircumflex" unicode="&#xf4;" horiz-adv-x="534" 
d="M268 96c79.333 0 119 50 119 150c0 99.333 -39.667 149 -119 149s-119 -49.667 -119 -149c0 -100 39.667 -150 119 -150zM268 -13c-40 0 -75.6689 6.33203 -107.002 18.999s-57.833 30.334 -79.5 53.001s-38.167 50 -49.5 82s-17 67 -17 105
c0 38.667 5.83301 74 17.5 106s28.5 59.333 50.5 82s48.5 40.167 79.5 52.5s66.167 18.5 105.5 18.5c38.667 0 73.334 -6.16699 104.001 -18.5s56.834 -29.666 78.501 -51.999s38.334 -49.5 50.001 -81.5s17.5 -67.667 17.5 -107s-5.83301 -74.833 -17.5 -106.5
s-28.334 -58.834 -50.001 -81.501s-48 -40.167 -79 -52.5s-65.5 -18.5 -103.5 -18.5zM266.998 678.999l-135 -118l-46 51l128 134h106l128 -134l-46 -51z" />
    <glyph glyph-name="otilde" unicode="&#xf5;" horiz-adv-x="534" 
d="M268 96c79.333 0 119 50 119 150c0 99.333 -39.667 149 -119 149s-119 -49.667 -119 -149c0 -100 39.667 -150 119 -150zM268 -13c-40 0 -75.6689 6.33203 -107.002 18.999s-57.833 30.334 -79.5 53.001s-38.167 50 -49.5 82s-17 67 -17 105
c0 38.667 5.83301 74 17.5 106s28.5 59.333 50.5 82s48.5 40.167 79.5 52.5s66.167 18.5 105.5 18.5c38.667 0 73.334 -6.16699 104.001 -18.5s56.834 -29.666 78.501 -51.999s38.334 -49.5 50.001 -81.5s17.5 -67.667 17.5 -107s-5.83301 -74.833 -17.5 -106.5
s-28.334 -58.834 -50.001 -81.501s-48 -40.167 -79 -52.5s-65.5 -18.5 -103.5 -18.5zM438.998 673.999c-11.333 -36 -27.001 -61.335 -47.001 -76.002s-40.667 -22 -62 -22c-12.667 0 -24.5 2.33301 -35.5 7s-21.5 9.83398 -31.5 15.501s-20 10.834 -30 15.501
s-20.333 7 -31 7c-4 0 -10 -2.66699 -18 -8s-15 -17.333 -21 -36l-69 37c10.667 32.667 24.334 55.5 41.001 68.5s35.334 19.5 56.001 19.5c15.333 0 29 -2.5 41 -7.5s23.333 -10.5 34 -16.5l30 -16.5c9.33301 -5 18.666 -7.5 27.999 -7.5c6 0 13.333 3.5 22 10.5
s14.667 19.167 18 36.5z" />
    <glyph glyph-name="odieresis" unicode="&#xf6;" horiz-adv-x="534" 
d="M268 96c79.333 0 119 50 119 150c0 99.333 -39.667 149 -119 149s-119 -49.667 -119 -149c0 -100 39.667 -150 119 -150zM268 -13c-40 0 -75.6689 6.33203 -107.002 18.999s-57.833 30.334 -79.5 53.001s-38.167 50 -49.5 82s-17 67 -17 105
c0 38.667 5.83301 74 17.5 106s28.5 59.333 50.5 82s48.5 40.167 79.5 52.5s66.167 18.5 105.5 18.5c38.667 0 73.334 -6.16699 104.001 -18.5s56.834 -29.666 78.501 -51.999s38.334 -49.5 50.001 -81.5s17.5 -67.667 17.5 -107s-5.83301 -74.833 -17.5 -106.5
s-28.334 -58.834 -50.001 -81.501s-48 -40.167 -79 -52.5s-65.5 -18.5 -103.5 -18.5zM101.998 578.999v124h130v-124h-130zM301.998 578.999v124h130v-124h-130z" />
    <glyph glyph-name="divide" unicode="&#xf7;" horiz-adv-x="518" 
d="M23 296v94h471v-94h-471zM189 490v135h139v-135h-139zM189 63v135h139v-135h-139z" />
    <glyph glyph-name="oslash" unicode="&#xf8;" horiz-adv-x="534" 
d="M106 -31l23.0029 52.001c-36.667 21.333 -64.834 51.5 -84.501 90.5s-29.5 83.833 -29.5 134.5c0 38.667 5.83301 74 17.5 106s28.5 59.333 50.5 82s48.5 40.167 79.5 52.5s66.167 18.5 105.5 18.5c13.333 0 26.5 -0.833008 39.5 -2.5s25.167 -4.16699 36.5 -7.5l23 50
l63 -26l-23 -50c35.333 -21.333 62.666 -51 81.999 -89s29 -82.667 29 -134c0 -39.333 -5.83301 -74.833 -17.5 -106.5s-28.334 -58.834 -50.001 -81.501s-48 -40.167 -79 -52.5s-65.5 -18.5 -103.5 -18.5c-14 0 -27.667 0.833008 -41 2.5s-26 4.16699 -38 7.5l-24 -54z
M236.003 99.001c10 -2 20.667 -3 32 -3c79.333 0 119 50 119 150c0 49.333 -10.333 87 -31 113zM297.003 392.001l-14 2c-4.66699 0.666992 -9.66699 1 -15 1c-79.333 0 -119 -49.667 -119 -149c0 -51.333 10.333 -89.333 31 -114z" />
    <glyph glyph-name="ugrave" unicode="&#xf9;" horiz-adv-x="495" 
d="M346 0v69c-33.333 -54.667 -84.333 -82 -153 -82c-24.667 0 -47.167 4.33301 -67.5 13s-37.833 21 -52.5 37s-26.167 35 -34.5 57s-12.5 46.667 -12.5 74v324h130v-304c0 -61.333 27.667 -92 83 -92c33.333 0 58.5 10.5 75.5 31.5s25.5 47.833 25.5 80.5v284h129v-492
h-123zM90 648l47 82l207 -121l-31 -55z" />
    <glyph glyph-name="uacute" unicode="&#xfa;" horiz-adv-x="495" 
d="M346 0v69c-33.333 -54.667 -84.333 -82 -153 -82c-24.667 0 -47.167 4.33301 -67.5 13s-37.833 21 -52.5 37s-26.167 35 -34.5 57s-12.5 46.667 -12.5 74v324h130v-304c0 -61.333 27.667 -92 83 -92c33.333 0 58.5 10.5 75.5 31.5s25.5 47.833 25.5 80.5v284h129v-492
h-123zM181 554l-31 55l207 121l47 -82z" />
    <glyph glyph-name="ucircumflex" unicode="&#xfb;" horiz-adv-x="495" 
d="M346 0v69c-33.333 -54.667 -84.333 -82 -153 -82c-24.667 0 -47.167 4.33301 -67.5 13s-37.833 21 -52.5 37s-26.167 35 -34.5 57s-12.5 46.667 -12.5 74v324h130v-304c0 -61.333 27.667 -92 83 -92c33.333 0 58.5 10.5 75.5 31.5s25.5 47.833 25.5 80.5v284h129v-492
h-123zM247 679l-135 -118l-46 51l128 134h106l128 -134l-46 -51z" />
    <glyph glyph-name="udieresis" unicode="&#xfc;" horiz-adv-x="495" 
d="M346 0v69c-33.333 -54.667 -84.333 -82 -153 -82c-24.667 0 -47.167 4.33301 -67.5 13s-37.833 21 -52.5 37s-26.167 35 -34.5 57s-12.5 46.667 -12.5 74v324h130v-304c0 -61.333 27.667 -92 83 -92c33.333 0 58.5 10.5 75.5 31.5s25.5 47.833 25.5 80.5v284h129v-492
h-123zM92 579v124h130v-124h-130zM292 579v124h130v-124h-130z" />
    <glyph glyph-name="yacute" unicode="&#xfd;" horiz-adv-x="495" 
d="M339 65c-9.33301 -22 -26.167 -39.168 -50.5 -51.501s-51.833 -18.5 -82.5 -18.5c-26 0 -50 4.16699 -72 12.5s-41 20.333 -57 36s-28.5 34.334 -37.5 56.001s-13.5 46.167 -13.5 73.5v319h130v-300c0 -61.333 27.667 -92 83 -92c30 0 54.167 8.66699 72.5 26
s27.5 39.333 27.5 66v300h130v-505c0 -34.667 -5.83301 -65.667 -17.5 -93s-27.667 -50.333 -48 -69s-44.333 -33 -72 -43s-57.167 -15 -88.5 -15c-72.667 0 -127 18.333 -163 55s-54 87 -54 151h121c0 -29.333 8.5 -52.333 25.5 -69s42.5 -25 76.5 -25
c12 0 23.333 2.5 34 7.5s20.167 12 28.5 21s15 20.167 20 33.5s7.5 28 7.5 44v80zM180.999 553.999l-31 55l207 121l47 -82z" />
    <glyph glyph-name="thorn" unicode="&#xfe;" horiz-adv-x="518" 
d="M258 93c32.667 0 59.333 13.832 80 41.499s31 63.5 31 107.5c0 101.333 -37.333 152 -112 152c-72.667 0 -109 -53.333 -109 -160c0 -20.667 2.66699 -39.667 8 -57s13 -32.166 23 -44.499s21.667 -22 35 -29s28 -10.5 44 -10.5zM25.999 -233.001l-0.000976562 904.997
h128v-241c13.333 26 30.5 44.833 51.5 56.5s48.833 17.5 83.5 17.5c36 0 67.333 -7.16699 94 -21.5s49 -33.666 67 -57.999s31.333 -52.333 40 -84s13 -64.834 13 -99.501c0 -37.333 -4.5 -71.666 -13.5 -102.999s-22.167 -58.166 -39.5 -80.499
s-38.666 -39.833 -63.999 -52.5s-54 -19 -86 -19c-30 0 -58.167 5.83301 -84.5 17.5s-46.833 30.834 -61.5 57.501v-295h-128z" />
    <glyph glyph-name="ydieresis" unicode="&#xff;" horiz-adv-x="495" 
d="M339 65c-9.33301 -22 -26.167 -39.168 -50.5 -51.501s-51.833 -18.5 -82.5 -18.5c-26 0 -50 4.16699 -72 12.5s-41 20.333 -57 36s-28.5 34.334 -37.5 56.001s-13.5 46.167 -13.5 73.5v319h130v-300c0 -61.333 27.667 -92 83 -92c30 0 54.167 8.66699 72.5 26
s27.5 39.333 27.5 66v300h130v-505c0 -34.667 -5.83301 -65.667 -17.5 -93s-27.667 -50.333 -48 -69s-44.333 -33 -72 -43s-57.167 -15 -88.5 -15c-72.667 0 -127 18.333 -163 55s-54 87 -54 151h121c0 -29.333 8.5 -52.333 25.5 -69s42.5 -25 76.5 -25
c12 0 23.333 2.5 34 7.5s20.167 12 28.5 21s15 20.167 20 33.5s7.5 28 7.5 44v80zM81.999 578.999v124h130v-124h-130zM281.999 578.999v124h130v-124h-130z" />
    <glyph glyph-name="Amacron" unicode="&#x100;" horiz-adv-x="638" 
d="M319 515h-1l-85 -264h169zM484 0l-42 137h-245l-47 -137h-147l237 664h161l234 -664h-151zM128 774v91h381v-91h-381z" />
    <glyph glyph-name="amacron" unicode="&#x101;" horiz-adv-x="481" 
d="M325 241c-6.66699 -6.66699 -16.3311 -12.0029 -28.998 -16.0029s-31 -8.33301 -55 -13c-37.333 -7.33301 -63 -16.666 -77 -27.999s-21 -27.666 -21 -48.999c0 -36.667 21 -55 63 -55c16.667 0 32.167 2.83301 46.5 8.5s26.666 13.334 36.999 23.001
s18.666 21 24.999 34s9.5 26.833 9.5 41.5zM334.003 -0.00292969c-4 12.667 -6.66895 27.332 -8.00195 43.999c-15.333 -17.333 -35.666 -31.166 -60.999 -41.499s-54.666 -15.5 -87.999 -15.5c-56.667 0 -98.167 12.5 -124.5 37.5s-39.5 57.5 -39.5 97.5
c0 35.333 5.66699 63.5 17 84.5s27 37.5 47 49.5s43.833 20.833 71.5 26.5s57.834 10.834 90.501 15.501s54.667 10.834 66 18.501s17 20.167 17 37.5c0 16 -7.5 28.5 -22.5 37.5s-35.167 13.5 -60.5 13.5c-30 0 -51.5 -6.66699 -64.5 -20s-21.167 -31 -24.5 -53h-121
c0.666992 25.333 4.83398 48.666 12.501 69.999s20 39.666 37 54.999s39.167 27.166 66.5 35.499s60.666 12.5 99.999 12.5c38.667 0 71.5 -4.33301 98.5 -13s48.667 -21.167 65 -37.5s28.166 -36.666 35.499 -60.999s11 -51.833 11 -82.5v-311h-121zM50.001 601.995v91h381
v-91h-381z" />
    <glyph glyph-name="Abreve" unicode="&#x102;" horiz-adv-x="638" 
d="M319 515h-1l-85 -264h169zM484 0l-42 137h-245l-47 -137h-147l237 664h161l234 -664h-151zM481 918c0 -28 -4.5 -52.333 -13.5 -73s-21 -37.834 -36 -51.501s-32.333 -24 -52 -31s-39.834 -10.5 -60.501 -10.5s-40.834 3.5 -60.501 10.5s-37 17.333 -52 31
s-27 30.834 -36 51.501s-13.5 45 -13.5 73h82c1.33301 -28 8.83301 -49.5 22.5 -64.5s32.834 -22.5 57.501 -22.5s43.834 7.5 57.501 22.5s21.167 36.5 22.5 64.5h82z" />
    <glyph glyph-name="abreve" unicode="&#x103;" horiz-adv-x="481" 
d="M325 241c-6.66699 -6.66699 -16.3311 -12.0029 -28.998 -16.0029s-31 -8.33301 -55 -13c-37.333 -7.33301 -63 -16.666 -77 -27.999s-21 -27.666 -21 -48.999c0 -36.667 21 -55 63 -55c16.667 0 32.167 2.83301 46.5 8.5s26.666 13.334 36.999 23.001
s18.666 21 24.999 34s9.5 26.833 9.5 41.5zM334.003 -0.00292969c-4 12.667 -6.66895 27.332 -8.00195 43.999c-15.333 -17.333 -35.666 -31.166 -60.999 -41.499s-54.666 -15.5 -87.999 -15.5c-56.667 0 -98.167 12.5 -124.5 37.5s-39.5 57.5 -39.5 97.5
c0 35.333 5.66699 63.5 17 84.5s27 37.5 47 49.5s43.833 20.833 71.5 26.5s57.834 10.834 90.501 15.501s54.667 10.834 66 18.501s17 20.167 17 37.5c0 16 -7.5 28.5 -22.5 37.5s-35.167 13.5 -60.5 13.5c-30 0 -51.5 -6.66699 -64.5 -20s-21.167 -31 -24.5 -53h-121
c0.666992 25.333 4.83398 48.666 12.501 69.999s20 39.666 37 54.999s39.167 27.166 66.5 35.499s60.666 12.5 99.999 12.5c38.667 0 71.5 -4.33301 98.5 -13s48.667 -21.167 65 -37.5s28.166 -36.666 35.499 -60.999s11 -51.833 11 -82.5v-311h-121zM402.001 745.995
c0 -28 -4.5 -52.333 -13.5 -73s-21 -37.834 -36 -51.501s-32.333 -24 -52 -31s-39.834 -10.5 -60.501 -10.5s-40.834 3.5 -60.501 10.5s-37 17.333 -52 31s-27 30.834 -36 51.501s-13.5 45 -13.5 73h82c1.33301 -28 8.83301 -49.5 22.5 -64.5s32.834 -22.5 57.501 -22.5
s43.834 7.5 57.501 22.5s21.167 36.5 22.5 64.5h82z" />
    <glyph glyph-name="Aogonek" unicode="&#x104;" horiz-adv-x="638" 
d="M635 -207c-9.33301 -7.33301 -22.333 -13.502 -39 -18.502s-38.667 -7.5 -66 -7.5c-36 0 -63.333 7.66699 -82 23s-28 36 -28 62c0 32.667 15.667 61.5 47 86.5s73 45.5 125 61.5h-108l-42 137h-245l-47 -137h-147l237 664h161l234 -664
c-25.333 -11.333 -45.5 -21.166 -60.5 -29.499s-26.333 -16 -34 -23s-12.667 -13.667 -15 -20s-3.5 -12.833 -3.5 -19.5c0 -11.333 5.83301 -19.666 17.5 -24.999s27.167 -8 46.5 -8c9.33301 0 18.333 0.833008 27 2.5s16 3.5 22 5.5v-90zM319 514.998h-1l-85 -264h169z" />
    <glyph glyph-name="aogonek" unicode="&#x105;" horiz-adv-x="481" 
d="M455 -207c-9.33301 -7.33301 -22.335 -13.5039 -39.002 -18.5039s-38.667 -7.5 -66 -7.5c-36 0 -63.333 7.66699 -82 23s-28 36 -28 62c0 32.667 15.667 61.5 47 86.5s73 45.5 125 61.5h-78c-4 12.667 -6.66699 27.334 -8 44.001
c-15.333 -17.333 -35.666 -31.166 -60.999 -41.499s-54.666 -15.5 -87.999 -15.5c-56.667 0 -98.167 12.5 -124.5 37.5s-39.5 57.5 -39.5 97.5c0 35.333 5.66699 63.5 17 84.5s27 37.5 47 49.5s43.833 20.833 71.5 26.5s57.834 10.834 90.501 15.501
s54.667 10.834 66 18.501s17 20.167 17 37.5c0 16 -7.5 28.5 -22.5 37.5s-35.167 13.5 -60.5 13.5c-30 0 -51.5 -6.66699 -64.5 -20s-21.167 -31 -24.5 -53h-121c0.666992 25.333 4.83398 48.666 12.501 69.999s20 39.666 37 54.999s39.167 27.166 66.5 35.499
s60.666 12.5 99.999 12.5c38.667 0 71.5 -4.33301 98.5 -13s48.667 -21.167 65 -37.5s28.166 -36.666 35.499 -60.999s11 -51.833 11 -82.5v-311c-25.333 -11.333 -45.5 -21.166 -60.5 -29.499s-26.333 -16 -34 -23s-12.667 -13.667 -15 -20s-3.5 -12.833 -3.5 -19.5
c0 -11.333 5.83301 -19.666 17.5 -24.999s27.167 -8 46.5 -8c9.33301 0 18.333 0.833008 27 2.5s16 3.5 22 5.5v-90zM324.998 240.996c-6.66699 -6.66699 -16.3311 -12.0029 -28.998 -16.0029s-31 -8.33301 -55 -13c-37.333 -7.33301 -63 -16.666 -77 -27.999
s-21 -27.666 -21 -48.999c0 -36.667 21 -55 63 -55c16.667 0 32.167 2.83301 46.5 8.5s26.666 13.334 36.999 23.001s18.666 21 24.999 34s9.5 26.833 9.5 41.5z" />
    <glyph glyph-name="Cacute" unicode="&#x106;" horiz-adv-x="608" 
d="M608 228c-7.33301 -38 -18.9971 -72.333 -34.9971 -103s-36.167 -57 -60.5 -79s-52.5 -39 -84.5 -51s-67.333 -18 -106 -18c-43.333 0 -83.833 7.33301 -121.5 22s-70.167 36.667 -97.5 66s-48.833 65.5 -64.5 108.5s-23.5 93.167 -23.5 150.5
c0 56 7.16699 106.5 21.5 151.5s34.833 83 61.5 114s59.167 54.833 97.5 71.5s81.166 25 128.499 25c41.333 0 78.833 -6.16699 112.5 -18.5s62.667 -29.333 87 -51s43.666 -47.167 57.999 -76.5s23.166 -60.666 26.499 -93.999h-139c-9.33301 38 -27.333 67.5 -54 88.5
s-56.667 31.5 -90 31.5c-58 0 -100.667 -20.833 -128 -62.5s-41 -98.834 -41 -171.501c0 -74 13.5 -131.5 40.5 -172.5s67.5 -61.5 121.5 -61.5c41.333 0 74.5 11.167 99.5 33.5s42.167 54.5 51.5 96.5h139zM238.003 726l-31 55l207 121l47 -82z" />
    <glyph glyph-name="cacute" unicode="&#x107;" horiz-adv-x="476" 
d="M469 178c-3.33301 -28.667 -11.499 -54.665 -24.499 -77.998s-29.5 -43.333 -49.5 -60s-42.833 -29.667 -68.5 -39s-53.5 -14 -83.5 -14c-33.333 0 -63.833 5.5 -91.5 16.5s-51.5 27.667 -71.5 50s-35.5 50 -46.5 83s-16.5 71.5 -16.5 115.5s5.5 82 16.5 114
s26.5 58.167 46.5 78.5s44.167 35.5 72.5 45.5s59.833 15 94.5 15c32 0 61.167 -4.33301 87.5 -13s49.333 -21.334 69 -38.001s35.167 -36.667 46.5 -60s18 -49.333 20 -78h-131c-3.33301 25.333 -13.5 45.166 -30.5 59.499s-37.833 21.5 -62.5 21.5
c-14 0 -27 -2.33301 -39 -7s-22.5 -12.5 -31.5 -23.5s-16.167 -25.667 -21.5 -44s-8 -40.833 -8 -67.5c0 -54 9.66699 -94 29 -120s41.666 -39 66.999 -39s47 7 65 21s28.333 34.333 31 61h131zM172.001 554.002l-31 55l207 121l47 -82z" />
    <glyph glyph-name="Cdotaccent" unicode="&#x10a;" horiz-adv-x="608" 
d="M608 228c-7.33301 -38 -18.9971 -72.333 -34.9971 -103s-36.167 -57 -60.5 -79s-52.5 -39 -84.5 -51s-67.333 -18 -106 -18c-43.333 0 -83.833 7.33301 -121.5 22s-70.167 36.667 -97.5 66s-48.833 65.5 -64.5 108.5s-23.5 93.167 -23.5 150.5
c0 56 7.16699 106.5 21.5 151.5s34.833 83 61.5 114s59.167 54.833 97.5 71.5s81.166 25 128.499 25c41.333 0 78.833 -6.16699 112.5 -18.5s62.667 -29.333 87 -51s43.666 -47.167 57.999 -76.5s23.166 -60.666 26.499 -93.999h-139c-9.33301 38 -27.333 67.5 -54 88.5
s-56.667 31.5 -90 31.5c-58 0 -100.667 -20.833 -128 -62.5s-41 -98.834 -41 -171.501c0 -74 13.5 -131.5 40.5 -172.5s67.5 -61.5 121.5 -61.5c41.333 0 74.5 11.167 99.5 33.5s42.167 54.5 51.5 96.5h139zM253.003 751v124h130v-124h-130z" />
    <glyph glyph-name="cdotaccent" unicode="&#x10b;" horiz-adv-x="476" 
d="M469 178c-3.33301 -28.667 -11.499 -54.665 -24.499 -77.998s-29.5 -43.333 -49.5 -60s-42.833 -29.667 -68.5 -39s-53.5 -14 -83.5 -14c-33.333 0 -63.833 5.5 -91.5 16.5s-51.5 27.667 -71.5 50s-35.5 50 -46.5 83s-16.5 71.5 -16.5 115.5s5.5 82 16.5 114
s26.5 58.167 46.5 78.5s44.167 35.5 72.5 45.5s59.833 15 94.5 15c32 0 61.167 -4.33301 87.5 -13s49.333 -21.334 69 -38.001s35.167 -36.667 46.5 -60s18 -49.333 20 -78h-131c-3.33301 25.333 -13.5 45.166 -30.5 59.499s-37.833 21.5 -62.5 21.5
c-14 0 -27 -2.33301 -39 -7s-22.5 -12.5 -31.5 -23.5s-16.167 -25.667 -21.5 -44s-8 -40.833 -8 -67.5c0 -54 9.66699 -94 29 -120s41.666 -39 66.999 -39s47 7 65 21s28.333 34.333 31 61h131zM179.001 579.002v124h130v-124h-130z" />
    <glyph glyph-name="Ccaron" unicode="&#x10c;" horiz-adv-x="608" 
d="M608 228c-7.33301 -38 -18.9971 -72.333 -34.9971 -103s-36.167 -57 -60.5 -79s-52.5 -39 -84.5 -51s-67.333 -18 -106 -18c-43.333 0 -83.833 7.33301 -121.5 22s-70.167 36.667 -97.5 66s-48.833 65.5 -64.5 108.5s-23.5 93.167 -23.5 150.5
c0 56 7.16699 106.5 21.5 151.5s34.833 83 61.5 114s59.167 54.833 97.5 71.5s81.166 25 128.499 25c41.333 0 78.833 -6.16699 112.5 -18.5s62.667 -29.333 87 -51s43.666 -47.167 57.999 -76.5s23.166 -60.666 26.499 -93.999h-139c-9.33301 38 -27.333 67.5 -54 88.5
s-56.667 31.5 -90 31.5c-58 0 -100.667 -20.833 -128 -62.5s-41 -98.834 -41 -171.501c0 -74 13.5 -131.5 40.5 -172.5s67.5 -61.5 121.5 -61.5c41.333 0 74.5 11.167 99.5 33.5s42.167 54.5 51.5 96.5h139zM266.003 733l-128 134l46 51l135 -118l135 118l46 -51l-128 -134
h-106z" />
    <glyph glyph-name="ccaron" unicode="&#x10d;" horiz-adv-x="476" 
d="M469 178c-3.33301 -28.667 -11.499 -54.665 -24.499 -77.998s-29.5 -43.333 -49.5 -60s-42.833 -29.667 -68.5 -39s-53.5 -14 -83.5 -14c-33.333 0 -63.833 5.5 -91.5 16.5s-51.5 27.667 -71.5 50s-35.5 50 -46.5 83s-16.5 71.5 -16.5 115.5s5.5 82 16.5 114
s26.5 58.167 46.5 78.5s44.167 35.5 72.5 45.5s59.833 15 94.5 15c32 0 61.167 -4.33301 87.5 -13s49.333 -21.334 69 -38.001s35.167 -36.667 46.5 -60s18 -49.333 20 -78h-131c-3.33301 25.333 -13.5 45.166 -30.5 59.499s-37.833 21.5 -62.5 21.5
c-14 0 -27 -2.33301 -39 -7s-22.5 -12.5 -31.5 -23.5s-16.167 -25.667 -21.5 -44s-8 -40.833 -8 -67.5c0 -54 9.66699 -94 29 -120s41.666 -39 66.999 -39s47 7 65 21s28.333 34.333 31 61h131zM185.001 561.002l-128 134l46 51l135 -118l135 118l46 -51l-128 -134h-106z
" />
    <glyph glyph-name="Dcaron" unicode="&#x10e;" horiz-adv-x="602" 
d="M273 113c60.667 0 104.666 18.833 131.999 56.5s41 94.167 41 169.5c0 37.333 -3.33301 69.333 -10 96s-17.5 48.5 -32.5 65.5s-34.167 29.333 -57.5 37s-51.666 11.5 -84.999 11.5h-103v-436h115zM22.999 0l-0.000976562 664.002h257c44.667 0 86 -7.5 124 -22.5
s70.5 -36.5 97.5 -64.5s48.167 -62 63.5 -102s23 -85.333 23 -136s-6.83301 -96.834 -20.5 -138.501s-33.167 -77.334 -58.5 -107.001s-55.666 -52.667 -90.999 -69s-74.333 -24.5 -117 -24.5h-278zM209.998 733.002l-128 134l46 51l135 -118l135 118l46 -51l-128 -134h-106
z" />
    <glyph glyph-name="dcaron" unicode="&#x10f;" horiz-adv-x="656" 
d="M259 93c31.333 0 57.499 13 78.499 39s31.5 60 31.5 102c0 106.667 -36.333 160 -109 160c-74.667 0 -112 -50.667 -112 -152c0 -44 10.333 -79.833 31 -107.5s47.334 -41.5 80.001 -41.5zM366.999 0l-1 59.999c-30 -48.667 -75.667 -73 -137 -73c-31.333 0 -60 6 -86 18
s-48.333 29.333 -67 52s-33.334 50.334 -44.001 83.001s-16 69.667 -16 111c0 37.333 4.5 71.5 13.5 102.5s22.167 57.833 39.5 80.5s38.5 40.167 63.5 52.5s53.5 18.5 85.5 18.5c60.667 0 109.334 -25.667 146.001 -77v244h128v-672h-125zM517.999 449.999
c25.333 6.66699 44.334 18 57.001 34s19.334 40 20.001 72h-77v135h138v-102c0 -28 -2.33301 -52.667 -7 -74s-12.334 -39.5 -23.001 -54.5s-24.834 -27.5 -42.501 -37.5s-39.5 -17.667 -65.5 -23v50z" />
    <glyph glyph-name="Dcroat" unicode="&#x110;" horiz-adv-x="602" 
d="M23 0l-0.000976562 282.002h-23v99h23v283h257c44.667 0 86 -7.5 124 -22.5s70.5 -36.5 97.5 -64.5s48.167 -62 63.5 -102s23 -85.333 23 -136s-6.83301 -96.834 -20.5 -138.501s-33.167 -77.334 -58.5 -107.001s-55.666 -52.667 -90.999 -69s-74.333 -24.5 -117 -24.5
h-278zM272.999 113.002c60.667 0 104.666 18.833 131.999 56.5s41 94.167 41 169.5c0 37.333 -3.33301 69.333 -10 96s-17.5 48.5 -32.5 65.5s-34.167 29.333 -57.5 37s-51.666 11.5 -84.999 11.5h-103v-168h107v-99h-107v-169h115z" />
    <glyph glyph-name="dcroat" unicode="&#x111;" horiz-adv-x="518" 
d="M367 0l-1 59.999c-30 -48.667 -75.667 -73 -137 -73c-31.333 0 -60 6 -86 18s-48.333 29.333 -67 52s-33.334 50.334 -44.001 83.001s-16 69.667 -16 111c0 37.333 4.5 71.5 13.5 102.5s22.167 57.833 39.5 80.5s38.5 40.167 63.5 52.5s53.5 18.5 85.5 18.5
c60.667 0 109.334 -25.667 146.001 -77v105h-167v91h167v48h128v-48h26v-91h-26v-533h-125zM259 92.999c31.333 0 57.499 13 78.499 39s31.5 60 31.5 102c0 106.667 -36.333 160 -109 160c-74.667 0 -112 -50.667 -112 -152c0 -44 10.333 -79.833 31 -107.5
s47.334 -41.5 80.001 -41.5z" />
    <glyph glyph-name="Emacron" unicode="&#x112;" horiz-adv-x="527" 
d="M23 0v664h488v-116h-353v-142h325v-117h-325v-171h369v-118h-504zM73 774v91h381v-91h-381z" />
    <glyph glyph-name="emacron" unicode="&#x113;" 
d="M350 294c-0.666992 18 -3.83301 33.833 -9.5 47.5s-13.167 25 -22.5 34s-20 15.667 -32 20s-24.333 6.5 -37 6.5c-26 0 -48.5 -9.5 -67.5 -28.5s-29.833 -45.5 -32.5 -79.5h201zM145.001 212c2 -37.333 12.835 -67 32.502 -89s45.5 -33 77.5 -33
c21.333 0 40.166 4.83301 56.499 14.5s26.833 23.167 31.5 40.5h134c-15.333 -50.667 -42 -89.667 -80 -117s-83.333 -41 -136 -41c-164 0 -246 89.333 -246 268c0 38 5.33301 72.333 16 103s26.167 57 46.5 79s45.166 38.833 74.499 50.5s63 17.5 101 17.5
c76 0 133.5 -24.333 172.5 -73s58.5 -122 58.5 -220h-339zM58.0029 602v91h381v-91h-381z" />
    <glyph glyph-name="Ebreve" unicode="&#x114;" horiz-adv-x="527" 
d="M23 0v664h488v-116h-353v-142h325v-117h-325v-171h369v-118h-504zM425 918c0 -28 -4.5 -52.333 -13.5 -73s-21 -37.834 -36 -51.501s-32.333 -24 -52 -31s-39.834 -10.5 -60.501 -10.5s-40.834 3.5 -60.501 10.5s-37 17.333 -52 31s-27 30.834 -36 51.501
s-13.5 45 -13.5 73h82c1.33301 -28 8.83301 -49.5 22.5 -64.5s32.834 -22.5 57.501 -22.5s43.834 7.5 57.501 22.5s21.167 36.5 22.5 64.5h82z" />
    <glyph glyph-name="ebreve" unicode="&#x115;" 
d="M350 294c-0.666992 18 -3.83301 33.833 -9.5 47.5s-13.167 25 -22.5 34s-20 15.667 -32 20s-24.333 6.5 -37 6.5c-26 0 -48.5 -9.5 -67.5 -28.5s-29.833 -45.5 -32.5 -79.5h201zM145.001 212c2 -37.333 12.835 -67 32.502 -89s45.5 -33 77.5 -33
c21.333 0 40.166 4.83301 56.499 14.5s26.833 23.167 31.5 40.5h134c-15.333 -50.667 -42 -89.667 -80 -117s-83.333 -41 -136 -41c-164 0 -246 89.333 -246 268c0 38 5.33301 72.333 16 103s26.167 57 46.5 79s45.166 38.833 74.499 50.5s63 17.5 101 17.5
c76 0 133.5 -24.333 172.5 -73s58.5 -122 58.5 -220h-339zM411.003 746c0 -28 -4.5 -52.333 -13.5 -73s-21 -37.834 -36 -51.501s-32.333 -24 -52 -31s-39.834 -10.5 -60.501 -10.5s-40.834 3.5 -60.501 10.5s-37 17.333 -52 31s-27 30.834 -36 51.501s-13.5 45 -13.5 73h82
c1.33301 -28 8.83301 -49.5 22.5 -64.5s32.834 -22.5 57.501 -22.5s43.834 7.5 57.501 22.5s21.167 36.5 22.5 64.5h82z" />
    <glyph glyph-name="Edotaccent" unicode="&#x116;" horiz-adv-x="527" 
d="M23 0v664h488v-116h-353v-142h325v-117h-325v-171h369v-118h-504zM208 751v124h130v-124h-130z" />
    <glyph glyph-name="edotaccent" unicode="&#x117;" 
d="M350 294c-0.666992 18 -3.83301 33.833 -9.5 47.5s-13.167 25 -22.5 34s-20 15.667 -32 20s-24.333 6.5 -37 6.5c-26 0 -48.5 -9.5 -67.5 -28.5s-29.833 -45.5 -32.5 -79.5h201zM145.001 212c2 -37.333 12.835 -67 32.502 -89s45.5 -33 77.5 -33
c21.333 0 40.166 4.83301 56.499 14.5s26.833 23.167 31.5 40.5h134c-15.333 -50.667 -42 -89.667 -80 -117s-83.333 -41 -136 -41c-164 0 -246 89.333 -246 268c0 38 5.33301 72.333 16 103s26.167 57 46.5 79s45.166 38.833 74.499 50.5s63 17.5 101 17.5
c76 0 133.5 -24.333 172.5 -73s58.5 -122 58.5 -220h-339zM189.003 579v124h130v-124h-130z" />
    <glyph glyph-name="Eogonek" unicode="&#x118;" horiz-adv-x="527" 
d="M527 -207c-9.33301 -7.33301 -22.333 -13.502 -39 -18.502s-38.667 -7.5 -66 -7.5c-36 0 -63.333 7.66699 -82 23s-28 36 -28 62c0 32.667 15.667 61.5 47 86.5s73 45.5 125 61.5h-461v664h488v-116h-353v-142h325v-117h-325v-171h369v-118
c-25.333 -11.333 -45.5 -21.166 -60.5 -29.499s-26.333 -16 -34 -23s-12.667 -13.667 -15 -20s-3.5 -12.833 -3.5 -19.5c0 -11.333 5.83301 -19.666 17.5 -24.999s27.167 -8 46.5 -8c9.33301 0 18.333 0.833008 27 2.5s16 3.5 22 5.5v-90z" />
    <glyph glyph-name="eogonek" unicode="&#x119;" 
d="M343 -207c-9.33301 -7.33301 -22.3311 -13.5039 -38.998 -18.5039s-38.667 -7.5 -66 -7.5c-36 0 -63.333 7.66699 -82 23s-28 36 -28 62c0 28.667 11.833 54.334 35.5 77.001s56.5 42 98.5 58h-1c-164 0 -246 89.333 -246 268c0 38 5.33301 72.333 16 103
s26.167 57 46.5 79s45.166 38.833 74.499 50.5s63 17.5 101 17.5c76 0 133.5 -24.333 172.5 -73s58.5 -122 58.5 -220h-339c2 -37.333 12.833 -67 32.5 -89s45.5 -33 77.5 -33c21.333 0 40.166 4.83301 56.499 14.5s26.833 23.167 31.5 40.5h134
c-11.333 -36.667 -28.5 -67.167 -51.5 -91.5s-50.5 -42.166 -82.5 -53.499c-25.333 -11.333 -45.5 -21.166 -60.5 -29.499s-26.333 -16 -34 -23s-12.667 -13.667 -15 -20s-3.5 -12.833 -3.5 -19.5c0 -11.333 5.83301 -19.666 17.5 -24.999s27.167 -8 46.5 -8
c9.33301 0 18.333 0.833008 27 2.5s16 3.5 22 5.5v-90zM350.002 293.996c-0.666992 18 -3.83301 33.833 -9.5 47.5s-13.167 25 -22.5 34s-20 15.667 -32 20s-24.333 6.5 -37 6.5c-26 0 -48.5 -9.5 -67.5 -28.5s-29.833 -45.5 -32.5 -79.5h201z" />
    <glyph glyph-name="Ecaron" unicode="&#x11a;" horiz-adv-x="527" 
d="M23 0v664h488v-116h-353v-142h325v-117h-325v-171h369v-118h-504zM210 733l-128 134l46 51l135 -118l135 118l46 -51l-128 -134h-106z" />
    <glyph glyph-name="ecaron" unicode="&#x11b;" 
d="M350 294c-0.666992 18 -3.83301 33.833 -9.5 47.5s-13.167 25 -22.5 34s-20 15.667 -32 20s-24.333 6.5 -37 6.5c-26 0 -48.5 -9.5 -67.5 -28.5s-29.833 -45.5 -32.5 -79.5h201zM145.001 212c2 -37.333 12.835 -67 32.502 -89s45.5 -33 77.5 -33
c21.333 0 40.166 4.83301 56.499 14.5s26.833 23.167 31.5 40.5h134c-15.333 -50.667 -42 -89.667 -80 -117s-83.333 -41 -136 -41c-164 0 -246 89.333 -246 268c0 38 5.33301 72.333 16 103s26.167 57 46.5 79s45.166 38.833 74.499 50.5s63 17.5 101 17.5
c76 0 133.5 -24.333 172.5 -73s58.5 -122 58.5 -220h-339zM196.003 561l-128 134l46 51l135 -118l135 118l46 -51l-128 -134h-106z" />
    <glyph glyph-name="Gbreve" unicode="&#x11e;" horiz-adv-x="659" 
d="M518 0l-3.00195 66c-16 -28 -41.667 -49.833 -77 -65.5s-76 -23.5 -122 -23.5s-87.5 9.83301 -124.5 29.5s-68.667 46 -95 79s-46.5 71 -60.5 114s-21 87.5 -21 133.5c0 48.667 7 94.5 21 137.5s34.667 80.5 62 112.5s61.333 57.167 102 75.5s88 27.5 142 27.5
c39.333 0 76.166 -5.66699 110.499 -17s64.333 -27 90 -47s46.334 -43.833 62.001 -71.5s24.834 -58.167 27.501 -91.5h-140c-2 15.333 -7.33301 29.833 -16 43.5s-19.667 25.5 -33 35.5s-28.833 18 -46.5 24s-35.834 9 -54.501 9c-56 0 -100.833 -20.833 -134.5 -62.5
s-50.5 -102.167 -50.5 -181.5c0 -27.333 3.5 -54.833 10.5 -82.5s18 -52.667 33 -75s34.167 -40.5 57.5 -54.5s51 -21 83 -21c22.667 0 43.834 4 63.501 12s36.834 19 51.501 33s26.167 30.167 34.5 48.5s12.5 37.833 12.5 58.5h-147v111h277v-357h-115zM500.998 918
c0 -28 -4.5 -52.333 -13.5 -73s-21 -37.834 -36 -51.501s-32.333 -24 -52 -31s-39.834 -10.5 -60.501 -10.5s-40.834 3.5 -60.501 10.5s-37 17.333 -52 31s-27 30.834 -36 51.501s-13.5 45 -13.5 73h82c1.33301 -28 8.83301 -49.5 22.5 -64.5s32.834 -22.5 57.501 -22.5
s43.834 7.5 57.501 22.5s21.167 36.5 22.5 64.5h82z" />
    <glyph glyph-name="gbreve" unicode="&#x11f;" horiz-adv-x="525" 
d="M262 98c32 0 58.5 12.167 79.5 36.5s31.5 57.5 31.5 99.5c0 105.333 -37 158 -111 158s-111 -50 -111 -150c0 -44 10.5 -79 31.5 -105s47.5 -39 79.5 -39zM369 66c-9.33301 -22 -26.166 -39.167 -50.499 -51.5s-52.5 -18.5 -84.5 -18.5
c-40.667 0 -74.834 7.16699 -102.501 21.5s-50 33.166 -67 56.499s-29.333 50.333 -37 81s-11.5 62 -11.5 94c0 38 5.66699 72.833 17 104.5s26.666 58.667 45.999 81s42 39.666 68 51.999s54 18.5 84 18.5c61.333 0 107.333 -24.667 138 -74v61h130v-497
c0 -37.333 -6.33301 -70.166 -19 -98.499s-30 -52 -52 -71s-48 -33.5 -78 -43.5s-62 -15 -96 -15s-65.667 4.83301 -95 14.5s-54.5 23.334 -75.5 41.001s-37.5 39.167 -49.5 64.5s-18 54 -18 86h121c0 -30 9.83301 -53.167 29.5 -69.5s45.834 -24.5 78.501 -24.5
c34.667 0 64 9.5 88 28.5s36 44.833 36 77.5v81zM407 746c0 -28 -4.5 -52.333 -13.5 -73s-21 -37.834 -36 -51.501s-32.333 -24 -52 -31s-39.834 -10.5 -60.501 -10.5s-40.834 3.5 -60.501 10.5s-37 17.333 -52 31s-27 30.834 -36 51.501s-13.5 45 -13.5 73h82
c1.33301 -28 8.83301 -49.5 22.5 -64.5s32.834 -22.5 57.501 -22.5s43.834 7.5 57.501 22.5s21.167 36.5 22.5 64.5h82z" />
    <glyph glyph-name="Gdotaccent" unicode="&#x120;" horiz-adv-x="659" 
d="M518 0l-3.00195 66c-16 -28 -41.667 -49.833 -77 -65.5s-76 -23.5 -122 -23.5s-87.5 9.83301 -124.5 29.5s-68.667 46 -95 79s-46.5 71 -60.5 114s-21 87.5 -21 133.5c0 48.667 7 94.5 21 137.5s34.667 80.5 62 112.5s61.333 57.167 102 75.5s88 27.5 142 27.5
c39.333 0 76.166 -5.66699 110.499 -17s64.333 -27 90 -47s46.334 -43.833 62.001 -71.5s24.834 -58.167 27.501 -91.5h-140c-2 15.333 -7.33301 29.833 -16 43.5s-19.667 25.5 -33 35.5s-28.833 18 -46.5 24s-35.834 9 -54.501 9c-56 0 -100.833 -20.833 -134.5 -62.5
s-50.5 -102.167 -50.5 -181.5c0 -27.333 3.5 -54.833 10.5 -82.5s18 -52.667 33 -75s34.167 -40.5 57.5 -54.5s51 -21 83 -21c22.667 0 43.834 4 63.501 12s36.834 19 51.501 33s26.167 30.167 34.5 48.5s12.5 37.833 12.5 58.5h-147v111h277v-357h-115zM273.998 751v124
h130v-124h-130z" />
    <glyph glyph-name="gdotaccent" unicode="&#x121;" horiz-adv-x="525" 
d="M262 98c32 0 58.5 12.167 79.5 36.5s31.5 57.5 31.5 99.5c0 105.333 -37 158 -111 158s-111 -50 -111 -150c0 -44 10.5 -79 31.5 -105s47.5 -39 79.5 -39zM369 66c-9.33301 -22 -26.166 -39.167 -50.499 -51.5s-52.5 -18.5 -84.5 -18.5
c-40.667 0 -74.834 7.16699 -102.501 21.5s-50 33.166 -67 56.499s-29.333 50.333 -37 81s-11.5 62 -11.5 94c0 38 5.66699 72.833 17 104.5s26.666 58.667 45.999 81s42 39.666 68 51.999s54 18.5 84 18.5c61.333 0 107.333 -24.667 138 -74v61h130v-497
c0 -37.333 -6.33301 -70.166 -19 -98.499s-30 -52 -52 -71s-48 -33.5 -78 -43.5s-62 -15 -96 -15s-65.667 4.83301 -95 14.5s-54.5 23.334 -75.5 41.001s-37.5 39.167 -49.5 64.5s-18 54 -18 86h121c0 -30 9.83301 -53.167 29.5 -69.5s45.834 -24.5 78.501 -24.5
c34.667 0 64 9.5 88 28.5s36 44.833 36 77.5v81zM185 579v124h130v-124h-130z" />
    <glyph glyph-name="Gcommaaccent" unicode="&#x122;" horiz-adv-x="659" 
d="M518 0l-3.00195 66c-16 -28 -41.667 -49.833 -77 -65.5s-76 -23.5 -122 -23.5s-87.5 9.83301 -124.5 29.5s-68.667 46 -95 79s-46.5 71 -60.5 114s-21 87.5 -21 133.5c0 48.667 7 94.5 21 137.5s34.667 80.5 62 112.5s61.333 57.167 102 75.5s88 27.5 142 27.5
c39.333 0 76.166 -5.66699 110.499 -17s64.333 -27 90 -47s46.334 -43.833 62.001 -71.5s24.834 -58.167 27.501 -91.5h-140c-2 15.333 -7.33301 29.833 -16 43.5s-19.667 25.5 -33 35.5s-28.833 18 -46.5 24s-35.834 9 -54.501 9c-56 0 -100.833 -20.833 -134.5 -62.5
s-50.5 -102.167 -50.5 -181.5c0 -27.333 3.5 -54.833 10.5 -82.5s18 -52.667 33 -75s34.167 -40.5 57.5 -54.5s51 -21 83 -21c22.667 0 43.834 4 63.501 12s36.834 19 51.501 33s26.167 30.167 34.5 48.5s12.5 37.833 12.5 58.5h-147v111h277v-357h-115zM271.998 -190
c41.333 3.33301 62.668 25 64.001 65h-64v82h115v-54c0 -18 -1.83301 -34.833 -5.5 -50.5s-9.83398 -29.5 -18.501 -41.5s-20.5 -21.833 -35.5 -29.5s-33.5 -12.5 -55.5 -14.5v43z" />
    <glyph glyph-name="gcommaaccent" unicode="&#x123;" horiz-adv-x="525" 
d="M262 98c32 0 58.5 12.167 79.5 36.5s31.5 57.5 31.5 99.5c0 105.333 -37 158 -111 158s-111 -50 -111 -150c0 -44 10.5 -79 31.5 -105s47.5 -39 79.5 -39zM369 66c-9.33301 -22 -26.166 -39.167 -50.499 -51.5s-52.5 -18.5 -84.5 -18.5
c-40.667 0 -74.834 7.16699 -102.501 21.5s-50 33.166 -67 56.499s-29.333 50.333 -37 81s-11.5 62 -11.5 94c0 38 5.66699 72.833 17 104.5s26.666 58.667 45.999 81s42 39.666 68 51.999s54 18.5 84 18.5c61.333 0 107.333 -24.667 138 -74v61h130v-497
c0 -37.333 -6.33301 -70.166 -19 -98.499s-30 -52 -52 -71s-48 -33.5 -78 -43.5s-62 -15 -96 -15s-65.667 4.83301 -95 14.5s-54.5 23.334 -75.5 41.001s-37.5 39.167 -49.5 64.5s-18 54 -18 86h121c0 -30 9.83301 -53.167 29.5 -69.5s45.834 -24.5 78.501 -24.5
c34.667 0 64 9.5 88 28.5s36 44.833 36 77.5v81zM320.003 685.988c-41.3311 -3.33301 -62.6641 -24.998 -63.9971 -64.9951h63.9961v-81.9951h-114.993v53.9971c0 17.999 1.83301 34.8311 5.5 50.4971c3.66699 15.665 9.83301 29.4971 18.499 41.4961
s20.499 21.832 35.498 29.498c14.999 7.66699 33.498 12.5 55.4971 14.499v-42.9971z" />
    <glyph glyph-name="Hbar" unicode="&#x126;" horiz-adv-x="582" 
d="M421 0v298h-259v-298h-139v664h139v-80h259v80h140v-664h-140zM421 414v79h-259v-79h259z" />
    <glyph glyph-name="hbar" unicode="&#x127;" 
d="M156 538l-0.00195312 -110.002c4.66699 10.667 11.834 20.834 21.501 30.501s20.834 17.834 33.501 24.501s26.667 12 42 16s31.333 6 48 6c50.667 0 91.834 -13.833 123.501 -41.5s47.5 -66.167 47.5 -115.5v-348h-131v305c0 37.333 -6.5 62.833 -19.5 76.5
s-34.5 20.5 -64.5 20.5c-16 0 -30.333 -3.16699 -43 -9.5s-23.334 -15 -32.001 -26s-15.167 -23.667 -19.5 -38s-6.5 -29.833 -6.5 -46.5v-282h-130v538h-26v91h26v43h130v-43h165v-91h-165z" />
    <glyph glyph-name="Itilde" unicode="&#x128;" horiz-adv-x="184" 
d="M23 0v664h139v-664h-139zM266 846c-11.333 -36 -27.001 -61.335 -47.001 -76.002s-40.667 -22 -62 -22c-12.667 0 -24.5 2.33301 -35.5 7s-21.5 9.83398 -31.5 15.501s-20 10.834 -30 15.501s-20.333 7 -31 7c-4 0 -10 -2.66699 -18 -8s-15 -17.333 -21 -36l-69 37
c10.667 32.667 24.334 55.5 41.001 68.5s35.334 19.5 56.001 19.5c15.333 0 29 -2.5 41 -7.5s23.333 -10.5 34 -16.5l30 -16.5c9.33301 -5 18.666 -7.5 27.999 -7.5c6 0 13.333 3.5 22 10.5s14.667 19.167 18 36.5z" />
    <glyph glyph-name="itilde" unicode="&#x129;" horiz-adv-x="268" 
d="M69 0v492h130v-492h-130zM308 674c-11.333 -36 -27.001 -61.335 -47.001 -76.002s-40.667 -22 -62 -22c-12.667 0 -24.5 2.33301 -35.5 7s-21.5 9.83398 -31.5 15.501s-20 10.834 -30 15.501s-20.333 7 -31 7c-4 0 -10 -2.66699 -18 -8s-15 -17.333 -21 -36l-69 37
c10.667 32.667 24.334 55.5 41.001 68.5s35.334 19.5 56.001 19.5c15.333 0 29 -2.5 41 -7.5s23.333 -10.5 34 -16.5l30 -16.5c9.33301 -5 18.666 -7.5 27.999 -7.5c6 0 13.333 3.5 22 10.5s14.667 19.167 18 36.5z" />
    <glyph glyph-name="uni012A" unicode="&#x12a;" horiz-adv-x="184" 
d="M23 0v664h139v-664h-139zM-97 774v91h381v-91h-381z" />
    <glyph glyph-name="imacron" unicode="&#x12b;" horiz-adv-x="268" 
d="M69 0v492h130v-492h-130zM-55 602v91h381v-91h-381z" />
    <glyph glyph-name="Ibreve" unicode="&#x12c;" horiz-adv-x="184" 
d="M23 0v664h139v-664h-139zM255 918c0 -28 -4.5 -52.333 -13.5 -73s-21 -37.834 -36 -51.501s-32.333 -24 -52 -31s-39.834 -10.5 -60.501 -10.5s-40.834 3.5 -60.501 10.5s-37 17.333 -52 31s-27 30.834 -36 51.501s-13.5 45 -13.5 73h82
c1.33301 -28 8.83301 -49.5 22.5 -64.5s32.834 -22.5 57.501 -22.5s43.834 7.5 57.501 22.5s21.167 36.5 22.5 64.5h82z" />
    <glyph glyph-name="ibreve" unicode="&#x12d;" horiz-adv-x="268" 
d="M69 0v492h130v-492h-130zM297 746c0 -28 -4.5 -52.333 -13.5 -73s-21 -37.834 -36 -51.501s-32.333 -24 -52 -31s-39.834 -10.5 -60.501 -10.5s-40.834 3.5 -60.501 10.5s-37 17.333 -52 31s-27 30.834 -36 51.501s-13.5 45 -13.5 73h82
c1.33301 -28 8.83301 -49.5 22.5 -64.5s32.834 -22.5 57.501 -22.5s43.834 7.5 57.501 22.5s21.167 36.5 22.5 64.5h82z" />
    <glyph glyph-name="Iogonek" unicode="&#x12e;" horiz-adv-x="184" 
d="M162 -207c-9.33301 -7.33301 -22.333 -13.502 -39 -18.502s-38.667 -7.5 -66 -7.5c-36 0 -63.333 7.66699 -82 23s-28 36 -28 62c0 32.667 15.667 61.5 47 86.5s73 45.5 125 61.5h-96v664h139v-664c-25.333 -11.333 -45.5 -21.166 -60.5 -29.499s-26.333 -16 -34 -23
s-12.667 -13.667 -15 -20s-3.5 -12.833 -3.5 -19.5c0 -11.333 5.83301 -19.666 17.5 -24.999s27.167 -8 46.5 -8c9.33301 0 18.333 0.833008 27 2.5s16 3.5 22 5.5v-90z" />
    <glyph glyph-name="iogonek" unicode="&#x12f;" horiz-adv-x="188" 
d="M159 -207c-9.33301 -7.33301 -22.333 -13.502 -39 -18.502s-38.667 -7.5 -66 -7.5c-36 0 -63.333 7.66699 -82 23s-28 36 -28 62c0 32.667 15.667 61.5 47 86.5s73 45.5 125 61.5h-87v492h130v-492c-25.333 -11.333 -45.5 -21.166 -60.5 -29.499s-26.333 -16 -34 -23
s-12.667 -13.667 -15 -20s-3.5 -12.833 -3.5 -19.5c0 -11.333 5.83301 -19.666 17.5 -24.999s27.167 -8 46.5 -8c9.33301 0 18.333 0.833008 27 2.5s16 3.5 22 5.5v-90zM29 550.998v121h130v-121h-130z" />
    <glyph glyph-name="Idotaccent" unicode="&#x130;" horiz-adv-x="184" 
d="M23 0v664h139v-664h-139zM28 751v124h130v-124h-130z" />
    <glyph glyph-name="dotlessi" unicode="&#x131;" horiz-adv-x="188" 
d="M29 0v492h130v-492h-130z" />
    <glyph glyph-name="IJ" unicode="&#x132;" horiz-adv-x="633" 
d="M23 0v664h139v-664h-139zM472 664l139 -0.000976562v-485c0 -60.667 -18.333 -109.5 -55 -146.5s-91 -55.5 -163 -55.5c-64.667 0 -115 17.167 -151 51.5s-54 85.833 -54 154.5v68h126v-61c0 -34 6 -59.167 18 -75.5s32.333 -24.5 61 -24.5
c32 0 53.167 7.83301 63.5 23.5s15.5 41.834 15.5 78.501v472z" />
    <glyph glyph-name="ij" unicode="&#x133;" horiz-adv-x="376" 
d="M29 0v492h130v-492h-130zM29 551v121h130v-121h-130zM219 492l131 0.000976562v-525c0 -30 -5 -57.167 -15 -81.5s-23.667 -45.333 -41 -63s-37.833 -31.334 -61.5 -41.001s-49.167 -14.5 -76.5 -14.5c-67.333 0 -117.166 18.5 -149.499 55.5s-48.5 87.167 -48.5 150.5
h122c0 -28 5.16699 -50.167 15.5 -66.5s28.166 -24.5 53.499 -24.5c26 0 44.167 8 54.5 24s15.5 38 15.5 66v520zM219 551.001v121h131v-121h-131z" />
    <glyph glyph-name="Kcommaaccent" unicode="&#x136;" horiz-adv-x="600" 
d="M431 0l-197 299l-74 -73v-226h-137v664h137v-270l254 270h180l-262 -262l268 -402h-169zM252 -190c41.333 3.33301 62.668 25 64.001 65h-64v82h115v-54c0 -18 -1.83301 -34.833 -5.5 -50.5s-9.83398 -29.5 -18.501 -41.5s-20.5 -21.833 -35.5 -29.5
s-33.5 -12.5 -55.5 -14.5v43z" />
    <glyph glyph-name="kcommaaccent" unicode="&#x137;" horiz-adv-x="478" 
d="M328 0l-108 221l-63 -65v-156h-131v672h131v-367l162 187h159l-165 -181l161 -311h-146zM191 -190c41.333 3.33301 62.668 25 64.001 65h-64v82h115v-54c0 -18 -1.83301 -34.833 -5.5 -50.5s-9.83398 -29.5 -18.501 -41.5s-20.5 -21.833 -35.5 -29.5
s-33.5 -12.5 -55.5 -14.5v43z" />
    <glyph glyph-name="Lacute" unicode="&#x139;" horiz-adv-x="496" 
d="M23 0v664h139v-543h329v-121h-468zM33 726l-31 55l207 121l47 -82z" />
    <glyph glyph-name="lacute" unicode="&#x13a;" horiz-adv-x="181" 
d="M26 0v672h130v-672h-130zM26 726l-31 55l207 121l47 -82z" />
    <glyph glyph-name="Lcommaaccent" unicode="&#x13b;" horiz-adv-x="496" 
d="M23 0v664h139v-543h329v-121h-468zM200 -190c41.333 3.33301 62.668 25 64.001 65h-64v82h115v-54c0 -18 -1.83301 -34.833 -5.5 -50.5s-9.83398 -29.5 -18.501 -41.5s-20.5 -21.833 -35.5 -29.5s-33.5 -12.5 -55.5 -14.5v43z" />
    <glyph glyph-name="lcommaaccent" unicode="&#x13c;" horiz-adv-x="181" 
d="M26 0v672h130v-672h-130zM34 -190c41.333 3.33301 62.668 25 64.001 65h-64v82h115v-54c0 -18 -1.83301 -34.833 -5.5 -50.5s-9.83398 -29.5 -18.501 -41.5s-20.5 -21.833 -35.5 -29.5s-33.5 -12.5 -55.5 -14.5v43z" />
    <glyph glyph-name="Lcaron" unicode="&#x13d;" horiz-adv-x="496" 
d="M23 0v664h139v-543h329v-121h-468zM198 450c25.333 6.66699 44.334 18 57.001 34s19.334 40 20.001 72h-77v135h138v-102c0 -28 -2.33301 -52.667 -7 -74s-12.334 -39.5 -23.001 -54.5s-24.834 -27.5 -42.501 -37.5s-39.5 -17.667 -65.5 -23v50z" />
    <glyph glyph-name="lcaron" unicode="&#x13e;" horiz-adv-x="319" 
d="M26 0v672h130v-672h-130zM181 450c25.333 6.66699 44.334 18 57.001 34s19.334 40 20.001 72h-77v135h138v-102c0 -28 -2.33301 -52.667 -7 -74s-12.334 -39.5 -23.001 -54.5s-24.834 -27.5 -42.501 -37.5s-39.5 -17.667 -65.5 -23v50z" />
    <glyph glyph-name="Ldot" unicode="&#x13f;" horiz-adv-x="496" 
d="M23 0v664h139v-543h329v-121h-468zM190 314v124h130v-124h-130z" />
    <glyph glyph-name="ldot" unicode="&#x140;" horiz-adv-x="311" 
d="M26 0v672h130v-672h-130zM181 280v124h130v-124h-130z" />
    <glyph glyph-name="Lslash" unicode="&#x141;" horiz-adv-x="496" 
d="M23 0v664h139v-287l141 63v-89l-141 -63v-167h329v-121h-468z" />
    <glyph glyph-name="lslash" unicode="&#x142;" horiz-adv-x="255" 
d="M62 0v266l-62 -27v88l62 27v318h130v-261l63 29v-89l-63 -28v-323h-130z" />
    <glyph glyph-name="Nacute" unicode="&#x143;" horiz-adv-x="586" 
d="M436 0l-284 446v-446h-129v664h147l264 -427v427h130v-664h-128zM227 726l-31 55l207 121l47 -82z" />
    <glyph glyph-name="nacute" unicode="&#x144;" 
d="M341 0l0.00292969 298c0 38 -6.33301 63.667 -19 77s-34.334 20 -65.001 20c-67.333 0 -101 -37.667 -101 -113v-282h-130v492h124v-72c15.333 28 35.666 49.167 60.999 63.5s58 21.5 98 21.5c23.333 0 45 -3.5 65 -10.5s37.167 -17.5 51.5 -31.5
s25.666 -31.167 33.999 -51.5s12.5 -43.833 12.5 -70.5v-341h-131zM183.003 554l-31 55l207 121l47 -82z" />
    <glyph glyph-name="Ncommaaccent" unicode="&#x145;" horiz-adv-x="586" 
d="M436 0l-284 446v-446h-129v664h147l264 -427v427h130v-664h-128zM245 -190c41.333 3.33301 62.668 25 64.001 65h-64v82h115v-54c0 -18 -1.83301 -34.833 -5.5 -50.5s-9.83398 -29.5 -18.501 -41.5s-20.5 -21.833 -35.5 -29.5s-33.5 -12.5 -55.5 -14.5v43z" />
    <glyph glyph-name="ncommaaccent" unicode="&#x146;" 
d="M341 0l0.00292969 298c0 38 -6.33301 63.667 -19 77s-34.334 20 -65.001 20c-67.333 0 -101 -37.667 -101 -113v-282h-130v492h124v-72c15.333 28 35.666 49.167 60.999 63.5s58 21.5 98 21.5c23.333 0 45 -3.5 65 -10.5s37.167 -17.5 51.5 -31.5
s25.666 -31.167 33.999 -51.5s12.5 -43.833 12.5 -70.5v-341h-131zM201.003 -190c41.333 3.33301 62.668 25 64.001 65h-64v82h115v-54c0 -18 -1.83301 -34.833 -5.5 -50.5s-9.83398 -29.5 -18.501 -41.5s-20.5 -21.833 -35.5 -29.5s-33.5 -12.5 -55.5 -14.5v43z" />
    <glyph glyph-name="Ncaron" unicode="&#x147;" horiz-adv-x="586" 
d="M436 0l-284 446v-446h-129v664h147l264 -427v427h130v-664h-128zM240 733l-128 134l46 51l135 -118l135 118l46 -51l-128 -134h-106z" />
    <glyph glyph-name="ncaron" unicode="&#x148;" 
d="M341 0l0.00292969 298c0 38 -6.33301 63.667 -19 77s-34.334 20 -65.001 20c-67.333 0 -101 -37.667 -101 -113v-282h-130v492h124v-72c15.333 28 35.666 49.167 60.999 63.5s58 21.5 98 21.5c23.333 0 45 -3.5 65 -10.5s37.167 -17.5 51.5 -31.5
s25.666 -31.167 33.999 -51.5s12.5 -43.833 12.5 -70.5v-341h-131zM206.003 561l-128 134l46 51l135 -118l135 118l46 -51l-128 -134h-106z" />
    <glyph glyph-name="Eng" unicode="&#x14a;" horiz-adv-x="586" 
d="M434 3l-282 443.001v-446h-129v664h147l264 -427v427h130v-697c0 -30 -5 -57.167 -15 -81.5s-23.667 -45.333 -41 -63s-37.833 -31.334 -61.5 -41.001s-49.167 -14.5 -76.5 -14.5c-4.66699 0 -8.83398 0.166992 -12.501 0.5s-7.5 0.5 -11.5 0.5v116
c6.66699 -1.33301 12.334 -2 17.001 -2c26 0 44.333 8 55 24s16 38 16 66v31z" />
    <glyph glyph-name="eng" unicode="&#x14b;" 
d="M341 309c-1.33301 33.333 -8.33008 56.001 -20.9971 68.001s-33.667 18 -63 18c-67.333 0 -101 -37.667 -101 -113v-282h-130v492h124v-72c15.333 28 35.666 49.167 60.999 63.5s58 21.5 98 21.5c23.333 0 45 -3.5 65 -10.5s37.167 -17.5 51.5 -31.5
s25.666 -31.167 33.999 -51.5s12.5 -43.833 12.5 -70.5v-374c0 -30 -5 -57.167 -15 -81.5s-23.667 -45.333 -41 -63s-37.833 -31.334 -61.5 -41.001s-49.167 -14.5 -76.5 -14.5c-4 0 -7.83301 0.166992 -11.5 0.5s-7.16699 0.5 -10.5 0.5v115
c2 0 4.16699 -0.166992 6.5 -0.5s5.16602 -0.5 8.49902 -0.5c26 0 44.167 8 54.5 24s15.5 38 15.5 66v337z" />
    <glyph glyph-name="Omacron" unicode="&#x14c;" horiz-adv-x="666" 
d="M334 96c24.667 0 48.002 4.5 70.002 13.5s41.167 22.667 57.5 41s29.166 41.833 38.499 70.5s14 62.667 14 102c0 78.667 -15.333 138.334 -46 179.001s-75.334 61 -134.001 61s-103.667 -20.333 -135 -61s-47 -100.334 -47 -179.001s15.833 -136.167 47.5 -172.5
s76.5 -54.5 134.5 -54.5zM334.002 -23c-102.667 0 -181.5 29.999 -236.5 89.999s-82.5 146.333 -82.5 259c0 56 7 106.333 21 151s34.667 82.5 62 113.5s60.666 54.667 99.999 71s84.666 24.5 135.999 24.5c50.667 0 95.834 -8.16699 135.501 -24.5
s72.834 -40.166 99.501 -71.499s47 -69.5 61 -114.5s21 -95.833 21 -152.5c0 -114.667 -27.167 -201 -81.5 -259s-132.833 -87 -235.5 -87zM142.002 773.999v91h381v-91h-381z" />
    <glyph glyph-name="omacron" unicode="&#x14d;" horiz-adv-x="534" 
d="M268 96c79.333 0 119 50 119 150c0 99.333 -39.667 149 -119 149s-119 -49.667 -119 -149c0 -100 39.667 -150 119 -150zM268 -13c-40 0 -75.6689 6.33203 -107.002 18.999s-57.833 30.334 -79.5 53.001s-38.167 50 -49.5 82s-17 67 -17 105
c0 38.667 5.83301 74 17.5 106s28.5 59.333 50.5 82s48.5 40.167 79.5 52.5s66.167 18.5 105.5 18.5c38.667 0 73.334 -6.16699 104.001 -18.5s56.834 -29.666 78.501 -51.999s38.334 -49.5 50.001 -81.5s17.5 -67.667 17.5 -107s-5.83301 -74.833 -17.5 -106.5
s-28.334 -58.834 -50.001 -81.501s-48 -40.167 -79 -52.5s-65.5 -18.5 -103.5 -18.5zM75.998 601.999v91h381v-91h-381z" />
    <glyph glyph-name="Obreve" unicode="&#x14e;" horiz-adv-x="666" 
d="M334 96c24.667 0 48.002 4.5 70.002 13.5s41.167 22.667 57.5 41s29.166 41.833 38.499 70.5s14 62.667 14 102c0 78.667 -15.333 138.334 -46 179.001s-75.334 61 -134.001 61s-103.667 -20.333 -135 -61s-47 -100.334 -47 -179.001s15.833 -136.167 47.5 -172.5
s76.5 -54.5 134.5 -54.5zM334.002 -23c-102.667 0 -181.5 29.999 -236.5 89.999s-82.5 146.333 -82.5 259c0 56 7 106.333 21 151s34.667 82.5 62 113.5s60.666 54.667 99.999 71s84.666 24.5 135.999 24.5c50.667 0 95.834 -8.16699 135.501 -24.5
s72.834 -40.166 99.501 -71.499s47 -69.5 61 -114.5s21 -95.833 21 -152.5c0 -114.667 -27.167 -201 -81.5 -259s-132.833 -87 -235.5 -87zM495.002 917.999c0 -28 -4.5 -52.333 -13.5 -73s-21 -37.834 -36 -51.501s-32.333 -24 -52 -31s-39.834 -10.5 -60.501 -10.5
s-40.834 3.5 -60.501 10.5s-37 17.333 -52 31s-27 30.834 -36 51.501s-13.5 45 -13.5 73h82c1.33301 -28 8.83301 -49.5 22.5 -64.5s32.834 -22.5 57.501 -22.5s43.834 7.5 57.501 22.5s21.167 36.5 22.5 64.5h82z" />
    <glyph glyph-name="obreve" unicode="&#x14f;" horiz-adv-x="534" 
d="M268 96c79.333 0 119 50 119 150c0 99.333 -39.667 149 -119 149s-119 -49.667 -119 -149c0 -100 39.667 -150 119 -150zM268 -13c-40 0 -75.6689 6.33203 -107.002 18.999s-57.833 30.334 -79.5 53.001s-38.167 50 -49.5 82s-17 67 -17 105
c0 38.667 5.83301 74 17.5 106s28.5 59.333 50.5 82s48.5 40.167 79.5 52.5s66.167 18.5 105.5 18.5c38.667 0 73.334 -6.16699 104.001 -18.5s56.834 -29.666 78.501 -51.999s38.334 -49.5 50.001 -81.5s17.5 -67.667 17.5 -107s-5.83301 -74.833 -17.5 -106.5
s-28.334 -58.834 -50.001 -81.501s-48 -40.167 -79 -52.5s-65.5 -18.5 -103.5 -18.5zM428.998 745.999c0 -28 -4.5 -52.333 -13.5 -73s-21 -37.834 -36 -51.501s-32.333 -24 -52 -31s-39.834 -10.5 -60.501 -10.5s-40.834 3.5 -60.501 10.5s-37 17.333 -52 31
s-27 30.834 -36 51.501s-13.5 45 -13.5 73h82c1.33301 -28 8.83301 -49.5 22.5 -64.5s32.834 -22.5 57.501 -22.5s43.834 7.5 57.501 22.5s21.167 36.5 22.5 64.5h82z" />
    <glyph glyph-name="Ohungarumlaut" unicode="&#x150;" horiz-adv-x="666" 
d="M334 96c24.667 0 48.002 4.5 70.002 13.5s41.167 22.667 57.5 41s29.166 41.833 38.499 70.5s14 62.667 14 102c0 78.667 -15.333 138.334 -46 179.001s-75.334 61 -134.001 61s-103.667 -20.333 -135 -61s-47 -100.334 -47 -179.001s15.833 -136.167 47.5 -172.5
s76.5 -54.5 134.5 -54.5zM334.002 -23c-102.667 0 -181.5 29.999 -236.5 89.999s-82.5 146.333 -82.5 259c0 56 7 106.333 21 151s34.667 82.5 62 113.5s60.666 54.667 99.999 71s84.666 24.5 135.999 24.5c50.667 0 95.834 -8.16699 135.501 -24.5
s72.834 -40.166 99.501 -71.499s47 -69.5 61 -114.5s21 -95.833 21 -152.5c0 -114.667 -27.167 -201 -81.5 -259s-132.833 -87 -235.5 -87zM209.002 773.999l136 147l44 -37l-143 -143zM366.002 740.999l-37 33l142 144l45 -37z" />
    <glyph glyph-name="ohungarumlaut" unicode="&#x151;" horiz-adv-x="534" 
d="M268 96c79.333 0 119 50 119 150c0 99.333 -39.667 149 -119 149s-119 -49.667 -119 -149c0 -100 39.667 -150 119 -150zM268 -13c-40 0 -75.6689 6.33203 -107.002 18.999s-57.833 30.334 -79.5 53.001s-38.167 50 -49.5 82s-17 67 -17 105
c0 38.667 5.83301 74 17.5 106s28.5 59.333 50.5 82s48.5 40.167 79.5 52.5s66.167 18.5 105.5 18.5c38.667 0 73.334 -6.16699 104.001 -18.5s56.834 -29.666 78.501 -51.999s38.334 -49.5 50.001 -81.5s17.5 -67.667 17.5 -107s-5.83301 -74.833 -17.5 -106.5
s-28.334 -58.834 -50.001 -81.501s-48 -40.167 -79 -52.5s-65.5 -18.5 -103.5 -18.5zM152.998 601.999l136 147l44 -37l-143 -143zM309.998 568.999l-37 33l142 144l45 -37z" />
    <glyph glyph-name="OE" unicode="&#x152;" horiz-adv-x="1021" 
d="M516 0l0.00195312 24c-23.333 -15.333 -49.666 -27 -78.999 -35s-61 -12 -95 -12c-52.667 0 -99.334 8.5 -140.001 25.5s-74.834 41.5 -102.501 73.5s-48.667 71 -63 117s-21.5 98 -21.5 156c0 49.333 7.66699 94.666 23 135.999s37 76.833 65 106.5
s61.667 52.834 101 69.501s83 25 131 25c34.667 0 67.167 -4.83301 97.5 -14.5s58.166 -23.167 83.499 -40.5v33h488v-116h-353v-142h325v-117h-325v-171h370v-118h-505zM345.002 96c24.667 0 47.498 5.5 68.498 16.5s38.833 26.5 53.5 46.5s26.167 43.667 34.5 71
s12.5 57.333 12.5 90c0 162 -61.333 243 -184 243c-27.333 0 -52 -5.5 -74 -16.5s-40.667 -26.5 -56 -46.5s-27.166 -43.667 -35.499 -71s-12.5 -57 -12.5 -89c0 -34 4.66699 -65.833 14 -95.5s22.5 -55.5 39.5 -77.5s37.333 -39.333 61 -52s49.834 -19 78.501 -19z" />
    <glyph glyph-name="oe" unicode="&#x153;" horiz-adv-x="860" 
d="M507 212c2 -37.333 12.833 -67.001 32.5 -89.001s45.5 -33 77.5 -33c21.333 0 40.166 4.83301 56.499 14.5s26.833 23.167 31.5 40.5h134c-15.333 -50.667 -42 -89.667 -80 -117s-83.333 -41 -136 -41c-80 0 -140.333 21 -181 63c-44 -42 -102 -63 -174 -63
c-40 0 -75.667 6.33301 -107 19s-57.833 30.334 -79.5 53.001s-38.167 50 -49.5 82s-17 67 -17 105c0 38.667 5.83301 74 17.5 106s28.5 59.333 50.5 82s48.5 40.167 79.5 52.5s66.167 18.5 105.5 18.5c36.667 0 69.667 -5.5 99 -16.5s54.666 -26.833 75.999 -47.5
c20.667 20.667 45.334 36.5 74.001 47.5s61.334 16.5 98.001 16.5c76 0 133.5 -24.333 172.5 -73s58.5 -122 58.5 -220h-339zM268 95.999c79.333 0 119 50 119 150c0 99.333 -39.667 149 -119 149s-119 -49.667 -119 -149c0 -100 39.667 -150 119 -150zM712 293.999
c-0.666992 18 -3.83301 33.833 -9.5 47.5s-13.167 25 -22.5 34s-20 15.667 -32 20s-24.333 6.5 -37 6.5c-26 0 -48.5 -9.5 -67.5 -28.5s-29.833 -45.5 -32.5 -79.5h201z" />
    <glyph glyph-name="Racute" unicode="&#x154;" horiz-adv-x="573" 
d="M158 549l0.000976562 -177h174c37.333 0 63.666 8.33301 78.999 25s23 37.667 23 63c0 26 -7.5 47.333 -22.5 64s-39.833 25 -74.5 25h-179zM410.001 0l0.000976562 170.999c0 32 -7.33301 54.833 -22 68.5s-42 20.5 -82 20.5h-148v-260h-135v664h337
c30.667 0 58.5 -4.83301 83.5 -14.5s46.5 -23 64.5 -40s31.833 -37.333 41.5 -61s14.5 -49.167 14.5 -76.5c0 -36 -8.5 -67.833 -25.5 -95.5s-41.5 -47.167 -73.5 -58.5c29.333 -9.33301 50.166 -23.666 62.499 -42.999s18.5 -48.333 18.5 -87v-188h-136zM220.002 725.999
l-31 55l207 121l47 -82z" />
    <glyph glyph-name="racute" unicode="&#x155;" horiz-adv-x="315" 
d="M26 0l-0.000976562 492h122v-59c10.667 16.667 21.834 29.667 33.501 39s23.667 16.5 36 21.5s24.833 8.16699 37.5 9.5s25.667 2 39 2h17v-133c-12 2 -24 3 -36 3c-79.333 0 -119 -39.667 -119 -119v-256h-130zM90.999 554l-31 55l207 121l47 -82z" />
    <glyph glyph-name="Rcommaaccent" unicode="&#x156;" horiz-adv-x="573" 
d="M158 549l0.000976562 -177h174c37.333 0 63.666 8.33301 78.999 25s23 37.667 23 63c0 26 -7.5 47.333 -22.5 64s-39.833 25 -74.5 25h-179zM410.001 0l0.000976562 170.999c0 32 -7.33301 54.833 -22 68.5s-42 20.5 -82 20.5h-148v-260h-135v664h337
c30.667 0 58.5 -4.83301 83.5 -14.5s46.5 -23 64.5 -40s31.833 -37.333 41.5 -61s14.5 -49.167 14.5 -76.5c0 -36 -8.5 -67.833 -25.5 -95.5s-41.5 -47.167 -73.5 -58.5c29.333 -9.33301 50.166 -23.666 62.499 -42.999s18.5 -48.333 18.5 -87v-188h-136zM229.002 -190.001
c41.333 3.33301 62.668 25 64.001 65h-64v82h115v-54c0 -18 -1.83301 -34.833 -5.5 -50.5s-9.83398 -29.5 -18.501 -41.5s-20.5 -21.833 -35.5 -29.5s-33.5 -12.5 -55.5 -14.5v43z" />
    <glyph glyph-name="rcommaaccent" unicode="&#x157;" horiz-adv-x="315" 
d="M26 0l-0.000976562 492h122v-59c10.667 16.667 21.834 29.667 33.501 39s23.667 16.5 36 21.5s24.833 8.16699 37.5 9.5s25.667 2 39 2h17v-133c-12 2 -24 3 -36 3c-79.333 0 -119 -39.667 -119 -119v-256h-130zM38.999 -190c41.333 3.33301 62.668 25 64.001 65h-64v82
h115v-54c0 -18 -1.83301 -34.833 -5.5 -50.5s-9.83398 -29.5 -18.501 -41.5s-20.5 -21.833 -35.5 -29.5s-33.5 -12.5 -55.5 -14.5v43z" />
    <glyph glyph-name="Rcaron" unicode="&#x158;" horiz-adv-x="573" 
d="M158 549l0.000976562 -177h174c37.333 0 63.666 8.33301 78.999 25s23 37.667 23 63c0 26 -7.5 47.333 -22.5 64s-39.833 25 -74.5 25h-179zM410.001 0l0.000976562 170.999c0 32 -7.33301 54.833 -22 68.5s-42 20.5 -82 20.5h-148v-260h-135v664h337
c30.667 0 58.5 -4.83301 83.5 -14.5s46.5 -23 64.5 -40s31.833 -37.333 41.5 -61s14.5 -49.167 14.5 -76.5c0 -36 -8.5 -67.833 -25.5 -95.5s-41.5 -47.167 -73.5 -58.5c29.333 -9.33301 50.166 -23.666 62.499 -42.999s18.5 -48.333 18.5 -87v-188h-136zM223.002 732.999
l-128 134l46 51l135 -118l135 118l46 -51l-128 -134h-106z" />
    <glyph glyph-name="rcaron" unicode="&#x159;" horiz-adv-x="315" 
d="M26 0l-0.000976562 492h122v-59c10.667 16.667 21.834 29.667 33.501 39s23.667 16.5 36 21.5s24.833 8.16699 37.5 9.5s25.667 2 39 2h17v-133c-12 2 -24 3 -36 3c-79.333 0 -119 -39.667 -119 -119v-256h-130zM105.999 561l-128 134l46 51l135 -118l135 118l46 -51
l-128 -134h-106z" />
    <glyph glyph-name="Sacute" unicode="&#x15a;" horiz-adv-x="558" 
d="M399 468c-3.33301 34 -15.6631 59.335 -36.9961 76.002s-53.333 25 -96 25c-78.667 0 -118 -27 -118 -81c0 -19.333 8.16699 -35.5 24.5 -48.5s42.5 -23.833 78.5 -32.5c42.667 -10 79.667 -19.333 111 -28s60 -18.667 86 -30c14.667 -6 28.5 -13.5 41.5 -22.5
s24 -20.167 33 -33.5s16.167 -29.333 21.5 -48s8 -41.334 8 -68.001c0 -32 -6.66699 -60.333 -20 -85s-31.333 -45.5 -54 -62.5s-49.334 -30 -80.001 -39s-63 -13.5 -97 -13.5c-96.667 0 -169.334 18.667 -218.001 56s-74.334 92.666 -77.001 165.999h134
c0.666992 -34 14.5 -60.833 41.5 -80.5s60.833 -29.5 101.5 -29.5c44 0 77.333 8 100 24s34 37.667 34 65c0 10.667 -1.33301 20.5 -4 29.5s-7.83398 17.167 -15.501 24.5s-18.167 13.833 -31.5 19.5s-30.666 10.834 -51.999 15.501c-50.667 10.667 -94.5 21.5 -131.5 32.5
s-67.5 24.667 -91.5 41s-41.667 36.166 -53 59.499s-17 53 -17 89c0 27.333 5 53 15 77s25.333 44.833 46 62.5s46.167 31.667 76.5 42s66.166 15.5 107.499 15.5c40 0 76 -5.16699 108 -15.5s59.5 -25 82.5 -44s40.833 -42 53.5 -69s19.667 -56.833 21 -89.5h-132z
M213.003 726.002l-31 55l207 121l47 -82z" />
    <glyph glyph-name="sacute" unicode="&#x15b;" horiz-adv-x="467" 
d="M322 343c-3.33301 22.667 -11.8379 39.1611 -25.5049 49.4941s-34.5 15.5 -62.5 15.5c-26.667 0 -46.834 -3.16699 -60.501 -9.5s-20.5 -17.166 -20.5 -32.499c0 -13.333 6.83301 -24 20.5 -32s33.5 -15.667 59.5 -23l108 -30.5
c29.333 -8.33301 52.833 -18.166 70.5 -29.499s30.334 -25.5 38.001 -42.5s11.5 -39.833 11.5 -68.5c0 -44 -18.333 -80.5 -55 -109.5s-91 -43.5 -163 -43.5c-35.333 0 -67.333 4 -96 12s-53.167 19.5 -73.5 34.5s-36 33 -47 54s-16.833 44.5 -17.5 70.5h134
c0 -23.333 9.16699 -41.333 27.5 -54s42.166 -19 71.499 -19c24.667 0 45.834 3.83301 63.501 11.5s26.5 19.5 26.5 35.5c0 18 -6.5 31 -19.5 39s-32.833 15 -59.5 21c-48 10.667 -86.667 21.834 -116 33.501s-52.166 24.5 -68.499 38.5s-27.333 29.333 -33 46
s-8.5 35.334 -8.5 56.001c0 18.667 3.83301 36.334 11.5 53.001s19.834 31.334 36.501 44.001s38.334 22.834 65.001 30.501s59.334 11.5 98.001 11.5c70.667 0 122.334 -14.333 155.001 -43s50.667 -68.334 54 -119.001h-125zM166.995 553.994l-31 55l207 121l47 -82z" />
    <glyph glyph-name="Scedilla" unicode="&#x15e;" horiz-adv-x="558" 
d="M399 468c-3.33301 34 -15.6631 59.335 -36.9961 76.002s-53.333 25 -96 25c-78.667 0 -118 -27 -118 -81c0 -19.333 8.16699 -35.5 24.5 -48.5s42.5 -23.833 78.5 -32.5c42.667 -10 79.667 -19.333 111 -28s60 -18.667 86 -30c14.667 -6 28.5 -13.5 41.5 -22.5
s24 -20.167 33 -33.5s16.167 -29.333 21.5 -48s8 -41.334 8 -68.001c0 -32 -6.66699 -60.333 -20 -85s-31.333 -45.5 -54 -62.5s-49.334 -30 -80.001 -39s-63 -13.5 -97 -13.5c-96.667 0 -169.334 18.667 -218.001 56s-74.334 92.666 -77.001 165.999h134
c0.666992 -34 14.5 -60.833 41.5 -80.5s60.833 -29.5 101.5 -29.5c44 0 77.333 8 100 24s34 37.667 34 65c0 10.667 -1.33301 20.5 -4 29.5s-7.83398 17.167 -15.501 24.5s-18.167 13.833 -31.5 19.5s-30.666 10.834 -51.999 15.501c-50.667 10.667 -94.5 21.5 -131.5 32.5
s-67.5 24.667 -91.5 41s-41.667 36.166 -53 59.499s-17 53 -17 89c0 27.333 5 53 15 77s25.333 44.833 46 62.5s46.167 31.667 76.5 42s66.166 15.5 107.499 15.5c40 0 76 -5.16699 108 -15.5s59.5 -25 82.5 -44s40.833 -42 53.5 -69s19.667 -56.833 21 -89.5h-132z
M231.003 -189.998c41.333 3.33301 62.668 25 64.001 65h-64v82h115v-54c0 -18 -1.83301 -34.833 -5.5 -50.5s-9.83398 -29.5 -18.501 -41.5s-20.5 -21.833 -35.5 -29.5s-33.5 -12.5 -55.5 -14.5v43z" />
    <glyph glyph-name="scedilla" unicode="&#x15f;" horiz-adv-x="467" 
d="M322 343c-3.33301 22.667 -11.8379 39.1611 -25.5049 49.4941s-34.5 15.5 -62.5 15.5c-26.667 0 -46.834 -3.16699 -60.501 -9.5s-20.5 -17.166 -20.5 -32.499c0 -13.333 6.83301 -24 20.5 -32s33.5 -15.667 59.5 -23l108 -30.5
c29.333 -8.33301 52.833 -18.166 70.5 -29.499s30.334 -25.5 38.001 -42.5s11.5 -39.833 11.5 -68.5c0 -44 -18.333 -80.5 -55 -109.5s-91 -43.5 -163 -43.5c-35.333 0 -67.333 4 -96 12s-53.167 19.5 -73.5 34.5s-36 33 -47 54s-16.833 44.5 -17.5 70.5h134
c0 -23.333 9.16699 -41.333 27.5 -54s42.166 -19 71.499 -19c24.667 0 45.834 3.83301 63.501 11.5s26.5 19.5 26.5 35.5c0 18 -6.5 31 -19.5 39s-32.833 15 -59.5 21c-48 10.667 -86.667 21.834 -116 33.501s-52.166 24.5 -68.499 38.5s-27.333 29.333 -33 46
s-8.5 35.334 -8.5 56.001c0 18.667 3.83301 36.334 11.5 53.001s19.834 31.334 36.501 44.001s38.334 22.834 65.001 30.501s59.334 11.5 98.001 11.5c70.667 0 122.334 -14.333 155.001 -43s50.667 -68.334 54 -119.001h-125zM185.995 -190.006
c41.333 3.33301 62.668 25 64.001 65h-64v82h115v-54c0 -18 -1.83301 -34.833 -5.5 -50.5s-9.83398 -29.5 -18.501 -41.5s-20.5 -21.833 -35.5 -29.5s-33.5 -12.5 -55.5 -14.5v43z" />
    <glyph glyph-name="Scaron" unicode="&#x160;" horiz-adv-x="558" 
d="M399 468c-3.33301 34 -15.6631 59.335 -36.9961 76.002s-53.333 25 -96 25c-78.667 0 -118 -27 -118 -81c0 -19.333 8.16699 -35.5 24.5 -48.5s42.5 -23.833 78.5 -32.5c42.667 -10 79.667 -19.333 111 -28s60 -18.667 86 -30c14.667 -6 28.5 -13.5 41.5 -22.5
s24 -20.167 33 -33.5s16.167 -29.333 21.5 -48s8 -41.334 8 -68.001c0 -32 -6.66699 -60.333 -20 -85s-31.333 -45.5 -54 -62.5s-49.334 -30 -80.001 -39s-63 -13.5 -97 -13.5c-96.667 0 -169.334 18.667 -218.001 56s-74.334 92.666 -77.001 165.999h134
c0.666992 -34 14.5 -60.833 41.5 -80.5s60.833 -29.5 101.5 -29.5c44 0 77.333 8 100 24s34 37.667 34 65c0 10.667 -1.33301 20.5 -4 29.5s-7.83398 17.167 -15.501 24.5s-18.167 13.833 -31.5 19.5s-30.666 10.834 -51.999 15.501c-50.667 10.667 -94.5 21.5 -131.5 32.5
s-67.5 24.667 -91.5 41s-41.667 36.166 -53 59.499s-17 53 -17 89c0 27.333 5 53 15 77s25.333 44.833 46 62.5s46.167 31.667 76.5 42s66.166 15.5 107.499 15.5c40 0 76 -5.16699 108 -15.5s59.5 -25 82.5 -44s40.833 -42 53.5 -69s19.667 -56.833 21 -89.5h-132z
M226.003 733.002l-128 134l46 51l135 -118l135 118l46 -51l-128 -134h-106z" />
    <glyph glyph-name="scaron" unicode="&#x161;" horiz-adv-x="467" 
d="M322 343c-3.33301 22.667 -11.8379 39.1611 -25.5049 49.4941s-34.5 15.5 -62.5 15.5c-26.667 0 -46.834 -3.16699 -60.501 -9.5s-20.5 -17.166 -20.5 -32.499c0 -13.333 6.83301 -24 20.5 -32s33.5 -15.667 59.5 -23l108 -30.5
c29.333 -8.33301 52.833 -18.166 70.5 -29.499s30.334 -25.5 38.001 -42.5s11.5 -39.833 11.5 -68.5c0 -44 -18.333 -80.5 -55 -109.5s-91 -43.5 -163 -43.5c-35.333 0 -67.333 4 -96 12s-53.167 19.5 -73.5 34.5s-36 33 -47 54s-16.833 44.5 -17.5 70.5h134
c0 -23.333 9.16699 -41.333 27.5 -54s42.166 -19 71.499 -19c24.667 0 45.834 3.83301 63.501 11.5s26.5 19.5 26.5 35.5c0 18 -6.5 31 -19.5 39s-32.833 15 -59.5 21c-48 10.667 -86.667 21.834 -116 33.501s-52.166 24.5 -68.499 38.5s-27.333 29.333 -33 46
s-8.5 35.334 -8.5 56.001c0 18.667 3.83301 36.334 11.5 53.001s19.834 31.334 36.501 44.001s38.334 22.834 65.001 30.501s59.334 11.5 98.001 11.5c70.667 0 122.334 -14.333 155.001 -43s50.667 -68.334 54 -119.001h-125zM179.995 560.994l-128 134l46 51l135 -118
l135 118l46 -51l-128 -134h-106z" />
    <glyph glyph-name="Tcommaaccent" unicode="&#x162;" horiz-adv-x="549" 
d="M204 0v548h-200v116h540v-116h-201v-548h-139zM217 -190c41.333 3.33301 62.668 25 64.001 65h-64v82h115v-54c0 -18 -1.83301 -34.833 -5.5 -50.5s-9.83398 -29.5 -18.501 -41.5s-20.5 -21.833 -35.5 -29.5s-33.5 -12.5 -55.5 -14.5v43z" />
    <glyph glyph-name="tcommaaccent" unicode="&#x163;" horiz-adv-x="447" 
d="M305 324l120.997 -0.000976562v-140c0 -26 -3.83301 -50.833 -11.5 -74.5s-19.667 -44.667 -36 -63s-37 -32.833 -62 -43.5s-54.833 -16 -89.5 -16c-36 0 -66.667 5.33301 -92 16s-46.166 25 -62.499 43s-28.166 39 -35.499 63s-11 49.333 -11 76v440h128v-133h272v-92
h-272v-202c0 -31.333 5.83301 -55.5 17.5 -72.5s30.834 -25.5 57.501 -25.5c26 0 45.167 8.33301 57.5 25s18.5 40.334 18.5 71.001v128zM165.997 -190.001c41.333 3.33301 62.668 25 64.001 65h-64v82h115v-54c0 -18 -1.83301 -34.833 -5.5 -50.5
s-9.83398 -29.5 -18.501 -41.5s-20.5 -21.833 -35.5 -29.5s-33.5 -12.5 -55.5 -14.5v43z" />
    <glyph glyph-name="Tcaron" unicode="&#x164;" horiz-adv-x="549" 
d="M204 0v548h-200v116h540v-116h-201v-548h-139zM221 733l-128 134l46 51l135 -118l135 118l46 -51l-128 -134h-106z" />
    <glyph glyph-name="tcaron" unicode="&#x165;" horiz-adv-x="585" 
d="M305 324l120.997 -0.000976562v-140c0 -26 -3.83301 -50.833 -11.5 -74.5s-19.667 -44.667 -36 -63s-37 -32.833 -62 -43.5s-54.833 -16 -89.5 -16c-36 0 -66.667 5.33301 -92 16s-46.166 25 -62.499 43s-28.166 39 -35.499 63s-11 49.333 -11 76v440h128v-133h272v-92
h-272v-202c0 -31.333 5.83301 -55.5 17.5 -72.5s30.834 -25.5 57.501 -25.5c26 0 45.167 8.33301 57.5 25s18.5 40.334 18.5 71.001v128zM446.997 449.999c25.333 6.66699 44.334 18 57.001 34s19.334 40 20.001 72h-77v135h138v-102c0 -28 -2.33301 -52.667 -7 -74
s-12.334 -39.5 -23.001 -54.5s-24.834 -27.5 -42.501 -37.5s-39.5 -17.667 -65.5 -23v50z" />
    <glyph glyph-name="Tbar" unicode="&#x166;" horiz-adv-x="549" 
d="M204 0v248h-94v101h94v199h-200v116h540v-116h-201v-199h95v-101h-95v-248h-139z" />
    <glyph glyph-name="tbar" unicode="&#x167;" horiz-adv-x="447" 
d="M154 261l-0.00292969 -63.001c0 -31.333 5.83301 -55.5 17.5 -72.5s30.834 -25.5 57.501 -25.5c26 0 45.167 8.33301 57.5 25s18.5 40.334 18.5 71.001v18h121v-30c0 -26 -3.83301 -50.833 -11.5 -74.5s-19.667 -44.667 -36 -63s-37 -32.833 -62 -43.5
s-54.833 -16 -89.5 -16c-36 0 -66.667 5.33301 -92 16s-46.166 25 -62.499 43s-28.166 39 -35.499 63s-11 49.333 -11 76v440h128v-133h272v-92h-272v-52h265v-87h-265z" />
    <glyph glyph-name="Utilde" unicode="&#x168;" horiz-adv-x="581" 
d="M416 664h141.999v-443c0 -80.667 -23.667 -141.5 -71 -182.5s-114.666 -61.5 -201.999 -61.5c-80.667 0 -144.5 19.333 -191.5 58s-70.5 98 -70.5 178v451h141v-438c0 -41.333 10.333 -74 31 -98s50 -36 88 -36c88.667 0 133 43 133 129v443zM462.999 846
c-11.333 -36 -27.001 -61.335 -47.001 -76.002s-40.667 -22 -62 -22c-12.667 0 -24.5 2.33301 -35.5 7s-21.5 9.83398 -31.5 15.501s-20 10.834 -30 15.501s-20.333 7 -31 7c-4 0 -10 -2.66699 -18 -8s-15 -17.333 -21 -36l-69 37c10.667 32.667 24.334 55.5 41.001 68.5
s35.334 19.5 56.001 19.5c15.333 0 29 -2.5 41 -7.5s23.333 -10.5 34 -16.5l30 -16.5c9.33301 -5 18.666 -7.5 27.999 -7.5c6 0 13.333 3.5 22 10.5s14.667 19.167 18 36.5z" />
    <glyph glyph-name="utilde" unicode="&#x169;" horiz-adv-x="495" 
d="M346 0v69c-33.333 -54.667 -84.333 -82 -153 -82c-24.667 0 -47.167 4.33301 -67.5 13s-37.833 21 -52.5 37s-26.167 35 -34.5 57s-12.5 46.667 -12.5 74v324h130v-304c0 -61.333 27.667 -92 83 -92c33.333 0 58.5 10.5 75.5 31.5s25.5 47.833 25.5 80.5v284h129v-492
h-123zM420 674c-11.333 -36 -27.001 -61.335 -47.001 -76.002s-40.667 -22 -62 -22c-12.667 0 -24.5 2.33301 -35.5 7s-21.5 9.83398 -31.5 15.501s-20 10.834 -30 15.501s-20.333 7 -31 7c-4 0 -10 -2.66699 -18 -8s-15 -17.333 -21 -36l-69 37
c10.667 32.667 24.334 55.5 41.001 68.5s35.334 19.5 56.001 19.5c15.333 0 29 -2.5 41 -7.5s23.333 -10.5 34 -16.5l30 -16.5c9.33301 -5 18.666 -7.5 27.999 -7.5c6 0 13.333 3.5 22 10.5s14.667 19.167 18 36.5z" />
    <glyph glyph-name="Umacron" unicode="&#x16a;" horiz-adv-x="581" 
d="M416 664h141.999v-443c0 -80.667 -23.667 -141.5 -71 -182.5s-114.666 -61.5 -201.999 -61.5c-80.667 0 -144.5 19.333 -191.5 58s-70.5 98 -70.5 178v451h141v-438c0 -41.333 10.333 -74 31 -98s50 -36 88 -36c88.667 0 133 43 133 129v443zM99.999 774v91h381v-91h-381
z" />
    <glyph glyph-name="umacron" unicode="&#x16b;" horiz-adv-x="495" 
d="M346 0v69c-33.333 -54.667 -84.333 -82 -153 -82c-24.667 0 -47.167 4.33301 -67.5 13s-37.833 21 -52.5 37s-26.167 35 -34.5 57s-12.5 46.667 -12.5 74v324h130v-304c0 -61.333 27.667 -92 83 -92c33.333 0 58.5 10.5 75.5 31.5s25.5 47.833 25.5 80.5v284h129v-492
h-123zM57 602v91h381v-91h-381z" />
    <glyph glyph-name="Ubreve" unicode="&#x16c;" horiz-adv-x="581" 
d="M416 664h141.999v-443c0 -80.667 -23.667 -141.5 -71 -182.5s-114.666 -61.5 -201.999 -61.5c-80.667 0 -144.5 19.333 -191.5 58s-70.5 98 -70.5 178v451h141v-438c0 -41.333 10.333 -74 31 -98s50 -36 88 -36c88.667 0 133 43 133 129v443zM451.999 918
c0 -28 -4.5 -52.333 -13.5 -73s-21 -37.834 -36 -51.501s-32.333 -24 -52 -31s-39.834 -10.5 -60.501 -10.5s-40.834 3.5 -60.501 10.5s-37 17.333 -52 31s-27 30.834 -36 51.501s-13.5 45 -13.5 73h82c1.33301 -28 8.83301 -49.5 22.5 -64.5s32.834 -22.5 57.501 -22.5
s43.834 7.5 57.501 22.5s21.167 36.5 22.5 64.5h82z" />
    <glyph glyph-name="ubreve" unicode="&#x16d;" horiz-adv-x="495" 
d="M346 0v69c-33.333 -54.667 -84.333 -82 -153 -82c-24.667 0 -47.167 4.33301 -67.5 13s-37.833 21 -52.5 37s-26.167 35 -34.5 57s-12.5 46.667 -12.5 74v324h130v-304c0 -61.333 27.667 -92 83 -92c33.333 0 58.5 10.5 75.5 31.5s25.5 47.833 25.5 80.5v284h129v-492
h-123zM419 746c0 -28 -4.5 -52.333 -13.5 -73s-21 -37.834 -36 -51.501s-32.333 -24 -52 -31s-39.834 -10.5 -60.501 -10.5s-40.834 3.5 -60.501 10.5s-37 17.333 -52 31s-27 30.834 -36 51.501s-13.5 45 -13.5 73h82c1.33301 -28 8.83301 -49.5 22.5 -64.5
s32.834 -22.5 57.501 -22.5s43.834 7.5 57.501 22.5s21.167 36.5 22.5 64.5h82z" />
    <glyph glyph-name="Uring" unicode="&#x16e;" horiz-adv-x="581" 
d="M416 664h141.999v-443c0 -80.667 -23.667 -141.5 -71 -182.5s-114.666 -61.5 -201.999 -61.5c-80.667 0 -144.5 19.333 -191.5 58s-70.5 98 -70.5 178v451h141v-438c0 -41.333 10.333 -74 31 -98s50 -36 88 -36c88.667 0 133 43 133 129v443zM393.999 822
c0 -31.333 -8 -55.167 -24 -71.5s-42.667 -24.5 -80 -24.5c-69.333 0 -104 32 -104 96c0 30.667 8.5 54.334 25.5 71.001s43.167 25 78.5 25c37.333 0 64 -8.33301 80 -25s24 -40.334 24 -71.001zM341.999 821.999c0 34 -17.333 51 -52 51c-33.333 0 -50 -17 -50 -51
c0 -32.667 16.667 -49 50 -49c34.667 0 52 16.333 52 49z" />
    <glyph glyph-name="uring" unicode="&#x16f;" horiz-adv-x="495" 
d="M346 0v69c-33.333 -54.667 -84.333 -82 -153 -82c-24.667 0 -47.167 4.33301 -67.5 13s-37.833 21 -52.5 37s-26.167 35 -34.5 57s-12.5 46.667 -12.5 74v324h130v-304c0 -61.333 27.667 -92 83 -92c33.333 0 58.5 10.5 75.5 31.5s25.5 47.833 25.5 80.5v284h129v-492
h-123zM361 650c0 -31.333 -8 -55.167 -24 -71.5s-42.667 -24.5 -80 -24.5c-69.333 0 -104 32 -104 96c0 30.667 8.5 54.334 25.5 71.001s43.167 25 78.5 25c37.333 0 64 -8.33301 80 -25s24 -40.334 24 -71.001zM309 649.999c0 34 -17.333 51 -52 51
c-33.333 0 -50 -17 -50 -51c0 -32.667 16.667 -49 50 -49c34.667 0 52 16.333 52 49z" />
    <glyph glyph-name="Uhungarumlaut" unicode="&#x170;" horiz-adv-x="581" 
d="M416 664h141.999v-443c0 -80.667 -23.667 -141.5 -71 -182.5s-114.666 -61.5 -201.999 -61.5c-80.667 0 -144.5 19.333 -191.5 58s-70.5 98 -70.5 178v451h141v-438c0 -41.333 10.333 -74 31 -98s50 -36 88 -36c88.667 0 133 43 133 129v443zM166.999 774l136 147l44 -37
l-143 -143zM323.999 741l-37 33l142 144l45 -37z" />
    <glyph glyph-name="uhungarumlaut" unicode="&#x171;" horiz-adv-x="495" 
d="M346 0v69c-33.333 -54.667 -84.333 -82 -153 -82c-24.667 0 -47.167 4.33301 -67.5 13s-37.833 21 -52.5 37s-26.167 35 -34.5 57s-12.5 46.667 -12.5 74v324h130v-304c0 -61.333 27.667 -92 83 -92c33.333 0 58.5 10.5 75.5 31.5s25.5 47.833 25.5 80.5v284h129v-492
h-123zM134 602l136 147l44 -37l-143 -143zM291 569l-37 33l142 144l45 -37z" />
    <glyph glyph-name="Uogonek" unicode="&#x172;" horiz-adv-x="581" 
d="M422 -207c-9.33301 -7.33301 -22.333 -13.502 -39 -18.502s-38.667 -7.5 -66 -7.5c-36 0 -63.333 7.66699 -82 23s-28 36 -28 62s10 49.667 30 71s47.667 40 83 56c-5.33301 -0.666992 -11 -1.16699 -17 -1.5s-12 -0.5 -18 -0.5c-80.667 0 -144.5 19.333 -191.5 58
s-70.5 98 -70.5 178v451h141v-438c0 -41.333 10.333 -74 31 -98s50 -36 88 -36c88.667 0 133 43 133 129v443h142v-443c0 -57.333 -11.833 -104.333 -35.5 -141s-58.167 -63.667 -103.5 -81c-24.667 -11.333 -44.334 -21.166 -59.001 -29.499s-25.667 -15.833 -33 -22.5
s-12.166 -13.167 -14.499 -19.5s-3.5 -12.833 -3.5 -19.5c0 -11.333 5.83301 -19.666 17.5 -24.999s27.167 -8 46.5 -8c9.33301 0 18.333 0.833008 27 2.5s16 3.5 22 5.5v-90z" />
    <glyph glyph-name="uogonek" unicode="&#x173;" horiz-adv-x="495" 
d="M469 -207c-9.33301 -7.33301 -22.333 -13.502 -39 -18.502s-38.667 -7.5 -66 -7.5c-36 0 -63.333 7.66699 -82 23s-28 36 -28 62c0 32.667 15.667 61.5 47 86.5s73 45.5 125 61.5h-80v69c-33.333 -54.667 -84.333 -82 -153 -82c-24.667 0 -47.167 4.33301 -67.5 13
s-37.833 21 -52.5 37s-26.167 35 -34.5 57s-12.5 46.667 -12.5 74v324h130v-304c0 -61.333 27.667 -92 83 -92c33.333 0 58.5 10.5 75.5 31.5s25.5 47.833 25.5 80.5v284h129v-492c-25.333 -11.333 -45.5 -21.166 -60.5 -29.499s-26.333 -16 -34 -23
s-12.667 -13.667 -15 -20s-3.5 -12.833 -3.5 -19.5c0 -11.333 5.83301 -19.666 17.5 -24.999s27.167 -8 46.5 -8c9.33301 0 18.333 0.833008 27 2.5s16 3.5 22 5.5v-90z" />
    <glyph glyph-name="Wcircumflex" unicode="&#x174;" horiz-adv-x="852" 
d="M529 0l-103 432l-105 -432h-130l-188 664h148l109 -430l92 430h146l101 -430l108 430h142l-186 -664h-134zM426 851l-135 -118l-46 51l128 134h106l128 -134l-46 -51z" />
    <glyph glyph-name="wcircumflex" unicode="&#x175;" horiz-adv-x="710" 
d="M432 0l-78 286l-78 -286h-133l-140 492h137l80 -316l68 316h132l77 -316l75 316h134l-141 -492h-133zM355 679l-135 -118l-46 51l128 134h106l128 -134l-46 -51z" />
    <glyph glyph-name="Ycircumflex" unicode="&#x176;" horiz-adv-x="597" 
d="M233 0v251l-230 413h162l140 -270l129 270h160l-222 -415v-249h-139zM306 851l-135 -118l-46 51l128 134h106l128 -134l-46 -51z" />
    <glyph glyph-name="ycircumflex" unicode="&#x177;" horiz-adv-x="495" 
d="M339 65c-9.33301 -22 -26.167 -39.168 -50.5 -51.501s-51.833 -18.5 -82.5 -18.5c-26 0 -50 4.16699 -72 12.5s-41 20.333 -57 36s-28.5 34.334 -37.5 56.001s-13.5 46.167 -13.5 73.5v319h130v-300c0 -61.333 27.667 -92 83 -92c30 0 54.167 8.66699 72.5 26
s27.5 39.333 27.5 66v300h130v-505c0 -34.667 -5.83301 -65.667 -17.5 -93s-27.667 -50.333 -48 -69s-44.333 -33 -72 -43s-57.167 -15 -88.5 -15c-72.667 0 -127 18.333 -163 55s-54 87 -54 151h121c0 -29.333 8.5 -52.333 25.5 -69s42.5 -25 76.5 -25
c12 0 23.333 2.5 34 7.5s20.167 12 28.5 21s15 20.167 20 33.5s7.5 28 7.5 44v80zM246.999 678.999l-135 -118l-46 51l128 134h106l128 -134l-46 -51z" />
    <glyph glyph-name="Ydieresis" unicode="&#x178;" horiz-adv-x="597" 
d="M233 0v251l-230 413h162l140 -270l129 270h160l-222 -415v-249h-139zM142 751v124h130v-124h-130zM342 751v124h130v-124h-130z" />
    <glyph glyph-name="Zacute" unicode="&#x179;" horiz-adv-x="527" 
d="M4 0v118l345 430h-335v116h509v-109l-347 -437h347v-118h-519zM197 726l-31 55l207 121l47 -82z" />
    <glyph glyph-name="zacute" unicode="&#x17a;" horiz-adv-x="440" 
d="M9 0v100l251 289h-234v103h400v-105l-251 -281h258v-106h-424zM154 554l-31 55l207 121l47 -82z" />
    <glyph glyph-name="Zdotaccent" unicode="&#x17b;" horiz-adv-x="527" 
d="M4 0v118l345 430h-335v116h509v-109l-347 -437h347v-118h-519zM198 751v124h130v-124h-130z" />
    <glyph glyph-name="zdotaccent" unicode="&#x17c;" horiz-adv-x="440" 
d="M9 0v100l251 289h-234v103h400v-105l-251 -281h258v-106h-424zM155 579v124h130v-124h-130z" />
    <glyph glyph-name="Zcaron" unicode="&#x17d;" horiz-adv-x="527" 
d="M4 0v118l345 430h-335v116h509v-109l-347 -437h347v-118h-519zM210 733l-128 134l46 51l135 -118l135 118l46 -51l-128 -134h-106z" />
    <glyph glyph-name="zcaron" unicode="&#x17e;" horiz-adv-x="440" 
d="M9 0v100l251 289h-234v103h400v-105l-251 -281h258v-106h-424zM168 561l-128 134l46 51l135 -118l135 118l46 -51l-128 -134h-106z" />
    <glyph glyph-name="florin" unicode="&#x192;" horiz-adv-x="532" 
d="M22 -173v112h72c17.333 0 31.5 6.33301 42.5 19s18.5 33 22.5 61l50 345h-70v101h84l4 24c4.66699 34 14 62.667 28 86s31 42.166 51 56.499s42.667 24.666 68 30.999s51.666 9.5 78.999 9.5h57v-112h-73c-17.333 0 -31.5 -6.33301 -42.5 -19s-18.5 -33 -22.5 -61l-2 -15
h87v-101h-102l-51 -354c-5.33301 -34 -14.833 -62.667 -28.5 -86s-30.5 -42.166 -50.5 -56.499s-42.667 -24.666 -68 -30.999s-51.666 -9.5 -78.999 -9.5h-56z" />
    <glyph glyph-name="Ohorn" unicode="&#x1a0;" horiz-adv-x="765" 
d="M752 702c6.66699 -7.33301 11.8369 -18.166 15.5039 -32.499s5.5 -29.5 5.5 -45.5c0 -38 -8.5 -65.333 -25.5 -82s-39.167 -25 -66.5 -25c-23.333 0 -48 5 -74 15c29.333 -56.667 44 -126.334 44 -209.001c0 -114.667 -27.167 -201 -81.5 -259s-132.833 -87 -235.5 -87
s-181.5 30 -236.5 90s-82.5 146.333 -82.5 259c0 56 7 106.333 21 151s34.667 82.5 62 113.5s60.666 54.667 99.999 71s84.666 24.5 135.999 24.5c84 0 152.667 -22.667 206 -68c16 -13.333 32.667 -22.5 50 -27.5s35 -7.5 53 -7.5c19.333 0 32.166 6.5 38.499 19.5
s9.5 27.5 9.5 43.5c0 11.333 -0.833008 22 -2.5 32s-3.83398 18 -6.50098 24h70zM334.003 96c24.667 0 48.002 4.5 70.002 13.5s41.167 22.667 57.5 41s29.166 41.833 38.499 70.5s14 62.667 14 102c0 78.667 -15.333 138.334 -46 179.001s-75.334 61 -134.001 61
s-103.667 -20.333 -135 -61s-47 -100.334 -47 -179.001s15.833 -136.167 47.5 -172.5s76.5 -54.5 134.5 -54.5z" />
    <glyph glyph-name="ohorn" unicode="&#x1a1;" horiz-adv-x="647" 
d="M634 543c6.66699 -7.33301 11.8359 -18.167 15.5029 -32.5s5.5 -29.5 5.5 -45.5c0 -13.333 -1.33301 -26.333 -4 -39s-7.16699 -24 -13.5 -34s-14.666 -18.167 -24.999 -24.5s-22.833 -9.5 -37.5 -9.5c-32.667 0 -60.334 4.66699 -83.001 14
c17.333 -36.667 26 -78.667 26 -126c0 -39.333 -5.83301 -74.833 -17.5 -106.5s-28.334 -58.834 -50.001 -81.501s-48 -40.167 -79 -52.5s-65.5 -18.5 -103.5 -18.5c-40 0 -75.667 6.33301 -107 19s-57.833 30.334 -79.5 53.001s-38.167 50 -49.5 82s-17 67 -17 105
c0 38.667 5.83301 74 17.5 106s28.5 59.333 50.5 82s48.5 40.167 79.5 52.5s66.167 18.5 105.5 18.5c60.667 0 112 -15.333 154 -46c20 -14.667 38.167 -24.167 54.5 -28.5s32.5 -6.5 48.5 -6.5c19.333 0 32.166 6.5 38.499 19.5s9.5 27.5 9.5 43.5
c0 11.333 -0.833008 22 -2.5 32s-3.83398 18 -6.50098 24h70zM268.002 95.999c79.333 0 119 50 119 150c0 99.333 -39.667 149 -119 149s-119 -49.667 -119 -149c0 -100 39.667 -150 119 -150z" />
    <glyph glyph-name="Uhorn" unicode="&#x1af;" horiz-adv-x="743" 
d="M416 664l141.999 -0.000976562v-73c9.33301 -3.33301 18.5 -5.5 27.5 -6.5s18.167 -1.5 27.5 -1.5c19.333 0 32.166 6.5 38.499 19.5s9.5 27.5 9.5 43.5c0 11.333 -0.833008 22 -2.5 32s-3.83398 18 -6.50098 24h70c6.66699 -7.33301 11.834 -18.166 15.501 -32.499
s5.5 -29.5 5.5 -45.5c0 -38 -8.83301 -65.5 -26.5 -82.5s-40.167 -25.5 -67.5 -25.5c-29.333 0 -59.666 8.66699 -90.999 26v-321c0 -80.667 -23.667 -141.5 -71 -182.5s-114.666 -61.5 -201.999 -61.5c-80.667 0 -144.5 19.333 -191.5 58s-70.5 98 -70.5 178v451h141v-438
c0 -41.333 10.333 -74 31 -98s50 -36 88 -36c88.667 0 133 43 133 129v443z" />
    <glyph glyph-name="uhorn" unicode="&#x1b0;" horiz-adv-x="633" 
d="M346 0v68.999c-33.333 -54.667 -84.333 -82 -153 -82c-24.667 0 -47.167 4.33301 -67.5 13s-37.833 21 -52.5 37s-26.167 35 -34.5 57s-12.5 46.667 -12.5 74v324h130v-304c0 -61.333 27.667 -92 83 -92c33.333 0 58.5 10.5 75.5 31.5s25.5 47.833 25.5 80.5v284h129v-64
c12.667 -2.66699 26.667 -4 42 -4c19.333 0 32.166 6.5 38.499 19.5s9.5 27.5 9.5 43.5c0 11.333 -0.833008 22 -2.5 32s-3.83398 18 -6.50098 24h70c6.66699 -7.33301 11.834 -18.166 15.501 -32.499s5.5 -29.5 5.5 -45.5c0 -38 -8.66699 -65.333 -26 -82
s-39.666 -25 -66.999 -25c-24.667 0 -51 6 -79 18v-376h-123z" />
    <glyph glyph-name="Scommaaccent" unicode="&#x218;" horiz-adv-x="558" 
d="M399 468c-3.33301 34 -15.6631 59.335 -36.9961 76.002s-53.333 25 -96 25c-78.667 0 -118 -27 -118 -81c0 -19.333 8.16699 -35.5 24.5 -48.5s42.5 -23.833 78.5 -32.5c42.667 -10 79.667 -19.333 111 -28s60 -18.667 86 -30c14.667 -6 28.5 -13.5 41.5 -22.5
s24 -20.167 33 -33.5s16.167 -29.333 21.5 -48s8 -41.334 8 -68.001c0 -32 -6.66699 -60.333 -20 -85s-31.333 -45.5 -54 -62.5s-49.334 -30 -80.001 -39s-63 -13.5 -97 -13.5c-96.667 0 -169.334 18.667 -218.001 56s-74.334 92.666 -77.001 165.999h134
c0.666992 -34 14.5 -60.833 41.5 -80.5s60.833 -29.5 101.5 -29.5c44 0 77.333 8 100 24s34 37.667 34 65c0 10.667 -1.33301 20.5 -4 29.5s-7.83398 17.167 -15.501 24.5s-18.167 13.833 -31.5 19.5s-30.666 10.834 -51.999 15.501c-50.667 10.667 -94.5 21.5 -131.5 32.5
s-67.5 24.667 -91.5 41s-41.667 36.166 -53 59.499s-17 53 -17 89c0 27.333 5 53 15 77s25.333 44.833 46 62.5s46.167 31.667 76.5 42s66.166 15.5 107.499 15.5c40 0 76 -5.16699 108 -15.5s59.5 -25 82.5 -44s40.833 -42 53.5 -69s19.667 -56.833 21 -89.5h-132z
M221.003 -189.998c41.333 3.33301 62.668 25 64.001 65h-64v82h115v-54c0 -18 -1.83301 -34.833 -5.5 -50.5s-9.83398 -29.5 -18.501 -41.5s-20.5 -21.833 -35.5 -29.5s-33.5 -12.5 -55.5 -14.5v43z" />
    <glyph glyph-name="scommaaccent" unicode="&#x219;" horiz-adv-x="467" 
d="M322 343c-3.33301 22.667 -11.8379 39.1611 -25.5049 49.4941s-34.5 15.5 -62.5 15.5c-26.667 0 -46.834 -3.16699 -60.501 -9.5s-20.5 -17.166 -20.5 -32.499c0 -13.333 6.83301 -24 20.5 -32s33.5 -15.667 59.5 -23l108 -30.5
c29.333 -8.33301 52.833 -18.166 70.5 -29.499s30.334 -25.5 38.001 -42.5s11.5 -39.833 11.5 -68.5c0 -44 -18.333 -80.5 -55 -109.5s-91 -43.5 -163 -43.5c-35.333 0 -67.333 4 -96 12s-53.167 19.5 -73.5 34.5s-36 33 -47 54s-16.833 44.5 -17.5 70.5h134
c0 -23.333 9.16699 -41.333 27.5 -54s42.166 -19 71.499 -19c24.667 0 45.834 3.83301 63.501 11.5s26.5 19.5 26.5 35.5c0 18 -6.5 31 -19.5 39s-32.833 15 -59.5 21c-48 10.667 -86.667 21.834 -116 33.501s-52.166 24.5 -68.499 38.5s-27.333 29.333 -33 46
s-8.5 35.334 -8.5 56.001c0 18.667 3.83301 36.334 11.5 53.001s19.834 31.334 36.501 44.001s38.334 22.834 65.001 30.501s59.334 11.5 98.001 11.5c70.667 0 122.334 -14.333 155.001 -43s50.667 -68.334 54 -119.001h-125zM183.995 -190.006
c41.333 3.33301 62.668 25 64.001 65h-64v82h115v-54c0 -18 -1.83301 -34.833 -5.5 -50.5s-9.83398 -29.5 -18.501 -41.5s-20.5 -21.833 -35.5 -29.5s-33.5 -12.5 -55.5 -14.5v43z" />
    <glyph glyph-name="uni021A" unicode="&#x21a;" horiz-adv-x="549" 
d="M204 0v548h-200v116h540v-116h-201v-548h-139zM217 -190c41.333 3.33301 62.668 25 64.001 65h-64v82h115v-54c0 -18 -1.83301 -34.833 -5.5 -50.5s-9.83398 -29.5 -18.501 -41.5s-20.5 -21.833 -35.5 -29.5s-33.5 -12.5 -55.5 -14.5v43z" />
    <glyph glyph-name="uni021B" unicode="&#x21b;" horiz-adv-x="447" 
d="M305 324l120.997 -0.000976562v-140c0 -26 -3.83301 -50.833 -11.5 -74.5s-19.667 -44.667 -36 -63s-37 -32.833 -62 -43.5s-54.833 -16 -89.5 -16c-36 0 -66.667 5.33301 -92 16s-46.166 25 -62.499 43s-28.166 39 -35.499 63s-11 49.333 -11 76v440h128v-133h272v-92
h-272v-202c0 -31.333 5.83301 -55.5 17.5 -72.5s30.834 -25.5 57.501 -25.5c26 0 45.167 8.33301 57.5 25s18.5 40.334 18.5 71.001v128zM165.997 -190.001c41.333 3.33301 62.668 25 64.001 65h-64v82h115v-54c0 -18 -1.83301 -34.833 -5.5 -50.5
s-9.83398 -29.5 -18.501 -41.5s-20.5 -21.833 -35.5 -29.5s-33.5 -12.5 -55.5 -14.5v43z" />
    <glyph glyph-name="circumflex" unicode="&#x2c6;" horiz-adv-x="462" 
d="M231 679l-135 -118l-46 51l128 134h106l128 -134l-46 -51z" />
    <glyph glyph-name="caron" unicode="&#x2c7;" horiz-adv-x="462" 
d="M178 561l-128 134l46 51l135 -118l135 118l46 -51l-128 -134h-106z" />
    <glyph glyph-name="uni02C9" unicode="&#x2c9;" horiz-adv-x="481" 
d="M50 602v91h381v-91h-381z" />
    <glyph glyph-name="breve" unicode="&#x2d8;" horiz-adv-x="424" 
d="M374 746c0 -28 -4.5 -52.333 -13.5 -73s-21 -37.834 -36 -51.501s-32.333 -24 -52 -31s-39.834 -10.5 -60.501 -10.5s-40.834 3.5 -60.501 10.5s-37 17.333 -52 31s-27 30.834 -36 51.501s-13.5 45 -13.5 73h82c1.33301 -28 8.83301 -49.5 22.5 -64.5
s32.834 -22.5 57.501 -22.5s43.834 7.5 57.501 22.5s21.167 36.5 22.5 64.5h82z" />
    <glyph glyph-name="dotaccent" unicode="&#x2d9;" horiz-adv-x="230" 
d="M50 579v124h130v-124h-130z" />
    <glyph glyph-name="ring" unicode="&#x2da;" horiz-adv-x="308" 
d="M258 650c0 -31.333 -8 -55.167 -24 -71.5s-42.667 -24.5 -80 -24.5c-69.333 0 -104 32 -104 96c0 30.667 8.5 54.334 25.5 71.001s43.167 25 78.5 25c37.333 0 64 -8.33301 80 -25s24 -40.334 24 -71.001zM206 649.999c0 34 -17.333 51 -52 51c-33.333 0 -50 -17 -50 -51
c0 -32.667 16.667 -49 50 -49c34.667 0 52 16.333 52 49z" />
    <glyph glyph-name="ogonek" unicode="&#x2db;" horiz-adv-x="315" 
d="M265 -207c-9.33301 -7.33301 -22.333 -13.502 -39 -18.502s-38.667 -7.5 -66 -7.5c-36 0 -63.333 7.66699 -82 23s-28 36 -28 62c0 32.667 15.667 61.5 47 86.5s73 45.5 125 61.5h43c-25.333 -11.333 -45.5 -21.166 -60.5 -29.499s-26.333 -16 -34 -23
s-12.667 -13.667 -15 -20s-3.5 -12.833 -3.5 -19.5c0 -11.333 5.83301 -19.666 17.5 -24.999s27.167 -8 46.5 -8c9.33301 0 18.333 0.833008 27 2.5s16 3.5 22 5.5v-90z" />
    <glyph glyph-name="tilde" unicode="&#x2dc;" horiz-adv-x="445" 
d="M395 674c-11.333 -36 -27.001 -61.335 -47.001 -76.002s-40.667 -22 -62 -22c-12.667 0 -24.5 2.33301 -35.5 7s-21.5 9.83398 -31.5 15.501s-20 10.834 -30 15.501s-20.333 7 -31 7c-4 0 -10 -2.66699 -18 -8s-15 -17.333 -21 -36l-69 37
c10.667 32.667 24.334 55.5 41.001 68.5s35.334 19.5 56.001 19.5c15.333 0 29 -2.5 41 -7.5s23.333 -10.5 34 -16.5l30 -16.5c9.33301 -5 18.666 -7.5 27.999 -7.5c6 0 13.333 3.5 22 10.5s14.667 19.167 18 36.5z" />
    <glyph glyph-name="hungarumlaut" unicode="&#x2dd;" horiz-adv-x="407" 
d="M50 602l136 147l44 -37l-143 -143zM207 569l-37 33l142 144l45 -37z" />
    <glyph glyph-name="tildecomb" unicode="&#x303;" horiz-adv-x="372" 
d="M315 732c-6 -24 -16.499 -40.1689 -31.499 -48.502s-30.5 -12.5 -46.5 -12.5c-8 0 -16.667 1 -26 3s-18.5 4.33301 -27.5 7s-17.5 5 -25.5 7s-15 3 -21 3c-10.667 0 -20 -10.667 -28 -32l-49 20c6 22.667 15.333 38.834 28 48.501s26.667 14.5 42 14.5
c12 0 22.667 -1.16699 32 -3.5s18.166 -5 26.499 -8s16.333 -5.66699 24 -8s15.5 -3.5 23.5 -3.5c7.33301 0 13.333 1.83301 18 5.5s8 10.834 10 21.501zM288.001 553.998l-102 70l-101 -70l-35 30l96 80h80l96 -80z" />
    <glyph glyph-name="hookabovecomb" unicode="&#x309;" horiz-adv-x="244" 
d="M85 581c0 11.333 1.66797 21.499 5.00098 30.499s10 16.5 20 22.5c7.33301 4 13 8 17 12s6 10 6 18c0 11.333 -8 17 -24 17c-5.33301 0 -11.333 -1 -18 -3s-14.334 -6 -23.001 -12l-18 55c10 8.66699 21.833 15 35.5 19s25.167 6 34.5 6c23.333 0 41.5 -5.5 54.5 -16.5
s19.5 -25.833 19.5 -44.5c0 -14 -3 -25.167 -9 -33.5s-12.833 -15.666 -20.5 -21.999s-14.5 -13 -20.5 -20s-9 -16.5 -9 -28.5h-50z" />
    <glyph glyph-name="dotbelowcomb" unicode="&#x323;" horiz-adv-x="230" 
d="M50 -206v124h130v-124h-130z" />
    <glyph glyph-name="uni037E" unicode="&#x37e;" horiz-adv-x="154" 
d="M10 -106c25.333 6.66699 44.334 18 57.001 34s19.334 40 20.001 72h-77v135h138v-102c0 -28 -2.33301 -52.667 -7 -74s-12.334 -39.5 -23.001 -54.5s-24.834 -27.5 -42.501 -37.5s-39.5 -17.667 -65.5 -23v50zM10.001 339v134h138v-134h-138z" />
    <glyph glyph-name="Delta" unicode="&#x394;" horiz-adv-x="638" 
d="M3 0l237 664h161l234 -664h-632zM187 114h260l-128 401h-1z" />
    <glyph glyph-name="Omega" unicode="&#x3a9;" horiz-adv-x="646" 
d="M383 0v99.999c32 30.667 56.833 69.334 74.5 116.001s26.5 105.667 26.5 177c0 62.667 -13.667 108.667 -41 138s-67.333 44 -120 44s-92.5 -14.667 -119.5 -44s-40.5 -75.333 -40.5 -138c0 -35.333 2.66699 -67.666 8 -96.999s12.5 -56 21.5 -80s19.5 -45.667 31.5 -65
s25 -36.333 39 -51v-100h-239v110h99c-15.333 11.333 -29.666 26.333 -42.999 45s-25 40.334 -35 65.001s-18 51.667 -24 81s-9 60.333 -9 93c0 45.333 6.16699 86 18.5 122s31.333 66.667 57 92s58 44.666 97 57.999s85.167 20 138.5 20c106.667 0 185.167 -26 235.5 -78
s75.5 -123.333 75.5 -214c0 -32.667 -3 -63.667 -9 -93s-14 -56.333 -24 -81s-21.833 -46.334 -35.5 -65.001s-27.834 -33.667 -42.501 -45h99v-110h-239z" />
    <glyph glyph-name="mu" unicode="&#x3bc;" horiz-adv-x="495" 
d="M346 0l-0.000976562 69c-33.333 -54.667 -84.333 -82 -153 -82c-6.66699 0 -13.167 0.333008 -19.5 1s-12.166 1.66699 -17.499 3v-224h-130v725h130v-304c0 -61.333 27.667 -92 83 -92c33.333 0 58.5 10.5 75.5 31.5s25.5 47.833 25.5 80.5v284h129v-492h-123z" />
    <glyph glyph-name="pi" unicode="&#x3c0;" horiz-adv-x="563" 
d="M351 0v372h-142v-372h-129v372h-67v120h537v-120h-70v-372h-129z" />
    <glyph glyph-name="Wgrave" unicode="&#x1e80;" horiz-adv-x="852" 
d="M529 0l-103 432l-105 -432h-130l-188 664h148l109 -430l92 430h146l101 -430l108 430h142l-186 -664h-134zM269 820l47 82l207 -121l-31 -55z" />
    <glyph glyph-name="wgrave" unicode="&#x1e81;" horiz-adv-x="710" 
d="M432 0l-78 286l-78 -286h-133l-140 492h137l80 -316l68 316h132l77 -316l75 316h134l-141 -492h-133zM198 648l47 82l207 -121l-31 -55z" />
    <glyph glyph-name="Wacute" unicode="&#x1e82;" horiz-adv-x="852" 
d="M529 0l-103 432l-105 -432h-130l-188 664h148l109 -430l92 430h146l101 -430l108 430h142l-186 -664h-134zM360 726l-31 55l207 121l47 -82z" />
    <glyph glyph-name="wacute" unicode="&#x1e83;" horiz-adv-x="710" 
d="M432 0l-78 286l-78 -286h-133l-140 492h137l80 -316l68 316h132l77 -316l75 316h134l-141 -492h-133zM289 554l-31 55l207 121l47 -82z" />
    <glyph glyph-name="Wdieresis" unicode="&#x1e84;" horiz-adv-x="852" 
d="M529 0l-103 432l-105 -432h-130l-188 664h148l109 -430l92 430h146l101 -430l108 430h142l-186 -664h-134zM261 751v124h130v-124h-130zM461 751v124h130v-124h-130z" />
    <glyph glyph-name="wdieresis" unicode="&#x1e85;" horiz-adv-x="710" 
d="M432 0l-78 286l-78 -286h-133l-140 492h137l80 -316l68 316h132l77 -316l75 316h134l-141 -492h-133zM190 579v124h130v-124h-130zM390 579v124h130v-124h-130z" />
    <glyph glyph-name="uni1EA0" unicode="&#x1ea0;" horiz-adv-x="638" 
d="M319 515h-1l-85 -264h169zM484 0l-42 137h-245l-47 -137h-147l237 664h161l234 -664h-151zM254 -206v124h130v-124h-130z" />
    <glyph glyph-name="uni1EA1" unicode="&#x1ea1;" horiz-adv-x="481" 
d="M325 241c-6.66699 -6.66699 -16.3311 -12.0029 -28.998 -16.0029s-31 -8.33301 -55 -13c-37.333 -7.33301 -63 -16.666 -77 -27.999s-21 -27.666 -21 -48.999c0 -36.667 21 -55 63 -55c16.667 0 32.167 2.83301 46.5 8.5s26.666 13.334 36.999 23.001
s18.666 21 24.999 34s9.5 26.833 9.5 41.5zM334.003 -0.00292969c-4 12.667 -6.66895 27.332 -8.00195 43.999c-15.333 -17.333 -35.666 -31.166 -60.999 -41.499s-54.666 -15.5 -87.999 -15.5c-56.667 0 -98.167 12.5 -124.5 37.5s-39.5 57.5 -39.5 97.5
c0 35.333 5.66699 63.5 17 84.5s27 37.5 47 49.5s43.833 20.833 71.5 26.5s57.834 10.834 90.501 15.501s54.667 10.834 66 18.501s17 20.167 17 37.5c0 16 -7.5 28.5 -22.5 37.5s-35.167 13.5 -60.5 13.5c-30 0 -51.5 -6.66699 -64.5 -20s-21.167 -31 -24.5 -53h-121
c0.666992 25.333 4.83398 48.666 12.501 69.999s20 39.666 37 54.999s39.167 27.166 66.5 35.499s60.666 12.5 99.999 12.5c38.667 0 71.5 -4.33301 98.5 -13s48.667 -21.167 65 -37.5s28.166 -36.666 35.499 -60.999s11 -51.833 11 -82.5v-311h-121zM170.001 -206.005v124
h130v-124h-130z" />
    <glyph glyph-name="uni1EA2" unicode="&#x1ea2;" horiz-adv-x="638" 
d="M319 515h-1l-85 -264h169zM484 0l-42 137h-245l-47 -137h-147l237 664h161l234 -664h-151zM292 753c0 11.333 1.66797 21.499 5.00098 30.499s10 16.5 20 22.5c7.33301 4 13 8 17 12s6 10 6 18c0 11.333 -8 17 -24 17c-5.33301 0 -11.333 -1 -18 -3
s-14.334 -6 -23.001 -12l-18 55c10 8.66699 21.833 15 35.5 19s25.167 6 34.5 6c23.333 0 41.5 -5.5 54.5 -16.5s19.5 -25.833 19.5 -44.5c0 -14 -3 -25.167 -9 -33.5s-12.833 -15.666 -20.5 -21.999s-14.5 -13 -20.5 -20s-9 -16.5 -9 -28.5h-50z" />
    <glyph glyph-name="uni1EA3" unicode="&#x1ea3;" horiz-adv-x="481" 
d="M325 241c-6.66699 -6.66699 -16.3311 -12.0029 -28.998 -16.0029s-31 -8.33301 -55 -13c-37.333 -7.33301 -63 -16.666 -77 -27.999s-21 -27.666 -21 -48.999c0 -36.667 21 -55 63 -55c16.667 0 32.167 2.83301 46.5 8.5s26.666 13.334 36.999 23.001
s18.666 21 24.999 34s9.5 26.833 9.5 41.5zM334.003 -0.00292969c-4 12.667 -6.66895 27.332 -8.00195 43.999c-15.333 -17.333 -35.666 -31.166 -60.999 -41.499s-54.666 -15.5 -87.999 -15.5c-56.667 0 -98.167 12.5 -124.5 37.5s-39.5 57.5 -39.5 97.5
c0 35.333 5.66699 63.5 17 84.5s27 37.5 47 49.5s43.833 20.833 71.5 26.5s57.834 10.834 90.501 15.501s54.667 10.834 66 18.501s17 20.167 17 37.5c0 16 -7.5 28.5 -22.5 37.5s-35.167 13.5 -60.5 13.5c-30 0 -51.5 -6.66699 -64.5 -20s-21.167 -31 -24.5 -53h-121
c0.666992 25.333 4.83398 48.666 12.501 69.999s20 39.666 37 54.999s39.167 27.166 66.5 35.499s60.666 12.5 99.999 12.5c38.667 0 71.5 -4.33301 98.5 -13s48.667 -21.167 65 -37.5s28.166 -36.666 35.499 -60.999s11 -51.833 11 -82.5v-311h-121zM213.001 580.995
c0 11.333 1.66797 21.499 5.00098 30.499s10 16.5 20 22.5c7.33301 4 13 8 17 12s6 10 6 18c0 11.333 -8 17 -24 17c-5.33301 0 -11.333 -1 -18 -3s-14.334 -6 -23.001 -12l-18 55c10 8.66699 21.833 15 35.5 19s25.167 6 34.5 6c23.333 0 41.5 -5.5 54.5 -16.5
s19.5 -25.833 19.5 -44.5c0 -14 -3 -25.167 -9 -33.5s-12.833 -15.666 -20.5 -21.999s-14.5 -13 -20.5 -20s-9 -16.5 -9 -28.5h-50z" />
    <glyph glyph-name="uni1EA4" unicode="&#x1ea4;" horiz-adv-x="638" 
d="M319 515h-1l-85 -264h169zM484 0l-42 137h-245l-47 -137h-147l237 664h161l234 -664h-151zM321 844l-116 -101l-39 44l110 115h91l110 -115l-40 -44zM530 756l-25 46l171 100l39 -68z" />
    <glyph glyph-name="uni1EA5" unicode="&#x1ea5;" horiz-adv-x="481" 
d="M325 241c-6.66699 -6.66699 -16.3311 -12.0029 -28.998 -16.0029s-31 -8.33301 -55 -13c-37.333 -7.33301 -63 -16.666 -77 -27.999s-21 -27.666 -21 -48.999c0 -36.667 21 -55 63 -55c16.667 0 32.167 2.83301 46.5 8.5s26.666 13.334 36.999 23.001
s18.666 21 24.999 34s9.5 26.833 9.5 41.5zM334.003 -0.00292969c-4 12.667 -6.66895 27.332 -8.00195 43.999c-15.333 -17.333 -35.666 -31.166 -60.999 -41.499s-54.666 -15.5 -87.999 -15.5c-56.667 0 -98.167 12.5 -124.5 37.5s-39.5 57.5 -39.5 97.5
c0 35.333 5.66699 63.5 17 84.5s27 37.5 47 49.5s43.833 20.833 71.5 26.5s57.834 10.834 90.501 15.501s54.667 10.834 66 18.501s17 20.167 17 37.5c0 16 -7.5 28.5 -22.5 37.5s-35.167 13.5 -60.5 13.5c-30 0 -51.5 -6.66699 -64.5 -20s-21.167 -31 -24.5 -53h-121
c0.666992 25.333 4.83398 48.666 12.501 69.999s20 39.666 37 54.999s39.167 27.166 66.5 35.499s60.666 12.5 99.999 12.5c38.667 0 71.5 -4.33301 98.5 -13s48.667 -21.167 65 -37.5s28.166 -36.666 35.499 -60.999s11 -51.833 11 -82.5v-311h-121zM241.001 671.995
l-116 -101l-39 44l110 115h91l110 -115l-40 -44zM450.001 583.995l-25 46l171 100l39 -68z" />
    <glyph glyph-name="uni1EA6" unicode="&#x1ea6;" horiz-adv-x="638" 
d="M319 515h-1l-85 -264h169zM484 0l-42 137h-245l-47 -137h-147l237 664h161l234 -664h-151zM318 844l-116 -101l-40 44l110 115h91l110 -115l-39 -44zM-76 834l39 68l171 -100l-25 -46z" />
    <glyph glyph-name="uni1EA7" unicode="&#x1ea7;" horiz-adv-x="481" 
d="M325 241c-6.66699 -6.66699 -16.3311 -12.0029 -28.998 -16.0029s-31 -8.33301 -55 -13c-37.333 -7.33301 -63 -16.666 -77 -27.999s-21 -27.666 -21 -48.999c0 -36.667 21 -55 63 -55c16.667 0 32.167 2.83301 46.5 8.5s26.666 13.334 36.999 23.001
s18.666 21 24.999 34s9.5 26.833 9.5 41.5zM334.003 -0.00292969c-4 12.667 -6.66895 27.332 -8.00195 43.999c-15.333 -17.333 -35.666 -31.166 -60.999 -41.499s-54.666 -15.5 -87.999 -15.5c-56.667 0 -98.167 12.5 -124.5 37.5s-39.5 57.5 -39.5 97.5
c0 35.333 5.66699 63.5 17 84.5s27 37.5 47 49.5s43.833 20.833 71.5 26.5s57.834 10.834 90.501 15.501s54.667 10.834 66 18.501s17 20.167 17 37.5c0 16 -7.5 28.5 -22.5 37.5s-35.167 13.5 -60.5 13.5c-30 0 -51.5 -6.66699 -64.5 -20s-21.167 -31 -24.5 -53h-121
c0.666992 25.333 4.83398 48.666 12.501 69.999s20 39.666 37 54.999s39.167 27.166 66.5 35.499s60.666 12.5 99.999 12.5c38.667 0 71.5 -4.33301 98.5 -13s48.667 -21.167 65 -37.5s28.166 -36.666 35.499 -60.999s11 -51.833 11 -82.5v-311h-121zM236.001 671.995
l-116 -101l-40 44l110 115h91l110 -115l-39 -44zM-157.999 661.995l39 68l171 -100l-25 -46z" />
    <glyph glyph-name="uni1EA8" unicode="&#x1ea8;" horiz-adv-x="638" 
d="M319 515h-1l-85 -264h169zM484 0l-42 137h-245l-47 -137h-147l237 664h161l234 -664h-151zM493 753c0 11.333 1.66797 21.499 5.00098 30.499s10 16.5 20 22.5c7.33301 4 13 8 17 12s6 10 6 18c0 11.333 -8 17 -24 17c-5.33301 0 -11.333 -1 -18 -3
s-14.334 -6 -23.001 -12l-18 55c10 8.66699 21.833 15 35.5 19s25.167 6 34.5 6c23.333 0 41.5 -5.5 54.5 -16.5s19.5 -25.833 19.5 -44.5c0 -14 -3 -25.167 -9 -33.5s-12.833 -15.666 -20.5 -21.999s-14.5 -13 -20.5 -20s-9 -16.5 -9 -28.5h-50zM317.001 843.999l-116 -101
l-40 44l110 115h91l110 -115l-39 -44z" />
    <glyph glyph-name="uni1EA9" unicode="&#x1ea9;" horiz-adv-x="481" 
d="M325 241c-6.66699 -6.66699 -16.3311 -12.0029 -28.998 -16.0029s-31 -8.33301 -55 -13c-37.333 -7.33301 -63 -16.666 -77 -27.999s-21 -27.666 -21 -48.999c0 -36.667 21 -55 63 -55c16.667 0 32.167 2.83301 46.5 8.5s26.666 13.334 36.999 23.001
s18.666 21 24.999 34s9.5 26.833 9.5 41.5zM334.003 -0.00292969c-4 12.667 -6.66895 27.332 -8.00195 43.999c-15.333 -17.333 -35.666 -31.166 -60.999 -41.499s-54.666 -15.5 -87.999 -15.5c-56.667 0 -98.167 12.5 -124.5 37.5s-39.5 57.5 -39.5 97.5
c0 35.333 5.66699 63.5 17 84.5s27 37.5 47 49.5s43.833 20.833 71.5 26.5s57.834 10.834 90.501 15.501s54.667 10.834 66 18.501s17 20.167 17 37.5c0 16 -7.5 28.5 -22.5 37.5s-35.167 13.5 -60.5 13.5c-30 0 -51.5 -6.66699 -64.5 -20s-21.167 -31 -24.5 -53h-121
c0.666992 25.333 4.83398 48.666 12.501 69.999s20 39.666 37 54.999s39.167 27.166 66.5 35.499s60.666 12.5 99.999 12.5c38.667 0 71.5 -4.33301 98.5 -13s48.667 -21.167 65 -37.5s28.166 -36.666 35.499 -60.999s11 -51.833 11 -82.5v-311h-121zM416.001 580.995
c0 11.333 1.66797 21.499 5.00098 30.499s10 16.5 20 22.5c7.33301 4 13 8 17 12s6 10 6 18c0 11.333 -8 17 -24 17c-5.33301 0 -11.333 -1 -18 -3s-14.334 -6 -23.001 -12l-18 55c10 8.66699 21.833 15 35.5 19s25.167 6 34.5 6c23.333 0 41.5 -5.5 54.5 -16.5
s19.5 -25.833 19.5 -44.5c0 -14 -3 -25.167 -9 -33.5s-12.833 -15.666 -20.5 -21.999s-14.5 -13 -20.5 -20s-9 -16.5 -9 -28.5h-50zM240.002 671.994l-116 -101l-40 44l110 115h91l110 -115l-39 -44z" />
    <glyph glyph-name="uni1EAA" unicode="&#x1eaa;" horiz-adv-x="638" 
d="M319 515h-1l-85 -264h169zM484 0l-42 137h-245l-47 -137h-147l237 664h161l234 -664h-151zM448 904c-6 -24 -16.499 -40.1689 -31.499 -48.502s-30.5 -12.5 -46.5 -12.5c-8 0 -16.667 1 -26 3s-18.5 4.33301 -27.5 7s-17.5 5 -25.5 7s-15 3 -21 3
c-10.667 0 -20 -10.667 -28 -32l-49 20c6 22.667 15.333 38.834 28 48.501s26.667 14.5 42 14.5c12 0 22.667 -1.16699 32 -3.5s18.166 -5 26.499 -8s16.333 -5.66699 24 -8s15.5 -3.5 23.5 -3.5c7.33301 0 13.333 1.83301 18 5.5s8 10.834 10 21.501zM421.001 725.998
l-102 70l-101 -70l-35 30l96 80h80l96 -80z" />
    <glyph glyph-name="uni1EAB" unicode="&#x1eab;" horiz-adv-x="481" 
d="M325 241c-6.66699 -6.66699 -16.3311 -12.0029 -28.998 -16.0029s-31 -8.33301 -55 -13c-37.333 -7.33301 -63 -16.666 -77 -27.999s-21 -27.666 -21 -48.999c0 -36.667 21 -55 63 -55c16.667 0 32.167 2.83301 46.5 8.5s26.666 13.334 36.999 23.001
s18.666 21 24.999 34s9.5 26.833 9.5 41.5zM334.003 -0.00292969c-4 12.667 -6.66895 27.332 -8.00195 43.999c-15.333 -17.333 -35.666 -31.166 -60.999 -41.499s-54.666 -15.5 -87.999 -15.5c-56.667 0 -98.167 12.5 -124.5 37.5s-39.5 57.5 -39.5 97.5
c0 35.333 5.66699 63.5 17 84.5s27 37.5 47 49.5s43.833 20.833 71.5 26.5s57.834 10.834 90.501 15.501s54.667 10.834 66 18.501s17 20.167 17 37.5c0 16 -7.5 28.5 -22.5 37.5s-35.167 13.5 -60.5 13.5c-30 0 -51.5 -6.66699 -64.5 -20s-21.167 -31 -24.5 -53h-121
c0.666992 25.333 4.83398 48.666 12.501 69.999s20 39.666 37 54.999s39.167 27.166 66.5 35.499s60.666 12.5 99.999 12.5c38.667 0 71.5 -4.33301 98.5 -13s48.667 -21.167 65 -37.5s28.166 -36.666 35.499 -60.999s11 -51.833 11 -82.5v-311h-121zM379.001 731.995
c-6 -24 -16.499 -40.1689 -31.499 -48.502s-30.5 -12.5 -46.5 -12.5c-8 0 -16.667 1 -26 3s-18.5 4.33301 -27.5 7s-17.5 5 -25.5 7s-15 3 -21 3c-10.667 0 -20 -10.667 -28 -32l-49 20c6 22.667 15.333 38.834 28 48.501s26.667 14.5 42 14.5c12 0 22.667 -1.16699 32 -3.5
s18.166 -5 26.499 -8s16.333 -5.66699 24 -8s15.5 -3.5 23.5 -3.5c7.33301 0 13.333 1.83301 18 5.5s8 10.834 10 21.501zM352.002 553.993l-102 70l-101 -70l-35 30l96 80h80l96 -80z" />
    <glyph glyph-name="uni1EAC" unicode="&#x1eac;" horiz-adv-x="638" 
d="M319 515h-1l-85 -264h169zM484 0l-42 137h-245l-47 -137h-147l237 664h161l234 -664h-151zM319 851l-135 -118l-46 51l128 134h106l128 -134l-46 -51zM254 -206v124h130v-124h-130z" />
    <glyph glyph-name="uni1EAD" unicode="&#x1ead;" horiz-adv-x="481" 
d="M325 241c-6.66699 -6.66699 -16.3311 -12.0029 -28.998 -16.0029s-31 -8.33301 -55 -13c-37.333 -7.33301 -63 -16.666 -77 -27.999s-21 -27.666 -21 -48.999c0 -36.667 21 -55 63 -55c16.667 0 32.167 2.83301 46.5 8.5s26.666 13.334 36.999 23.001
s18.666 21 24.999 34s9.5 26.833 9.5 41.5zM334.003 -0.00292969c-4 12.667 -6.66895 27.332 -8.00195 43.999c-15.333 -17.333 -35.666 -31.166 -60.999 -41.499s-54.666 -15.5 -87.999 -15.5c-56.667 0 -98.167 12.5 -124.5 37.5s-39.5 57.5 -39.5 97.5
c0 35.333 5.66699 63.5 17 84.5s27 37.5 47 49.5s43.833 20.833 71.5 26.5s57.834 10.834 90.501 15.501s54.667 10.834 66 18.501s17 20.167 17 37.5c0 16 -7.5 28.5 -22.5 37.5s-35.167 13.5 -60.5 13.5c-30 0 -51.5 -6.66699 -64.5 -20s-21.167 -31 -24.5 -53h-121
c0.666992 25.333 4.83398 48.666 12.501 69.999s20 39.666 37 54.999s39.167 27.166 66.5 35.499s60.666 12.5 99.999 12.5c38.667 0 71.5 -4.33301 98.5 -13s48.667 -21.167 65 -37.5s28.166 -36.666 35.499 -60.999s11 -51.833 11 -82.5v-311h-121zM240.001 678.995
l-135 -118l-46 51l128 134h106l128 -134l-46 -51zM165.001 -206.005v124h130v-124h-130z" />
    <glyph glyph-name="uni1EAE" unicode="&#x1eae;" horiz-adv-x="638" 
d="M319 515h-1l-85 -264h169zM484 0l-42 137h-245l-47 -137h-147l237 664h161l234 -664h-151zM430 840c0 -19.333 -3.16992 -36 -9.50293 -50s-14.666 -25.833 -24.999 -35.5s-22.333 -16.834 -36 -21.501s-27.5 -7 -41.5 -7s-27.667 2.33301 -41 7
s-25.166 11.834 -35.499 21.501s-18.666 21.5 -24.999 35.5s-9.5 30.667 -9.5 50h57c0 -19.333 4.83301 -34.166 14.5 -44.499s22.834 -15.5 39.501 -15.5c17.333 0 30.666 5.16699 39.999 15.5s14.333 25.166 15 44.499h57zM289.997 816l-18 33l119 69l27 -47z" />
    <glyph glyph-name="uni1EAF" unicode="&#x1eaf;" horiz-adv-x="481" 
d="M325 241c-6.66699 -6.66699 -16.3311 -12.0029 -28.998 -16.0029s-31 -8.33301 -55 -13c-37.333 -7.33301 -63 -16.666 -77 -27.999s-21 -27.666 -21 -48.999c0 -36.667 21 -55 63 -55c16.667 0 32.167 2.83301 46.5 8.5s26.666 13.334 36.999 23.001
s18.666 21 24.999 34s9.5 26.833 9.5 41.5zM334.003 -0.00292969c-4 12.667 -6.66895 27.332 -8.00195 43.999c-15.333 -17.333 -35.666 -31.166 -60.999 -41.499s-54.666 -15.5 -87.999 -15.5c-56.667 0 -98.167 12.5 -124.5 37.5s-39.5 57.5 -39.5 97.5
c0 35.333 5.66699 63.5 17 84.5s27 37.5 47 49.5s43.833 20.833 71.5 26.5s57.834 10.834 90.501 15.501s54.667 10.834 66 18.501s17 20.167 17 37.5c0 16 -7.5 28.5 -22.5 37.5s-35.167 13.5 -60.5 13.5c-30 0 -51.5 -6.66699 -64.5 -20s-21.167 -31 -24.5 -53h-121
c0.666992 25.333 4.83398 48.666 12.501 69.999s20 39.666 37 54.999s39.167 27.166 66.5 35.499s60.666 12.5 99.999 12.5c38.667 0 71.5 -4.33301 98.5 -13s48.667 -21.167 65 -37.5s28.166 -36.666 35.499 -60.999s11 -51.833 11 -82.5v-311h-121zM358.001 667.995
c0 -19.333 -3.16992 -36 -9.50293 -50s-14.666 -25.833 -24.999 -35.5s-22.333 -16.834 -36 -21.501s-27.5 -7 -41.5 -7s-27.667 2.33301 -41 7s-25.166 11.834 -35.499 21.501s-18.666 21.5 -24.999 35.5s-9.5 30.667 -9.5 50h57c0 -19.333 4.83301 -34.166 14.5 -44.499
s22.834 -15.5 39.501 -15.5c17.333 0 30.666 5.16699 39.999 15.5s14.333 25.166 15 44.499h57zM217.998 643.995l-18 33l119 69l27 -47z" />
    <glyph glyph-name="uni1EB0" unicode="&#x1eb0;" horiz-adv-x="638" 
d="M319 515h-1l-85 -264h169zM484 0l-42 137h-245l-47 -137h-147l237 664h161l234 -664h-151zM430 840c0 -19.333 -3.16992 -36 -9.50293 -50s-14.666 -25.833 -24.999 -35.5s-22.166 -16.834 -35.499 -21.501s-27 -7 -41 -7s-27.833 2.33301 -41.5 7
s-25.667 11.834 -36 21.501s-18.666 21.5 -24.999 35.5s-9.5 30.667 -9.5 50h57c0.666992 -19.333 5.66699 -34.166 15 -44.499s22.666 -15.5 39.999 -15.5c16.667 0 29.834 5.16699 39.501 15.5s14.5 25.166 14.5 44.499h57zM218.997 871l27 47l119 -69l-18 -33z" />
    <glyph glyph-name="uni1EB1" unicode="&#x1eb1;" horiz-adv-x="481" 
d="M325 241c-6.66699 -6.66699 -16.3311 -12.0029 -28.998 -16.0029s-31 -8.33301 -55 -13c-37.333 -7.33301 -63 -16.666 -77 -27.999s-21 -27.666 -21 -48.999c0 -36.667 21 -55 63 -55c16.667 0 32.167 2.83301 46.5 8.5s26.666 13.334 36.999 23.001
s18.666 21 24.999 34s9.5 26.833 9.5 41.5zM334.003 -0.00292969c-4 12.667 -6.66895 27.332 -8.00195 43.999c-15.333 -17.333 -35.666 -31.166 -60.999 -41.499s-54.666 -15.5 -87.999 -15.5c-56.667 0 -98.167 12.5 -124.5 37.5s-39.5 57.5 -39.5 97.5
c0 35.333 5.66699 63.5 17 84.5s27 37.5 47 49.5s43.833 20.833 71.5 26.5s57.834 10.834 90.501 15.501s54.667 10.834 66 18.501s17 20.167 17 37.5c0 16 -7.5 28.5 -22.5 37.5s-35.167 13.5 -60.5 13.5c-30 0 -51.5 -6.66699 -64.5 -20s-21.167 -31 -24.5 -53h-121
c0.666992 25.333 4.83398 48.666 12.501 69.999s20 39.666 37 54.999s39.167 27.166 66.5 35.499s60.666 12.5 99.999 12.5c38.667 0 71.5 -4.33301 98.5 -13s48.667 -21.167 65 -37.5s28.166 -36.666 35.499 -60.999s11 -51.833 11 -82.5v-311h-121zM358.001 667.995
c0 -19.333 -3.16992 -36 -9.50293 -50s-14.666 -25.833 -24.999 -35.5s-22.166 -16.834 -35.499 -21.501s-27 -7 -41 -7s-27.833 2.33301 -41.5 7s-25.667 11.834 -36 21.501s-18.666 21.5 -24.999 35.5s-9.5 30.667 -9.5 50h57
c0.666992 -19.333 5.66699 -34.166 15 -44.499s22.666 -15.5 39.999 -15.5c16.667 0 29.834 5.16699 39.501 15.5s14.5 25.166 14.5 44.499h57zM146.998 698.995l27 47l119 -69l-18 -33z" />
    <glyph glyph-name="uni1EB2" unicode="&#x1eb2;" horiz-adv-x="638" 
d="M319 515h-1l-85 -264h169zM484 0l-42 137h-245l-47 -137h-147l237 664h161l234 -664h-151zM430 840c0 -19.333 -3.16992 -36 -9.50293 -50s-14.666 -25.833 -24.999 -35.5s-22.166 -16.834 -35.499 -21.501s-27 -7 -41 -7s-27.833 2.33301 -41.5 7
s-25.667 11.834 -36 21.501s-18.666 21.5 -24.999 35.5s-9.5 30.667 -9.5 50h57c0.666992 -19.333 5.66699 -34.166 15 -44.499s22.666 -15.5 39.999 -15.5c16.667 0 29.834 5.16699 39.501 15.5s14.5 25.166 14.5 44.499h57zM292.997 795
c0 8.66699 1.33301 16.3311 4 22.998s7.66699 12.334 15 17.001c5.33301 3.33301 9.5 6.33301 12.5 9s4.5 7 4.5 13c0 8.66699 -6 13 -18 13c-8.66699 0 -19 -3.66699 -31 -11l-13 40c7.33301 6.66699 16 11.5 26 14.5s18.667 4.5 26 4.5
c17.333 0 30.833 -4.16699 40.5 -12.5s14.5 -19.166 14.5 -32.499c0 -10.667 -2.33301 -19 -7 -25s-9.66699 -11.5 -15 -16.5s-10.333 -10.167 -15 -15.5s-7 -12.333 -7 -21h-37z" />
    <glyph glyph-name="uni1EB3" unicode="&#x1eb3;" horiz-adv-x="481" 
d="M325 241c-6.66699 -6.66699 -16.3311 -12.0029 -28.998 -16.0029s-31 -8.33301 -55 -13c-37.333 -7.33301 -63 -16.666 -77 -27.999s-21 -27.666 -21 -48.999c0 -36.667 21 -55 63 -55c16.667 0 32.167 2.83301 46.5 8.5s26.666 13.334 36.999 23.001
s18.666 21 24.999 34s9.5 26.833 9.5 41.5zM334.003 -0.00292969c-4 12.667 -6.66895 27.332 -8.00195 43.999c-15.333 -17.333 -35.666 -31.166 -60.999 -41.499s-54.666 -15.5 -87.999 -15.5c-56.667 0 -98.167 12.5 -124.5 37.5s-39.5 57.5 -39.5 97.5
c0 35.333 5.66699 63.5 17 84.5s27 37.5 47 49.5s43.833 20.833 71.5 26.5s57.834 10.834 90.501 15.501s54.667 10.834 66 18.501s17 20.167 17 37.5c0 16 -7.5 28.5 -22.5 37.5s-35.167 13.5 -60.5 13.5c-30 0 -51.5 -6.66699 -64.5 -20s-21.167 -31 -24.5 -53h-121
c0.666992 25.333 4.83398 48.666 12.501 69.999s20 39.666 37 54.999s39.167 27.166 66.5 35.499s60.666 12.5 99.999 12.5c38.667 0 71.5 -4.33301 98.5 -13s48.667 -21.167 65 -37.5s28.166 -36.666 35.499 -60.999s11 -51.833 11 -82.5v-311h-121zM356.001 667.995
c0 -19.333 -3.16992 -36 -9.50293 -50s-14.666 -25.833 -24.999 -35.5s-22.166 -16.834 -35.499 -21.501s-27 -7 -41 -7s-27.833 2.33301 -41.5 7s-25.667 11.834 -36 21.501s-18.666 21.5 -24.999 35.5s-9.5 30.667 -9.5 50h57
c0.666992 -19.333 5.66699 -34.166 15 -44.499s22.666 -15.5 39.999 -15.5c16.667 0 29.834 5.16699 39.501 15.5s14.5 25.166 14.5 44.499h57zM218.998 622.995c0 8.66699 1.33301 16.3311 4 22.998s7.66699 12.334 15 17.001c5.33301 3.33301 9.5 6.33301 12.5 9
s4.5 7 4.5 13c0 8.66699 -6 13 -18 13c-8.66699 0 -19 -3.66699 -31 -11l-13 40c7.33301 6.66699 16 11.5 26 14.5s18.667 4.5 26 4.5c17.333 0 30.833 -4.16699 40.5 -12.5s14.5 -19.166 14.5 -32.499c0 -10.667 -2.33301 -19 -7 -25s-9.66699 -11.5 -15 -16.5
s-10.333 -10.167 -15 -15.5s-7 -12.333 -7 -21h-37z" />
    <glyph glyph-name="uni1EB4" unicode="&#x1eb4;" horiz-adv-x="638" 
d="M319 515h-1l-85 -264h169zM484 0l-42 137h-245l-47 -137h-147l237 664h161l234 -664h-151zM410 908c-4 -18.667 -11.0049 -32.334 -21.0049 -41.001s-20.667 -13 -32 -13c-6.66699 0 -12.834 1.16699 -18.501 3.5s-11.167 4.83301 -16.5 7.5s-10.833 5.16699 -16.5 7.5
s-11.5 3.5 -17.5 3.5c-3.33301 0 -6.16602 -1.5 -8.49902 -4.5s-5.16602 -9.16699 -8.49902 -18.5l-37 18c5.33301 16.667 12.333 28.334 21 35.001s18.667 10 30 10c6.66699 0 12.834 -1.16699 18.501 -3.5s11.334 -5 17.001 -8s11.334 -5.66699 17.001 -8
s11.834 -3.5 18.501 -3.5c8 0 13 8.33301 15 25zM429.995 840c0 -19.333 -3.16992 -36 -9.50293 -50s-14.666 -25.833 -24.999 -35.5s-22.166 -16.834 -35.499 -21.501s-27 -7 -41 -7s-27.833 2.33301 -41.5 7s-25.667 11.834 -36 21.501s-18.666 21.5 -24.999 35.5
s-9.5 30.667 -9.5 50h57c0.666992 -19.333 5.66699 -34.166 15 -44.499s22.666 -15.5 39.999 -15.5c16.667 0 29.834 5.16699 39.501 15.5s14.5 25.166 14.5 44.499h57z" />
    <glyph glyph-name="uni1EB5" unicode="&#x1eb5;" horiz-adv-x="481" 
d="M325 241c-6.66699 -6.66699 -16.3311 -12.0029 -28.998 -16.0029s-31 -8.33301 -55 -13c-37.333 -7.33301 -63 -16.666 -77 -27.999s-21 -27.666 -21 -48.999c0 -36.667 21 -55 63 -55c16.667 0 32.167 2.83301 46.5 8.5s26.666 13.334 36.999 23.001
s18.666 21 24.999 34s9.5 26.833 9.5 41.5zM334.003 -0.00292969c-4 12.667 -6.66895 27.332 -8.00195 43.999c-15.333 -17.333 -35.666 -31.166 -60.999 -41.499s-54.666 -15.5 -87.999 -15.5c-56.667 0 -98.167 12.5 -124.5 37.5s-39.5 57.5 -39.5 97.5
c0 35.333 5.66699 63.5 17 84.5s27 37.5 47 49.5s43.833 20.833 71.5 26.5s57.834 10.834 90.501 15.501s54.667 10.834 66 18.501s17 20.167 17 37.5c0 16 -7.5 28.5 -22.5 37.5s-35.167 13.5 -60.5 13.5c-30 0 -51.5 -6.66699 -64.5 -20s-21.167 -31 -24.5 -53h-121
c0.666992 25.333 4.83398 48.666 12.501 69.999s20 39.666 37 54.999s39.167 27.166 66.5 35.499s60.666 12.5 99.999 12.5c38.667 0 71.5 -4.33301 98.5 -13s48.667 -21.167 65 -37.5s28.166 -36.666 35.499 -60.999s11 -51.833 11 -82.5v-311h-121zM332.001 735.995
c-4 -18.667 -11.0049 -32.334 -21.0049 -41.001s-20.667 -13 -32 -13c-6.66699 0 -12.834 1.16699 -18.501 3.5s-11.167 4.83301 -16.5 7.5s-10.833 5.16699 -16.5 7.5s-11.5 3.5 -17.5 3.5c-3.33301 0 -6.16602 -1.5 -8.49902 -4.5s-5.16602 -9.16699 -8.49902 -18.5
l-37 18c5.33301 16.667 12.333 28.334 21 35.001s18.667 10 30 10c6.66699 0 12.834 -1.16699 18.501 -3.5s11.334 -5 17.001 -8s11.334 -5.66699 17.001 -8s11.834 -3.5 18.501 -3.5c8 0 13 8.33301 15 25zM351.996 667.995c0 -19.333 -3.16992 -36 -9.50293 -50
s-14.666 -25.833 -24.999 -35.5s-22.166 -16.834 -35.499 -21.501s-27 -7 -41 -7s-27.833 2.33301 -41.5 7s-25.667 11.834 -36 21.501s-18.666 21.5 -24.999 35.5s-9.5 30.667 -9.5 50h57c0.666992 -19.333 5.66699 -34.166 15 -44.499s22.666 -15.5 39.999 -15.5
c16.667 0 29.834 5.16699 39.501 15.5s14.5 25.166 14.5 44.499h57z" />
    <glyph glyph-name="uni1EB6" unicode="&#x1eb6;" horiz-adv-x="638" 
d="M319 515h-1l-85 -264h169zM484 0l-42 137h-245l-47 -137h-147l237 664h161l234 -664h-151zM481 918c0 -28 -4.5 -52.333 -13.5 -73s-21 -37.834 -36 -51.501s-32.333 -24 -52 -31s-39.834 -10.5 -60.501 -10.5s-40.834 3.5 -60.501 10.5s-37 17.333 -52 31
s-27 30.834 -36 51.501s-13.5 45 -13.5 73h82c1.33301 -28 8.83301 -49.5 22.5 -64.5s32.834 -22.5 57.501 -22.5s43.834 7.5 57.501 22.5s21.167 36.5 22.5 64.5h82zM254 -206v124h130v-124h-130z" />
    <glyph glyph-name="uni1EB7" unicode="&#x1eb7;" horiz-adv-x="481" 
d="M325 241c-6.66699 -6.66699 -16.3311 -12.0029 -28.998 -16.0029s-31 -8.33301 -55 -13c-37.333 -7.33301 -63 -16.666 -77 -27.999s-21 -27.666 -21 -48.999c0 -36.667 21 -55 63 -55c16.667 0 32.167 2.83301 46.5 8.5s26.666 13.334 36.999 23.001
s18.666 21 24.999 34s9.5 26.833 9.5 41.5zM334.003 -0.00292969c-4 12.667 -6.66895 27.332 -8.00195 43.999c-15.333 -17.333 -35.666 -31.166 -60.999 -41.499s-54.666 -15.5 -87.999 -15.5c-56.667 0 -98.167 12.5 -124.5 37.5s-39.5 57.5 -39.5 97.5
c0 35.333 5.66699 63.5 17 84.5s27 37.5 47 49.5s43.833 20.833 71.5 26.5s57.834 10.834 90.501 15.501s54.667 10.834 66 18.501s17 20.167 17 37.5c0 16 -7.5 28.5 -22.5 37.5s-35.167 13.5 -60.5 13.5c-30 0 -51.5 -6.66699 -64.5 -20s-21.167 -31 -24.5 -53h-121
c0.666992 25.333 4.83398 48.666 12.501 69.999s20 39.666 37 54.999s39.167 27.166 66.5 35.499s60.666 12.5 99.999 12.5c38.667 0 71.5 -4.33301 98.5 -13s48.667 -21.167 65 -37.5s28.166 -36.666 35.499 -60.999s11 -51.833 11 -82.5v-311h-121zM402.001 745.995
c0 -28 -4.5 -52.333 -13.5 -73s-21 -37.834 -36 -51.501s-32.333 -24 -52 -31s-39.834 -10.5 -60.501 -10.5s-40.834 3.5 -60.501 10.5s-37 17.333 -52 31s-27 30.834 -36 51.501s-13.5 45 -13.5 73h82c1.33301 -28 8.83301 -49.5 22.5 -64.5s32.834 -22.5 57.501 -22.5
s43.834 7.5 57.501 22.5s21.167 36.5 22.5 64.5h82zM165.001 -206.005v124h130v-124h-130z" />
    <glyph glyph-name="uni1EB8" unicode="&#x1eb8;" horiz-adv-x="527" 
d="M23 0v664h488v-116h-353v-142h325v-117h-325v-171h369v-118h-504zM215 -206v124h130v-124h-130z" />
    <glyph glyph-name="uni1EB9" unicode="&#x1eb9;" 
d="M350 294c-0.666992 18 -3.83301 33.833 -9.5 47.5s-13.167 25 -22.5 34s-20 15.667 -32 20s-24.333 6.5 -37 6.5c-26 0 -48.5 -9.5 -67.5 -28.5s-29.833 -45.5 -32.5 -79.5h201zM145.001 212c2 -37.333 12.835 -67 32.502 -89s45.5 -33 77.5 -33
c21.333 0 40.166 4.83301 56.499 14.5s26.833 23.167 31.5 40.5h134c-15.333 -50.667 -42 -89.667 -80 -117s-83.333 -41 -136 -41c-164 0 -246 89.333 -246 268c0 38 5.33301 72.333 16 103s26.167 57 46.5 79s45.166 38.833 74.499 50.5s63 17.5 101 17.5
c76 0 133.5 -24.333 172.5 -73s58.5 -122 58.5 -220h-339zM181.003 -206v124h130v-124h-130z" />
    <glyph glyph-name="uni1EBA" unicode="&#x1eba;" horiz-adv-x="527" 
d="M23 0v664h488v-116h-353v-142h325v-117h-325v-171h369v-118h-504zM255 753c0 11.333 1.66797 21.499 5.00098 30.499s10 16.5 20 22.5c7.33301 4 13 8 17 12s6 10 6 18c0 11.333 -8 17 -24 17c-5.33301 0 -11.333 -1 -18 -3s-14.334 -6 -23.001 -12l-18 55
c10 8.66699 21.833 15 35.5 19s25.167 6 34.5 6c23.333 0 41.5 -5.5 54.5 -16.5s19.5 -25.833 19.5 -44.5c0 -14 -3 -25.167 -9 -33.5s-12.833 -15.666 -20.5 -21.999s-14.5 -13 -20.5 -20s-9 -16.5 -9 -28.5h-50z" />
    <glyph glyph-name="uni1EBB" unicode="&#x1ebb;" 
d="M350 294c-0.666992 18 -3.83301 33.833 -9.5 47.5s-13.167 25 -22.5 34s-20 15.667 -32 20s-24.333 6.5 -37 6.5c-26 0 -48.5 -9.5 -67.5 -28.5s-29.833 -45.5 -32.5 -79.5h201zM145.001 212c2 -37.333 12.835 -67 32.502 -89s45.5 -33 77.5 -33
c21.333 0 40.166 4.83301 56.499 14.5s26.833 23.167 31.5 40.5h134c-15.333 -50.667 -42 -89.667 -80 -117s-83.333 -41 -136 -41c-164 0 -246 89.333 -246 268c0 38 5.33301 72.333 16 103s26.167 57 46.5 79s45.166 38.833 74.499 50.5s63 17.5 101 17.5
c76 0 133.5 -24.333 172.5 -73s58.5 -122 58.5 -220h-339zM215.003 581c0 11.333 1.66797 21.499 5.00098 30.499s10 16.5 20 22.5c7.33301 4 13 8 17 12s6 10 6 18c0 11.333 -8 17 -24 17c-5.33301 0 -11.333 -1 -18 -3s-14.334 -6 -23.001 -12l-18 55
c10 8.66699 21.833 15 35.5 19s25.167 6 34.5 6c23.333 0 41.5 -5.5 54.5 -16.5s19.5 -25.833 19.5 -44.5c0 -14 -3 -25.167 -9 -33.5s-12.833 -15.666 -20.5 -21.999s-14.5 -13 -20.5 -20s-9 -16.5 -9 -28.5h-50z" />
    <glyph glyph-name="uni1EBC" unicode="&#x1ebc;" horiz-adv-x="527" 
d="M23 0v664h488v-116h-353v-142h325v-117h-325v-171h369v-118h-504zM435 846c-11.333 -36 -27.001 -61.335 -47.001 -76.002s-40.667 -22 -62 -22c-12.667 0 -24.5 2.33301 -35.5 7s-21.5 9.83398 -31.5 15.501s-20 10.834 -30 15.501s-20.333 7 -31 7
c-4 0 -10 -2.66699 -18 -8s-15 -17.333 -21 -36l-69 37c10.667 32.667 24.334 55.5 41.001 68.5s35.334 19.5 56.001 19.5c15.333 0 29 -2.5 41 -7.5s23.333 -10.5 34 -16.5l30 -16.5c9.33301 -5 18.666 -7.5 27.999 -7.5c6 0 13.333 3.5 22 10.5s14.667 19.167 18 36.5z
" />
    <glyph glyph-name="uni1EBD" unicode="&#x1ebd;" 
d="M350 294c-0.666992 18 -3.83301 33.833 -9.5 47.5s-13.167 25 -22.5 34s-20 15.667 -32 20s-24.333 6.5 -37 6.5c-26 0 -48.5 -9.5 -67.5 -28.5s-29.833 -45.5 -32.5 -79.5h201zM145.001 212c2 -37.333 12.835 -67 32.502 -89s45.5 -33 77.5 -33
c21.333 0 40.166 4.83301 56.499 14.5s26.833 23.167 31.5 40.5h134c-15.333 -50.667 -42 -89.667 -80 -117s-83.333 -41 -136 -41c-164 0 -246 89.333 -246 268c0 38 5.33301 72.333 16 103s26.167 57 46.5 79s45.166 38.833 74.499 50.5s63 17.5 101 17.5
c76 0 133.5 -24.333 172.5 -73s58.5 -122 58.5 -220h-339zM421.003 674c-11.333 -36 -27.001 -61.335 -47.001 -76.002s-40.667 -22 -62 -22c-12.667 0 -24.5 2.33301 -35.5 7s-21.5 9.83398 -31.5 15.501s-20 10.834 -30 15.501s-20.333 7 -31 7c-4 0 -10 -2.66699 -18 -8
s-15 -17.333 -21 -36l-69 37c10.667 32.667 24.334 55.5 41.001 68.5s35.334 19.5 56.001 19.5c15.333 0 29 -2.5 41 -7.5s23.333 -10.5 34 -16.5l30 -16.5c9.33301 -5 18.666 -7.5 27.999 -7.5c6 0 13.333 3.5 22 10.5s14.667 19.167 18 36.5z" />
    <glyph glyph-name="uni1EBE" unicode="&#x1ebe;" horiz-adv-x="527" 
d="M23 0v664h488v-116h-353v-142h325v-117h-325v-171h369v-118h-504zM273 844l-116 -101l-39 44l110 115h91l110 -115l-40 -44zM482 756l-25 46l171 100l39 -68z" />
    <glyph glyph-name="uni1EBF" unicode="&#x1ebf;" 
d="M350 294c-0.666992 18 -3.83301 33.833 -9.5 47.5s-13.167 25 -22.5 34s-20 15.667 -32 20s-24.333 6.5 -37 6.5c-26 0 -48.5 -9.5 -67.5 -28.5s-29.833 -45.5 -32.5 -79.5h201zM145.001 212c2 -37.333 12.835 -67 32.502 -89s45.5 -33 77.5 -33
c21.333 0 40.166 4.83301 56.499 14.5s26.833 23.167 31.5 40.5h134c-15.333 -50.667 -42 -89.667 -80 -117s-83.333 -41 -136 -41c-164 0 -246 89.333 -246 268c0 38 5.33301 72.333 16 103s26.167 57 46.5 79s45.166 38.833 74.499 50.5s63 17.5 101 17.5
c76 0 133.5 -24.333 172.5 -73s58.5 -122 58.5 -220h-339zM250.003 672l-116 -101l-39 44l110 115h91l110 -115l-40 -44zM459.003 584l-25 46l171 100l39 -68z" />
    <glyph glyph-name="uni1EC0" unicode="&#x1ec0;" horiz-adv-x="527" 
d="M23 0v664h488v-116h-353v-142h325v-117h-325v-171h369v-118h-504zM268 844l-116 -101l-40 44l110 115h91l110 -115l-39 -44zM-126 834l39 68l171 -100l-25 -46z" />
    <glyph glyph-name="uni1EC1" unicode="&#x1ec1;" 
d="M350 294c-0.666992 18 -3.83301 33.833 -9.5 47.5s-13.167 25 -22.5 34s-20 15.667 -32 20s-24.333 6.5 -37 6.5c-26 0 -48.5 -9.5 -67.5 -28.5s-29.833 -45.5 -32.5 -79.5h201zM145.001 212c2 -37.333 12.835 -67 32.502 -89s45.5 -33 77.5 -33
c21.333 0 40.166 4.83301 56.499 14.5s26.833 23.167 31.5 40.5h134c-15.333 -50.667 -42 -89.667 -80 -117s-83.333 -41 -136 -41c-164 0 -246 89.333 -246 268c0 38 5.33301 72.333 16 103s26.167 57 46.5 79s45.166 38.833 74.499 50.5s63 17.5 101 17.5
c76 0 133.5 -24.333 172.5 -73s58.5 -122 58.5 -220h-339zM240.003 672l-116 -101l-40 44l110 115h91l110 -115l-39 -44zM-153.997 662l39 68l171 -100l-25 -46z" />
    <glyph glyph-name="uni1EC2" unicode="&#x1ec2;" horiz-adv-x="527" 
d="M23 0v664h488v-116h-353v-142h325v-117h-325v-171h369v-118h-504zM449 753c0 11.333 1.66797 21.499 5.00098 30.499s10 16.5 20 22.5c7.33301 4 13 8 17 12s6 10 6 18c0 11.333 -8 17 -24 17c-5.33301 0 -11.333 -1 -18 -3s-14.334 -6 -23.001 -12l-18 55
c10 8.66699 21.833 15 35.5 19s25.167 6 34.5 6c23.333 0 41.5 -5.5 54.5 -16.5s19.5 -25.833 19.5 -44.5c0 -14 -3 -25.167 -9 -33.5s-12.833 -15.666 -20.5 -21.999s-14.5 -13 -20.5 -20s-9 -16.5 -9 -28.5h-50zM273.001 843.999l-116 -101l-40 44l110 115h91l110 -115
l-39 -44z" />
    <glyph glyph-name="uni1EC3" unicode="&#x1ec3;" 
d="M350 294c-0.666992 18 -3.83301 33.833 -9.5 47.5s-13.167 25 -22.5 34s-20 15.667 -32 20s-24.333 6.5 -37 6.5c-26 0 -48.5 -9.5 -67.5 -28.5s-29.833 -45.5 -32.5 -79.5h201zM145.001 212c2 -37.333 12.835 -67 32.502 -89s45.5 -33 77.5 -33
c21.333 0 40.166 4.83301 56.499 14.5s26.833 23.167 31.5 40.5h134c-15.333 -50.667 -42 -89.667 -80 -117s-83.333 -41 -136 -41c-164 0 -246 89.333 -246 268c0 38 5.33301 72.333 16 103s26.167 57 46.5 79s45.166 38.833 74.499 50.5s63 17.5 101 17.5
c76 0 133.5 -24.333 172.5 -73s58.5 -122 58.5 -220h-339zM428.003 581c0 11.333 1.66797 21.499 5.00098 30.499s10 16.5 20 22.5c7.33301 4 13 8 17 12s6 10 6 18c0 11.333 -8 17 -24 17c-5.33301 0 -11.333 -1 -18 -3s-14.334 -6 -23.001 -12l-18 55
c10 8.66699 21.833 15 35.5 19s25.167 6 34.5 6c23.333 0 41.5 -5.5 54.5 -16.5s19.5 -25.833 19.5 -44.5c0 -14 -3 -25.167 -9 -33.5s-12.833 -15.666 -20.5 -21.999s-14.5 -13 -20.5 -20s-9 -16.5 -9 -28.5h-50zM252.004 671.999l-116 -101l-40 44l110 115h91l110 -115
l-39 -44z" />
    </font>
</defs>
</svg>
